<?xml version="1.0" encoding="us-ascii" standalone="no"?><svg xmlns="http://www.w3.org/2000/svg" xmlns:xlink="http://www.w3.org/1999/xlink" contentStyleType="text/css" height="872px" preserveAspectRatio="none" style="width:620px;height:872px;background:#FFFFFF;" version="1.1" viewBox="0 0 620 872" width="620px" zoomAndPan="magnify"><defs/><g><ellipse cx="472.5" cy="16" fill="#222222" rx="10" ry="10" style="stroke:#222222;stroke-width:1.0;"/><rect fill="#F1F1F1" height="40" rx="12.5" ry="12.5" style="stroke:#181818;stroke-width:0.5;" width="50" x="447.5" y="87"/><text fill="#000000" font-family="sans-serif" font-size="14" lengthAdjust="spacing" textLength="18" x="463.5" y="112.7285">Init</text><rect fill="#F1F1F1" height="40" rx="12.5" ry="12.5" style="stroke:#181818;stroke-width:0.5;" width="138" x="403.5" y="205"/><text fill="#000000" font-family="sans-serif" font-size="14" lengthAdjust="spacing" textLength="128" x="408.5" y="230.7285">QuantiteStockValide</text><rect fill="#F1F1F1" height="40" rx="12.5" ry="12.5" style="stroke:#181818;stroke-width:0.5;" width="94" x="348.5" y="323"/><text fill="#000000" font-family="sans-serif" font-size="14" lengthAdjust="spacing" textLength="84" x="353.5" y="348.7285">ProduitValide</text><rect fill="#F1F1F1" height="40" rx="12.5" ry="12.5" style="stroke:#181818;stroke-width:0.5;" width="86" x="245.5" y="463"/><text fill="#000000" font-family="sans-serif" font-size="14" lengthAdjust="spacing" textLength="76" x="250.5" y="488.7285">VenteCr&#233;&#233;e</text><rect fill="#F1F1F1" height="40" rx="12.5" ry="12.5" style="stroke:#181818;stroke-width:0.5;" width="86" x="147.5" y="603"/><text fill="#000000" font-family="sans-serif" font-size="14" lengthAdjust="spacing" textLength="76" x="152.5" y="628.7285">StockDeduit</text><rect fill="#F1F1F1" height="40" rx="12.5" ry="12.5" style="stroke:#181818;stroke-width:0.5;" width="147" x="7" y="743"/><text fill="#000000" font-family="sans-serif" font-size="14" lengthAdjust="spacing" textLength="137" x="12" y="768.7285">CommandeConfirm&#233;e</text><rect fill="#F1F1F1" height="40" rx="12.5" ry="12.5" style="stroke:#181818;stroke-width:0.5;" width="85" x="507" y="393"/><text fill="#000000" font-family="sans-serif" font-size="14" lengthAdjust="spacing" textLength="75" x="512" y="418.7285">ErreurStock</text><rect fill="#F1F1F1" height="40" rx="12.5" ry="12.5" style="stroke:#181818;stroke-width:0.5;" width="95" x="407" y="533"/><text fill="#000000" font-family="sans-serif" font-size="14" lengthAdjust="spacing" textLength="85" x="412" y="558.7285">ErreurProduit</text><rect fill="#F1F1F1" height="40" rx="12.5" ry="12.5" style="stroke:#181818;stroke-width:0.5;" width="87" x="318" y="673"/><text fill="#000000" font-family="sans-serif" font-size="14" lengthAdjust="spacing" textLength="77" x="323" y="698.7285">ErreurVente</text><rect fill="#F1F1F1" height="40" rx="12.5" ry="12.5" style="stroke:#181818;stroke-width:0.5;" width="141" x="189" y="743"/><text fill="#000000" font-family="sans-serif" font-size="14" lengthAdjust="spacing" textLength="131" x="194" y="768.7285">ErreurCompensation</text><ellipse cx="418.5" cy="855" fill="none" rx="11" ry="11" style="stroke:#222222;stroke-width:1.0;"/><ellipse cx="418.5" cy="855" fill="#222222" rx="6" ry="6" style="stroke:#222222;stroke-width:1.0;"/><!--link *start* to Init--><g id="link_*start*_Init"><path d="M472.5,26.19 C472.5,40.4 472.5,62.02 472.5,80.74 " fill="none" id="*start*-to-Init" style="stroke:#181818;stroke-width:1.0;"/><polygon fill="#181818" points="472.5,86.74,476.5,77.74,472.5,81.74,468.5,77.74,472.5,86.74" style="stroke:#181818;stroke-width:1.0;"/></g><!--link Init to QuantiteStockValide--><g id="link_Init_QuantiteStockValide"><path d="M472.5,127.16 C472.5,148.65 472.5,177.31 472.5,198.82 " fill="none" id="Init-to-QuantiteStockValide" style="stroke:#181818;stroke-width:1.0;"/><polygon fill="#181818" points="472.5,204.82,476.5,195.82,472.5,199.82,468.5,195.82,472.5,204.82" style="stroke:#181818;stroke-width:1.0;"/><text fill="#000000" font-family="sans-serif" font-size="13" lengthAdjust="spacing" textLength="76" x="473.5" y="171.4951">V&#233;rifier stock</text></g><!--link QuantiteStockValide to ProduitValide--><g id="link_QuantiteStockValide_ProduitValide"><path d="M430.36,245.07 C418.36,252.63 406.62,262.55 399.5,275 C391.23,289.46 390.376,302.6975 391.736,316.8475 " fill="none" id="QuantiteStockValide-to-ProduitValide" style="stroke:#181818;stroke-width:1.0;"/><polygon fill="#181818" points="392.31,322.82,395.4306,313.4786,391.8316,317.8429,387.4673,314.244,392.31,322.82" style="stroke:#181818;stroke-width:1.0;"/><text fill="#000000" font-family="sans-serif" font-size="13" lengthAdjust="spacing" textLength="102" x="400.5" y="289.4951">R&#233;cup&#233;rer produit</text></g><!--link ProduitValide to VenteCr??e--><g id="link_ProduitValide_VenteCr&#233;&#233;e"><path d="M348.34,352.55 C325.23,359.38 299.45,371.52 285.5,393 C271.95,413.88 275.0262,437.9183 280.3662,457.1683 " fill="none" id="ProduitValide-to-VenteCr&#233;&#233;e" style="stroke:#181818;stroke-width:1.0;"/><polygon fill="#181818" points="281.97,462.95,283.4187,453.2083,280.6335,458.1319,275.7098,455.3467,281.97,462.95" style="stroke:#181818;stroke-width:1.0;"/><text fill="#000000" font-family="sans-serif" font-size="13" lengthAdjust="spacing" textLength="65" x="286.5" y="418.4951">Cr&#233;er vente</text></g><!--link VenteCr??e to StockDeduit--><g id="link_VenteCr&#233;&#233;e_StockDeduit"><path d="M245.35,493.48 C224.04,500.58 200.22,512.68 187.5,533 C174.37,553.96 177.2536,577.6981 182.4436,596.8881 " fill="none" id="VenteCr&#233;&#233;e-to-StockDeduit" style="stroke:#181818;stroke-width:1.0;"/><polygon fill="#181818" points="184.01,602.68,185.5216,592.9478,182.7046,597.8534,177.7991,595.0364,184.01,602.68" style="stroke:#181818;stroke-width:1.0;"/><text fill="#000000" font-family="sans-serif" font-size="13" lengthAdjust="spacing" textLength="80" x="188.5" y="558.4951">D&#233;duire stock</text></g><!--link StockDeduit to CommandeConfirm?e--><g id="link_StockDeduit_CommandeConfirm&#233;e"><path d="M166.57,643.22 C156.68,651.78 145.45,662.33 136.5,673 C117.85,695.24 103.6435,718.9283 93.3735,737.6683 " fill="none" id="StockDeduit-to-CommandeConfirm&#233;e" style="stroke:#181818;stroke-width:1.0;"/><polygon fill="#181818" points="90.49,742.93,98.3231,736.9598,92.8929,738.5453,91.3075,733.1151,90.49,742.93" style="stroke:#181818;stroke-width:1.0;"/><text fill="#000000" font-family="sans-serif" font-size="13" lengthAdjust="spacing" textLength="44" x="137.5" y="698.4951">Succ&#232;s</text></g><!--link QuantiteStockValide to ErreurStock--><g id="link_QuantiteStockValide_ErreurStock"><path d="M488.34,245.11 C494.97,253.81 502.31,264.5 507.5,275 C527.11,314.7 538.4931,359.5653 544.3731,386.7853 " fill="none" id="QuantiteStockValide-to-ErreurStock" style="stroke:#181818;stroke-width:1.0;"/><polygon fill="#181818" points="545.64,392.65,547.6495,383.0083,544.5843,387.7627,539.8299,384.6975,545.64,392.65" style="stroke:#181818;stroke-width:1.0;"/><text fill="#000000" font-family="sans-serif" font-size="13" lengthAdjust="spacing" textLength="96" x="516.5" y="289.4951">Stock insuffisant</text></g><!--link ProduitValide to ErreurProduit--><g id="link_ProduitValide_ErreurProduit"><path d="M388.59,363.05 C382.98,381.27 377,409.4 383.5,433 C394.18,471.73 417.4455,505.8423 434.8955,528.1723 " fill="none" id="ProduitValide-to-ErreurProduit" style="stroke:#181818;stroke-width:1.0;"/><polygon fill="#181818" points="438.59,532.9,436.2001,523.3455,435.5113,528.9603,429.8965,528.2715,438.59,532.9" style="stroke:#181818;stroke-width:1.0;"/><text fill="#000000" font-family="sans-serif" font-size="13" lengthAdjust="spacing" textLength="104" x="384.5" y="418.4951">Produit non trouv&#233;</text></g><!--link VenteCr??e to ErreurVente--><g id="link_VenteCr&#233;&#233;e_ErreurVente"><path d="M289.21,503.16 C290.32,521.46 293.18,549.64 300.5,573 C312.17,610.22 331.6253,644.7425 345.8053,667.5825 " fill="none" id="VenteCr&#233;&#233;e-to-ErreurVente" style="stroke:#181818;stroke-width:1.0;"/><polygon fill="#181818" points="348.97,672.68,347.6212,662.9239,346.3327,668.4321,340.8246,667.1436,348.97,672.68" style="stroke:#181818;stroke-width:1.0;"/><text fill="#000000" font-family="sans-serif" font-size="13" lengthAdjust="spacing" textLength="87" x="301.5" y="558.4951">&#201;chec cr&#233;ation</text></g><!--link StockDeduit to ErreurCompensation--><g id="link_StockDeduit_ErreurCompensation"><path d="M188.97,643.27 C188.33,662.17 189.72,691.23 201.5,713 C207.9,724.82 213.6591,731.3455 223.9791,739.3055 " fill="none" id="StockDeduit-to-ErreurCompensation" style="stroke:#181818;stroke-width:1.0;"/><polygon fill="#181818" points="228.73,742.97,224.0466,734.306,224.7709,739.9163,219.1606,740.6406,228.73,742.97" style="stroke:#181818;stroke-width:1.0;"/><text fill="#000000" font-family="sans-serif" font-size="13" lengthAdjust="spacing" textLength="97" x="202.5" y="698.4951">&#201;chec d&#233;duction</text></g><!--link ErreurStock to *end*--><g id="link_ErreurStock_*end*"><path d="M546.78,433.15 C543.24,459.76 537.5,509.43 537.5,552 C537.5,552 537.5,552 537.5,764 C537.5,818.14 463.9846,842.3511 434.8646,849.9711 " fill="none" id="ErreurStock-to-*end*" style="stroke:#181818;stroke-width:1.0;"/><polygon fill="#181818" points="429.06,851.49,438.7794,853.0813,433.8971,850.2242,436.7542,845.3419,429.06,851.49" style="stroke:#181818;stroke-width:1.0;"/></g><!--link ErreurProduit to *end*--><g id="link_ErreurProduit_*end*"><path d="M453.79,573.08 C451.94,616.29 445.93,724.81 429.5,814 C427.57,824.48 425.9715,830.4806 423.4715,838.5206 " fill="none" id="ErreurProduit-to-*end*" style="stroke:#181818;stroke-width:1.0;"/><polygon fill="#181818" points="421.69,844.25,428.1819,836.8436,423.1746,839.4755,420.5427,834.4682,421.69,844.25" style="stroke:#181818;stroke-width:1.0;"/></g><!--link ErreurVente to *end*--><g id="link_ErreurVente_*end*"><path d="M368.38,713.3 C380.63,747.71 403.8261,812.8181 413.0261,838.6381 " fill="none" id="ErreurVente-to-*end*" style="stroke:#181818;stroke-width:1.0;"/><polygon fill="#181818" points="415.04,844.29,415.7872,834.4695,413.3618,839.5801,408.2513,837.1547,415.04,844.29" style="stroke:#181818;stroke-width:1.0;"/></g><!--link ErreurCompensation to *end*--><g id="link_ErreurCompensation_*end*"><path d="M293.22,783.09 C330.23,804.04 382.0983,833.3946 404.1483,845.8746 " fill="none" id="ErreurCompensation-to-*end*" style="stroke:#181818;stroke-width:1.0;"/><polygon fill="#181818" points="409.37,848.83,403.5078,840.9158,405.0186,846.3672,399.5673,847.878,409.37,848.83" style="stroke:#181818;stroke-width:1.0;"/></g><!--SRC=[TP51JWGX44Ntd8AroLp0XPiU5-xKINfZN7IWEbFHXau1atW4RoBdu69MGQk3ZXkw-jT_K1-EQ473iiOtRI4OmZMYT-hfwbdlTZVwpc5KijI_XpIvY14EqPkNSNeLzbgF9HFE2AI3wEgII-XxyZPX_EOUIpPfPPZ9jVLKxn5g11TXe99B5aWgzfz4LLrFpFN8FSWMxDsNp1N1DjTvKyo3NvR9MHYycv6MjlyX6LC-WletnIqH9AggsEiNNKZpZ8692maQiUdCV5NEEnt9frF9VvCqgCgCb7Tp1ACD6wRwFh-pD3idMi65QlcXh5o3gPWwdruuVcVLpzUhRO1UwqxPMfy0]--></g></svg>