<?xml version="1.0" encoding="us-ascii" standalone="no"?><svg xmlns="http://www.w3.org/2000/svg" xmlns:xlink="http://www.w3.org/1999/xlink" contentStyleType="text/css" height="1400px" preserveAspectRatio="none" style="width:574px;height:1400px;background:#FFFFFF;" version="1.1" viewBox="0 0 574 1400" width="574px" zoomAndPan="magnify"><defs/><g><text fill="#000000" font-family="sans-serif" font-size="14" font-weight="bold" lengthAdjust="spacing" textLength="464" x="48" y="24.5332">Diagramme Cas d'Utilisation - Syst&#232;me Microservices E-Commerce</text><!--cluster CatalogueMcService--><g id="cluster_CatalogueMcService"><rect fill="none" height="174" rx="2.5" ry="2.5" style="stroke:#181818;stroke-width:1.0;" width="233" x="234" y="671.6094"/><text fill="#000000" font-family="sans-serif" font-size="14" font-weight="bold" lengthAdjust="spacing" textLength="146" x="277.5" y="688.1426">CatalogueMcService</text></g><!--cluster InventaireMcService--><g id="cluster_InventaireMcService"><rect fill="none" height="322" rx="2.5" ry="2.5" style="stroke:#181818;stroke-width:1.0;" width="435" x="133" y="869.6094"/><text fill="#000000" font-family="sans-serif" font-size="14" font-weight="bold" lengthAdjust="spacing" textLength="147" x="277" y="886.1426">InventaireMcService</text></g><!--cluster AdministrationMcService--><g id="cluster_AdministrationMcService"><rect fill="none" height="201" rx="2.5" ry="2.5" style="stroke:#181818;stroke-width:1.0;" width="308" x="196.5" y="446.6094"/><text fill="#000000" font-family="sans-serif" font-size="14" font-weight="bold" lengthAdjust="spacing" textLength="176" x="262.5" y="463.1426">AdministrationMcService</text></g><!--cluster VenteMcService--><g id="cluster_VenteMcService"><rect fill="none" height="179" rx="2.5" ry="2.5" style="stroke:#181818;stroke-width:1.0;" width="247" x="227" y="1215.6094"/><text fill="#000000" font-family="sans-serif" font-size="14" font-weight="bold" lengthAdjust="spacing" textLength="116" x="292.5" y="1232.1426">VenteMcService</text></g><!--cluster PanierMcService--><g id="cluster_PanierMcService"><rect fill="none" height="377" rx="2.5" ry="2.5" style="stroke:#181818;stroke-width:1.0;" width="316" x="192.5" y="45.6094"/><text fill="#000000" font-family="sans-serif" font-size="14" font-weight="bold" lengthAdjust="spacing" textLength="120" x="290.5" y="62.1426">PanierMcService</text></g><g id="elem_UC4"><ellipse cx="350.4659" cy="728.5025" fill="#F1F1F1" rx="89.9659" ry="20.3932" style="stroke:#181818;stroke-width:0.5;"/><text fill="#000000" font-family="sans-serif" font-size="14" lengthAdjust="spacing" textLength="138" x="281.4659" y="732.2311">UC4 - Modifier produit</text></g><g id="elem_UC7"><ellipse cx="350.5042" cy="806.6102" fill="#F1F1F1" rx="100.5042" ry="22.5008" style="stroke:#181818;stroke-width:0.5;"/><text fill="#000000" font-family="sans-serif" font-size="14" lengthAdjust="spacing" textLength="162" x="269.5042" y="810.3387">UC7 - Rechercher produit</text></g><g id="elem_UC2"><ellipse cx="350.2887" cy="1057.3671" fill="#F1F1F1" rx="144.2887" ry="31.2577" style="stroke:#181818;stroke-width:0.5;"/><text fill="#000000" font-family="sans-serif" font-size="14" lengthAdjust="spacing" textLength="185" x="257.7887" y="1052.2909">UC2 - Consulter stock central</text><text fill="#000000" font-family="sans-serif" font-size="14" lengthAdjust="spacing" textLength="209" x="245.7887" y="1069.9003">D&#233;clencher r&#233;approvisionnement</text></g><g id="elem_UC10"><ellipse cx="350.5137" cy="1149.5121" fill="#F1F1F1" rx="115.0137" ry="25.4027" style="stroke:#181818;stroke-width:0.5;"/><text fill="#000000" font-family="sans-serif" font-size="14" lengthAdjust="spacing" textLength="194" x="253.5137" y="1153.2406">UC10 - Consulter &#233;tat du stock</text></g><g id="elem_UC6"><ellipse cx="350.4447" cy="948.7983" fill="#F1F1F1" rx="201.4447" ry="42.6889" style="stroke:#181818;stroke-width:0.5;"/><text fill="#000000" font-family="sans-serif" font-size="14" lengthAdjust="spacing" textLength="375" x="162.9447" y="952.5268">UC6 - Approuver/refuser demande de r&#233;approvisionnement</text></g><g id="elem_UC1"><ellipse cx="350.5183" cy="509.713" fill="#F1F1F1" rx="121.0183" ry="26.6037" style="stroke:#181818;stroke-width:0.5;"/><text fill="#000000" font-family="sans-serif" font-size="14" lengthAdjust="spacing" textLength="207" x="247.0183" y="513.4415">UC1 - G&#233;n&#233;rer rapport consolid&#233;</text></g><g id="elem_UC3"><ellipse cx="350.6394" cy="601.6373" fill="#F1F1F1" rx="138.1394" ry="30.0279" style="stroke:#181818;stroke-width:0.5;"/><text fill="#000000" font-family="sans-serif" font-size="14" lengthAdjust="spacing" textLength="192" x="251.6394" y="597.3492">UC3 - Visualiser performances</text><text fill="#000000" font-family="sans-serif" font-size="14" lengthAdjust="spacing" textLength="60" x="317.6394" y="614.9585">magasins</text></g><g id="elem_UC8"><ellipse cx="350.2512" cy="1275.4596" fill="#F1F1F1" rx="107.2512" ry="23.8502" style="stroke:#181818;stroke-width:0.5;"/><text fill="#000000" font-family="sans-serif" font-size="14" lengthAdjust="spacing" textLength="177" x="261.7512" y="1279.1881">UC8 - Enregistrer une vente</text></g><g id="elem_UC9"><ellipse cx="350.313" cy="1356.372" fill="#F1F1F1" rx="94.313" ry="21.2626" style="stroke:#181818;stroke-width:0.5;"/><text fill="#000000" font-family="sans-serif" font-size="14" lengthAdjust="spacing" textLength="148" x="276.313" y="1360.1005">UC9 - G&#233;rer les retours</text></g><g id="elem_UC11"><ellipse cx="350.6476" cy="292.4389" fill="#F1F1F1" rx="142.1476" ry="30.8295" style="stroke:#181818;stroke-width:0.5;"/><text fill="#000000" font-family="sans-serif" font-size="14" lengthAdjust="spacing" textLength="252" x="224.6476" y="296.1674">UC11 - Ajouter/Retirer produit au panier</text></g><g id="elem_UC12"><ellipse cx="350.6128" cy="382.7319" fill="#F1F1F1" rx="108.6128" ry="24.1226" style="stroke:#181818;stroke-width:0.5;"/><text fill="#000000" font-family="sans-serif" font-size="14" lengthAdjust="spacing" textLength="180" x="260.6128" y="386.4605">UC12 - Consulter son panier</text></g><g id="elem_UC13"><ellipse cx="350.5829" cy="111.426" fill="#F1F1F1" rx="134.5829" ry="29.3166" style="stroke:#181818;stroke-width:0.5;"/><text fill="#000000" font-family="sans-serif" font-size="14" lengthAdjust="spacing" textLength="236" x="232.5829" y="115.1545">UC13 - Valider commande (checkout)</text></g><g id="elem_UC14"><ellipse cx="350.6359" cy="201.7366" fill="#F1F1F1" rx="113.6359" ry="25.1272" style="stroke:#181818;stroke-width:0.5;"/><text fill="#000000" font-family="sans-serif" font-size="14" lengthAdjust="spacing" textLength="191" x="255.1359" y="205.4651">UC14 - Cr&#233;er un compte client</text></g><!--entity E--><g id="elem_E"><ellipse cx="47.5" cy="1051.1094" fill="#F1F1F1" rx="8" ry="8" style="stroke:#181818;stroke-width:0.5;"/><path d="M47.5,1059.1094 L47.5,1086.1094 M34.5,1067.1094 L60.5,1067.1094 M47.5,1086.1094 L34.5,1101.1094 M47.5,1086.1094 L60.5,1101.1094 " fill="none" style="stroke:#181818;stroke-width:0.5;"/><text fill="#000000" font-family="sans-serif" font-size="14" lengthAdjust="spacing" textLength="54" x="20.5" y="1117.1426">Employe</text></g><!--entity R--><g id="elem_R"><ellipse cx="47.5" cy="894.1094" fill="#F1F1F1" rx="8" ry="8" style="stroke:#181818;stroke-width:0.5;"/><path d="M47.5,902.1094 L47.5,929.1094 M34.5,910.1094 L60.5,910.1094 M47.5,929.1094 L34.5,944.1094 M47.5,929.1094 L60.5,944.1094 " fill="none" style="stroke:#181818;stroke-width:0.5;"/><text fill="#000000" font-family="sans-serif" font-size="14" lengthAdjust="spacing" textLength="83" x="6" y="960.1426">Responsable</text></g><!--entity G--><g id="elem_G"><ellipse cx="47.5" cy="571.1094" fill="#F1F1F1" rx="8" ry="8" style="stroke:#181818;stroke-width:0.5;"/><path d="M47.5,579.1094 L47.5,606.1094 M34.5,587.1094 L60.5,587.1094 M47.5,606.1094 L34.5,621.1094 M47.5,606.1094 L60.5,621.1094 " fill="none" style="stroke:#181818;stroke-width:0.5;"/><text fill="#000000" font-family="sans-serif" font-size="14" lengthAdjust="spacing" textLength="81" x="7" y="637.1426">Gestionnaire</text></g><!--entity C--><g id="elem_C"><ellipse cx="47.5" cy="217.1094" fill="#F1F1F1" rx="8" ry="8" style="stroke:#181818;stroke-width:0.5;"/><path d="M47.5,225.1094 L47.5,252.1094 M34.5,233.1094 L60.5,233.1094 M47.5,252.1094 L34.5,267.1094 M47.5,252.1094 L60.5,267.1094 " fill="none" style="stroke:#181818;stroke-width:0.5;"/><text fill="#000000" font-family="sans-serif" font-size="14" lengthAdjust="spacing" textLength="36" x="29.5" y="283.1426">Client</text></g><!--link G to R--><g id="link_G_R"><path d="M47.5,640.6994 C47.5,722.2994 47.5,785.8994 47.5,867.4994 " fill="none" id="G-to-R" style="stroke:#181818;stroke-width:1.0;"/><polygon fill="none" points="47.5,885.4994,53.5,867.4994,41.5,867.4994,47.5,885.4994" style="stroke:#181818;stroke-width:1.0;"/></g><!--link R to E--><g id="link_R_E"><path d="M47.5,963.7094 C47.5,989.9194 47.5,998.1394 47.5,1024.3594 " fill="none" id="R-to-E" style="stroke:#181818;stroke-width:1.0;"/><polygon fill="none" points="47.5,1042.3594,53.5,1024.3594,41.5,1024.3594,47.5,1042.3594" style="stroke:#181818;stroke-width:1.0;"/></g><!--link E to UC2--><g id="link_E_UC2"><path d="M74.69,1079.5194 C106.22,1077.0094 155.5889,1073.0652 208.3789,1068.8652 " fill="none" id="E-to-UC2" style="stroke:#181818;stroke-width:1.0;"/><polygon fill="#181818" points="214.36,1068.3894,205.0711,1065.1158,209.3757,1068.7859,205.7056,1073.0906,214.36,1068.3894" style="stroke:#181818;stroke-width:1.0;"/></g><!--link E to UC7--><g id="link_E_UC7"><path d="M64.31,1042.2994 C71.82,1023.6194 80.89,1000.9694 89,980.6094 C105.09,940.1994 93.9,920.0194 125,889.6094 C163.7,851.7694 215.3063,832.352 262.3863,821.032 " fill="none" id="E-to-UC7" style="stroke:#181818;stroke-width:1.0;"/><polygon fill="#181818" points="268.22,819.6294,258.5343,817.8442,263.3586,820.7983,260.4045,825.6225,268.22,819.6294" style="stroke:#181818;stroke-width:1.0;"/></g><!--link E to UC8--><g id="link_E_UC8"><path d="M67.89,1120.7694 C81.17,1144.1094 100.75,1172.7694 125,1191.6094 C168.13,1225.1194 220.2656,1244.7555 266.4656,1257.4855 " fill="none" id="E-to-UC8" style="stroke:#181818;stroke-width:1.0;"/><polygon fill="#181818" points="272.25,1259.0794,264.6359,1252.8323,267.4296,1257.7512,262.5108,1260.5449,272.25,1259.0794" style="stroke:#181818;stroke-width:1.0;"/></g><!--link E to UC9--><g id="link_E_UC9"><path d="M49.41,1120.8894 C52.89,1173.9594 67.42,1267.6494 125,1317.6094 C161.23,1349.0494 207.5075,1359.1497 252.4975,1361.3997 " fill="none" id="E-to-UC9" style="stroke:#181818;stroke-width:1.0;"/><polygon fill="#181818" points="258.49,1361.6994,249.701,1357.2548,253.4962,1361.4496,249.3014,1365.2448,258.49,1361.6994" style="stroke:#181818;stroke-width:1.0;"/></g><!--link E to UC10--><g id="link_E_UC10"><path d="M74.81,1091.1194 C89.45,1096.1794 108.09,1102.2494 125,1106.6094 C168.04,1117.7194 210.4842,1126.2705 251.2542,1133.5805 " fill="none" id="E-to-UC10" style="stroke:#181818;stroke-width:1.0;"/><polygon fill="#181818" points="257.16,1134.6394,249.0072,1129.1138,252.2385,1133.757,247.5953,1136.9882,257.16,1134.6394" style="stroke:#181818;stroke-width:1.0;"/></g><!--link R to UC4--><g id="link_R_UC4"><path d="M56.62,885.5794 C66.37,848.9194 86.49,795.5094 125,766.6094 C163.73,737.5394 210.8091,727.9195 255.6291,725.4495 " fill="none" id="R-to-UC4" style="stroke:#181818;stroke-width:1.0;"/><polygon fill="#181818" points="261.62,725.1194,252.4135,721.6207,256.6276,725.3945,252.8537,729.6085,261.62,725.1194" style="stroke:#181818;stroke-width:1.0;"/></g><!--link R to UC6--><g id="link_R_UC6"><path d="M89.09,927.8494 C108.99,929.4294 128.5489,930.9934 155.8189,933.1634 " fill="none" id="R-to-UC6" style="stroke:#181818;stroke-width:1.0;"/><polygon fill="#181818" points="161.8,933.6394,153.1457,928.9381,156.8158,933.2428,152.5111,936.9129,161.8,933.6394" style="stroke:#181818;stroke-width:1.0;"/></g><!--link G to UC1--><g id="link_G_UC1"><path d="M88.31,572.7894 C99.72,565.6194 112.46,558.5694 125,553.6094 C162.48,538.7694 199.6184,529.8053 237.9384,523.1553 " fill="none" id="G-to-UC1" style="stroke:#181818;stroke-width:1.0;"/><polygon fill="#181818" points="243.85,522.1294,234.2986,519.7271,238.9236,522.9843,235.6665,527.6093,243.85,522.1294" style="stroke:#181818;stroke-width:1.0;"/></g><!--link G to UC3--><g id="link_G_UC3"><path d="M88.16,601.6094 C120.09,601.6094 160.95,601.6094 206.21,601.6094 " fill="none" id="G-to-UC3" style="stroke:#181818;stroke-width:1.0;"/><polygon fill="#181818" points="212.21,601.6094,203.21,597.6094,207.21,601.6094,203.21,605.6094,212.21,601.6094" style="stroke:#181818;stroke-width:1.0;"/></g><!--link C to UC11--><g id="link_C_UC11"><path d="M65.55,250.1594 C97.63,254.9594 163.5458,264.813 226.9458,274.283 " fill="none" id="C-to-UC11" style="stroke:#181818;stroke-width:1.0;"/><polygon fill="#181818" points="232.88,275.1694,224.5697,269.8837,227.9349,274.4307,223.3878,277.7959,232.88,275.1694" style="stroke:#181818;stroke-width:1.0;"/></g><!--link C to UC12--><g id="link_C_UC12"><path d="M65.58,277.9694 C78.99,298.9194 99.62,325.6094 125,340.6094 C160.59,361.6394 198.4772,371.6826 237.9372,377.1726 " fill="none" id="C-to-UC12" style="stroke:#181818;stroke-width:1.0;"/><polygon fill="#181818" points="243.88,377.9994,235.5171,372.7973,238.9277,377.3104,234.4147,380.721,243.88,377.9994" style="stroke:#181818;stroke-width:1.0;"/></g><!--link C to UC13--><g id="link_C_UC13"><path d="M65.68,219.1394 C79.28,199.0994 100.09,173.3294 125,158.6094 C155.26,140.7394 185.4486,130.7863 219.7386,123.8663 " fill="none" id="C-to-UC13" style="stroke:#181818;stroke-width:1.0;"/><polygon fill="#181818" points="225.62,122.6794,216.0066,120.5388,220.7188,123.6685,217.5891,128.3807,225.62,122.6794" style="stroke:#181818;stroke-width:1.0;"/></g><!--link C to UC14--><g id="link_C_UC14"><path d="M65.55,245.0094 C101.74,239.4694 182.5789,227.1158 250.7589,216.6958 " fill="none" id="C-to-UC14" style="stroke:#181818;stroke-width:1.0;"/><polygon fill="#181818" points="256.69,215.7894,247.189,213.195,251.7474,216.5448,248.3976,221.1032,256.69,215.7894" style="stroke:#181818;stroke-width:1.0;"/></g><!--SRC=[VLFDZjem4BxxAKPSjZsWtG3Yvx8IoaQe1wGAj7lQY-iCmSMn8zj1GctVftcEl5Z78GIQrPABHvFvlldcpqkl45uapopFSuIOEqWVNhrKqd4lZOOXR4_Ert_fvreAQnpQenJe81d6XY1M86CATnwy0IkplOTKMXG1pDn1we8JDHHS77Y6Mt-YVE4trvaY91VUM4ZoGfaJ0cLFMjS6NM6qupzKuzwqxXMwmAmvvGZ-LUkFbKJjWoTcR0N3tyy4sJHlmbYR7GOnzroPhCIrs9uB6S0l1lIL3WLt2A_n9B0CmZk4jKdbJgA5mfgqb7xGYvsriJEAtQ3OKplsjz5_Rd9_qqUI68JVIJvg2KT465FzfVB4vxmH1n04jrozwvUw4WfrayhM5Iyetr6wq1VCAQYlCdfgMScufQqhpsbSvPc_Zvgse2bXbY55UKJxQ7578HPIpBbEaTvF9DoMlanpgQKZzM5uTygFBa8fvwgkT5tPK2FH6-j1a7AZP5fNVQtZ5ZSct9jq9QVz3ND0kpEMXDB2lkkSPzn9xHfjLt5l9FVUIEOjzvou4sqn2uKGUQaHmaInBsRH0XRd8aAieeEnw4rftV-T-SurhTUzZdGj2JrP_ZGbJUvnWrxQww81B-d20jE7qLyMAkfj59ts9uXBBwEccTJ9bE85tNepxo-qTU90Ahv-05uE9mgN4zDMD4qAqC8ZYEP2pxr_WALpHiXc7HnZ2Go7ps7xEslMMVFEMdHMzCJ2SJVsfBEcpUMV0pfhp5XySKPNStGrnrTpmlu1]--></g></svg>