<?xml version="1.0" encoding="us-ascii" standalone="no"?><svg xmlns="http://www.w3.org/2000/svg" xmlns:xlink="http://www.w3.org/1999/xlink" contentStyleType="text/css" height="1557px" preserveAspectRatio="none" style="width:2169px;height:1557px;background:#FFFFFF;" version="1.1" viewBox="0 0 2169 1557" width="2169px" zoomAndPan="magnify"><defs/><g><text fill="#000000" font-family="sans-serif" font-size="14" font-weight="bold" lengthAdjust="spacing" textLength="292" x="927.75" y="24.5332">Vue de D&#233;veloppement - Magasin Central</text><!--cluster clientApp--><g id="cluster_clientApp"><rect fill="none" height="773" rx="2.5" ry="2.5" style="stroke:#181818;stroke-width:1.0;" width="933.5" x="18.0738" y="42.6094"/><text fill="#000000" font-family="sans-serif" font-size="14" font-style="italic" lengthAdjust="spacing" textLength="52" x="458.8238" y="59.1426">&#171;Layer&#187;</text><text fill="#000000" font-family="sans-serif" font-size="14" font-weight="bold" lengthAdjust="spacing" textLength="200" x="384.8238" y="76.752">Application client (Frontend)</text></g><!--cluster WebMVC--><g id="cluster_WebMVC"><path d="M28.5738,88.6094 L200.5738,88.6094 A3.75,3.75 0 0 1 203.0738,91.1094 L210.0738,112.2188 L941.0738,112.2188 A2.5,2.5 0 0 1 943.5738,114.7188 L943.5738,805.1094 A2.5,2.5 0 0 1 941.0738,807.6094 L28.5738,807.6094 A2.5,2.5 0 0 1 26.0738,805.1094 L26.0738,91.1094 A2.5,2.5 0 0 1 28.5738,88.6094 " fill="none" style="stroke:#000000;stroke-width:1.5;"/><line style="stroke:#000000;stroke-width:1.5;" x1="26.0738" x2="210.0738" y1="112.2188" y2="112.2188"/><text fill="#000000" font-family="sans-serif" font-size="14" font-weight="bold" lengthAdjust="spacing" textLength="171" x="30.0738" y="105.1426">Web MVC (Pr&#233;sentation)</text><text fill="#000000" font-family="sans-serif" font-size="14" font-style="italic" lengthAdjust="spacing" textLength="52" x="462.8238" y="128.752">&#171;Layer&#187;</text></g><!--cluster view--><g id="cluster_view"><path d="M36.5738,470.6094 L78.5738,470.6094 A3.75,3.75 0 0 1 81.0738,473.1094 L88.0738,494.2188 L493.5738,494.2188 A2.5,2.5 0 0 1 496.0738,496.7188 L496.0738,797.1094 A2.5,2.5 0 0 1 493.5738,799.6094 L36.5738,799.6094 A2.5,2.5 0 0 1 34.0738,797.1094 L34.0738,473.1094 A2.5,2.5 0 0 1 36.5738,470.6094 " fill="none" style="stroke:#000000;stroke-width:1.5;"/><line style="stroke:#000000;stroke-width:1.5;" x1="34.0738" x2="88.0738" y1="494.2188" y2="494.2188"/><text fill="#000000" font-family="sans-serif" font-size="14" font-weight="bold" lengthAdjust="spacing" textLength="41" x="38.0738" y="487.1426">Views</text><text fill="#000000" font-family="sans-serif" font-size="14" font-style="italic" lengthAdjust="spacing" textLength="86" x="226.0738" y="510.752">&#171;component&#187;</text></g><!--cluster controller--><g id="cluster_controller"><path d="M322.5738,134.6094 L402.5738,134.6094 A3.75,3.75 0 0 1 405.0738,137.1094 L412.0738,158.2188 L933.0738,158.2188 A2.5,2.5 0 0 1 935.5738,160.7188 L935.5738,460.1094 A2.5,2.5 0 0 1 933.0738,462.6094 L322.5738,462.6094 A2.5,2.5 0 0 1 320.0738,460.1094 L320.0738,137.1094 A2.5,2.5 0 0 1 322.5738,134.6094 " fill="none" style="stroke:#000000;stroke-width:1.5;"/><line style="stroke:#000000;stroke-width:1.5;" x1="320.0738" x2="412.0738" y1="158.2188" y2="158.2188"/><text fill="#000000" font-family="sans-serif" font-size="14" font-weight="bold" lengthAdjust="spacing" textLength="79" x="324.0738" y="151.1426">Controllers</text><text fill="#000000" font-family="sans-serif" font-size="14" font-style="italic" lengthAdjust="spacing" textLength="86" x="588.8238" y="174.752">&#171;component&#187;</text></g><!--cluster Backend--><g id="cluster_Backend"><path d="M738.5738,823.6094 L800.5738,823.6094 A3.75,3.75 0 0 1 803.0738,826.1094 L810.0738,847.2188 L2158.0738,847.2188 A2.5,2.5 0 0 1 2160.5738,849.7188 L2160.5738,1548.1094 A2.5,2.5 0 0 1 2158.0738,1550.6094 L738.5738,1550.6094 A2.5,2.5 0 0 1 736.0738,1548.1094 L736.0738,826.1094 A2.5,2.5 0 0 1 738.5738,823.6094 " fill="none" style="stroke:#000000;stroke-width:1.5;"/><line style="stroke:#000000;stroke-width:1.5;" x1="736.0738" x2="810.0738" y1="847.2188" y2="847.2188"/><text fill="#000000" font-family="sans-serif" font-size="14" font-weight="bold" lengthAdjust="spacing" textLength="61" x="740.0738" y="840.1426">Backend</text></g><!--cluster sagaService--><g id="cluster_sagaService"><path d="M746.5738,1422.6094 L871.5738,1422.6094 A3.75,3.75 0 0 1 874.0738,1425.1094 L881.0738,1446.2188 L1560.0738,1446.2188 A2.5,2.5 0 0 1 1562.5738,1448.7188 L1562.5738,1540.1094 A2.5,2.5 0 0 1 1560.0738,1542.6094 L746.5738,1542.6094 A2.5,2.5 0 0 1 744.0738,1540.1094 L744.0738,1425.1094 A2.5,2.5 0 0 1 746.5738,1422.6094 " fill="none" style="stroke:#000000;stroke-width:1.5;"/><line style="stroke:#000000;stroke-width:1.5;" x1="744.0738" x2="881.0738" y1="1446.2188" y2="1446.2188"/><text fill="#000000" font-family="sans-serif" font-size="14" font-weight="bold" lengthAdjust="spacing" textLength="124" x="748.0738" y="1439.1426">SagaOrchestrator</text><text fill="#000000" font-family="sans-serif" font-size="14" font-style="italic" lengthAdjust="spacing" textLength="95" x="1109.8238" y="1462.752">&#171;Microservice&#187;</text></g><!--cluster venteMcService--><g id="cluster_venteMcService"><path d="M1177.0738,1252.6094 L1294.0738,1252.6094 A3.75,3.75 0 0 1 1296.5738,1255.1094 L1303.5738,1276.2188 L1797.0738,1276.2188 A2.5,2.5 0 0 1 1799.5738,1278.7188 L1799.5738,1412.1094 A2.5,2.5 0 0 1 1797.0738,1414.6094 L1177.0738,1414.6094 A2.5,2.5 0 0 1 1174.5738,1412.1094 L1174.5738,1255.1094 A2.5,2.5 0 0 1 1177.0738,1252.6094 " fill="none" style="stroke:#000000;stroke-width:1.5;"/><line style="stroke:#000000;stroke-width:1.5;" x1="1174.5738" x2="1303.5738" y1="1276.2188" y2="1276.2188"/><text fill="#000000" font-family="sans-serif" font-size="14" font-weight="bold" lengthAdjust="spacing" textLength="116" x="1178.5738" y="1269.1426">VenteMcService</text><text fill="#000000" font-family="sans-serif" font-size="14" font-style="italic" lengthAdjust="spacing" textLength="95" x="1443.5738" y="1292.752">&#171;Microservice&#187;</text></g><!--cluster inventaireMcService--><g id="cluster_inventaireMcService"><path d="M1168.0738,1021.6094 L1316.0738,1021.6094 A3.75,3.75 0 0 1 1318.5738,1024.1094 L1325.5738,1045.2188 L2016.0738,1045.2188 A2.5,2.5 0 0 1 2018.5738,1047.7188 L2018.5738,1242.1094 A2.5,2.5 0 0 1 2016.0738,1244.6094 L1168.0738,1244.6094 A2.5,2.5 0 0 1 1165.5738,1242.1094 L1165.5738,1024.1094 A2.5,2.5 0 0 1 1168.0738,1021.6094 " fill="none" style="stroke:#000000;stroke-width:1.5;"/><line style="stroke:#000000;stroke-width:1.5;" x1="1165.5738" x2="1325.5738" y1="1045.2188" y2="1045.2188"/><text fill="#000000" font-family="sans-serif" font-size="14" font-weight="bold" lengthAdjust="spacing" textLength="147" x="1169.5738" y="1038.1426">InventaireMcService</text><text fill="#000000" font-family="sans-serif" font-size="14" font-style="italic" lengthAdjust="spacing" textLength="95" x="1548.5738" y="1061.752">&#171;Microservice&#187;</text></g><!--cluster catalogueMcService--><g id="cluster_catalogueMcService"><path d="M1163.0738,851.6094 L1310.0738,851.6094 A3.75,3.75 0 0 1 1312.5738,854.1094 L1319.5738,875.2188 L1811.0738,875.2188 A2.5,2.5 0 0 1 1813.5738,877.7188 L1813.5738,1011.1094 A2.5,2.5 0 0 1 1811.0738,1013.6094 L1163.0738,1013.6094 A2.5,2.5 0 0 1 1160.5738,1011.1094 L1160.5738,854.1094 A2.5,2.5 0 0 1 1163.0738,851.6094 " fill="none" style="stroke:#000000;stroke-width:1.5;"/><line style="stroke:#000000;stroke-width:1.5;" x1="1160.5738" x2="1319.5738" y1="875.2188" y2="875.2188"/><text fill="#000000" font-family="sans-serif" font-size="14" font-weight="bold" lengthAdjust="spacing" textLength="146" x="1164.5738" y="868.1426">CatalogueMcService</text><text fill="#000000" font-family="sans-serif" font-size="14" font-style="italic" lengthAdjust="spacing" textLength="95" x="1443.5738" y="891.752">&#171;Microservice&#187;</text></g><!--entity CatalogueView--><g id="elem_CatalogueView"><rect fill="#F1F1F1" height="65.2188" rx="2.5" ry="2.5" style="stroke:#181818;stroke-width:0.5;" width="134" x="54.0738" y="726.1094"/><rect fill="#F1F1F1" height="10" style="stroke:#181818;stroke-width:0.5;" width="15" x="168.0738" y="731.1094"/><rect fill="#F1F1F1" height="2" style="stroke:#181818;stroke-width:0.5;" width="4" x="166.0738" y="733.1094"/><rect fill="#F1F1F1" height="2" style="stroke:#181818;stroke-width:0.5;" width="4" x="166.0738" y="737.1094"/><text fill="#000000" font-family="sans-serif" font-size="14" font-style="italic" lengthAdjust="spacing" textLength="89" x="71.5738" y="760.6426">&#171;Component&#187;</text><text fill="#000000" font-family="sans-serif" font-size="14" lengthAdjust="spacing" textLength="94" x="69.0738" y="778.252">CatalogueView</text></g><!--entity AdministrationView--><g id="elem_AdministrationView"><rect fill="#F1F1F1" height="65.2188" rx="2.5" ry="2.5" style="stroke:#181818;stroke-width:0.5;" width="158" x="42.0738" y="600.1094"/><rect fill="#F1F1F1" height="10" style="stroke:#181818;stroke-width:0.5;" width="15" x="180.0738" y="605.1094"/><rect fill="#F1F1F1" height="2" style="stroke:#181818;stroke-width:0.5;" width="4" x="178.0738" y="607.1094"/><rect fill="#F1F1F1" height="2" style="stroke:#181818;stroke-width:0.5;" width="4" x="178.0738" y="611.1094"/><text fill="#000000" font-family="sans-serif" font-size="14" font-style="italic" lengthAdjust="spacing" textLength="89" x="71.5738" y="634.6426">&#171;Component&#187;</text><text fill="#000000" font-family="sans-serif" font-size="14" lengthAdjust="spacing" textLength="118" x="57.0738" y="652.252">AdministrationView</text></g><!--entity InventaireView--><g id="elem_InventaireView"><rect fill="#F1F1F1" height="65.2188" rx="2.5" ry="2.5" style="stroke:#181818;stroke-width:0.5;" width="131" x="55.5738" y="517.1094"/><rect fill="#F1F1F1" height="10" style="stroke:#181818;stroke-width:0.5;" width="15" x="166.5738" y="522.1094"/><rect fill="#F1F1F1" height="2" style="stroke:#181818;stroke-width:0.5;" width="4" x="164.5738" y="524.1094"/><rect fill="#F1F1F1" height="2" style="stroke:#181818;stroke-width:0.5;" width="4" x="164.5738" y="528.1094"/><text fill="#000000" font-family="sans-serif" font-size="14" font-style="italic" lengthAdjust="spacing" textLength="89" x="71.5738" y="551.6426">&#171;Component&#187;</text><text fill="#000000" font-family="sans-serif" font-size="14" lengthAdjust="spacing" textLength="91" x="70.5738" y="569.252">InventaireView</text></g><!--entity VenteView--><g id="elem_VenteView"><rect fill="#F1F1F1" height="65.2188" rx="2.5" ry="2.5" style="stroke:#181818;stroke-width:0.5;" width="129" x="359.0738" y="726.1094"/><rect fill="#F1F1F1" height="10" style="stroke:#181818;stroke-width:0.5;" width="15" x="468.0738" y="731.1094"/><rect fill="#F1F1F1" height="2" style="stroke:#181818;stroke-width:0.5;" width="4" x="466.0738" y="733.1094"/><rect fill="#F1F1F1" height="2" style="stroke:#181818;stroke-width:0.5;" width="4" x="466.0738" y="737.1094"/><text fill="#000000" font-family="sans-serif" font-size="14" font-style="italic" lengthAdjust="spacing" textLength="89" x="374.0738" y="760.6426">&#171;Component&#187;</text><text fill="#000000" font-family="sans-serif" font-size="14" lengthAdjust="spacing" textLength="66" x="385.5738" y="778.252">VenteView</text></g><!--entity ECommerce--><g id="elem_ECommerce"><rect fill="#F1F1F1" height="65.2188" rx="2.5" ry="2.5" style="stroke:#181818;stroke-width:0.5;" width="129" x="359.0738" y="643.1094"/><rect fill="#F1F1F1" height="10" style="stroke:#181818;stroke-width:0.5;" width="15" x="468.0738" y="648.1094"/><rect fill="#F1F1F1" height="2" style="stroke:#181818;stroke-width:0.5;" width="4" x="466.0738" y="650.1094"/><rect fill="#F1F1F1" height="2" style="stroke:#181818;stroke-width:0.5;" width="4" x="466.0738" y="654.1094"/><text fill="#000000" font-family="sans-serif" font-size="14" font-style="italic" lengthAdjust="spacing" textLength="89" x="374.0738" y="677.6426">&#171;Component&#187;</text><text fill="#000000" font-family="sans-serif" font-size="14" lengthAdjust="spacing" textLength="77" x="380.0738" y="695.252">ECommerce</text></g><!--entity CatalogueControllerClient--><g id="elem_CatalogueControllerClient"><rect fill="#F1F1F1" height="65.2188" rx="2.5" ry="2.5" style="stroke:#181818;stroke-width:0.5;" width="167" x="340.0738" y="264.1094"/><rect fill="#F1F1F1" height="10" style="stroke:#181818;stroke-width:0.5;" width="15" x="487.0738" y="269.1094"/><rect fill="#F1F1F1" height="2" style="stroke:#181818;stroke-width:0.5;" width="4" x="485.0738" y="271.1094"/><rect fill="#F1F1F1" height="2" style="stroke:#181818;stroke-width:0.5;" width="4" x="485.0738" y="275.1094"/><text fill="#000000" font-family="sans-serif" font-size="14" font-style="italic" lengthAdjust="spacing" textLength="89" x="374.0738" y="298.6426">&#171;Component&#187;</text><text fill="#000000" font-family="sans-serif" font-size="14" lengthAdjust="spacing" textLength="127" x="355.0738" y="316.252">CatalogueController</text></g><!--entity AdministrationController--><g id="elem_AdministrationController"><rect fill="#F1F1F1" height="65.2188" rx="2.5" ry="2.5" style="stroke:#181818;stroke-width:0.5;" width="191" x="328.0738" y="181.1094"/><rect fill="#F1F1F1" height="10" style="stroke:#181818;stroke-width:0.5;" width="15" x="499.0738" y="186.1094"/><rect fill="#F1F1F1" height="2" style="stroke:#181818;stroke-width:0.5;" width="4" x="497.0738" y="188.1094"/><rect fill="#F1F1F1" height="2" style="stroke:#181818;stroke-width:0.5;" width="4" x="497.0738" y="192.1094"/><text fill="#000000" font-family="sans-serif" font-size="14" font-style="italic" lengthAdjust="spacing" textLength="89" x="374.0738" y="215.6426">&#171;Component&#187;</text><text fill="#000000" font-family="sans-serif" font-size="14" lengthAdjust="spacing" textLength="151" x="343.0738" y="233.252">AdministrationController</text></g><!--entity InventaireController--><g id="elem_InventaireController"><rect fill="#F1F1F1" height="65.2188" rx="2.5" ry="2.5" style="stroke:#181818;stroke-width:0.5;" width="164" x="756.0738" y="264.1094"/><rect fill="#F1F1F1" height="10" style="stroke:#181818;stroke-width:0.5;" width="15" x="900.0738" y="269.1094"/><rect fill="#F1F1F1" height="2" style="stroke:#181818;stroke-width:0.5;" width="4" x="898.0738" y="271.1094"/><rect fill="#F1F1F1" height="2" style="stroke:#181818;stroke-width:0.5;" width="4" x="898.0738" y="275.1094"/><text fill="#000000" font-family="sans-serif" font-size="14" font-style="italic" lengthAdjust="spacing" textLength="89" x="788.5738" y="298.6426">&#171;Component&#187;</text><text fill="#000000" font-family="sans-serif" font-size="14" lengthAdjust="spacing" textLength="124" x="771.0738" y="316.252">InventaireController</text></g><!--entity ECommerceController--><g id="elem_ECommerceController"><rect fill="#F1F1F1" height="65.2188" rx="2.5" ry="2.5" style="stroke:#181818;stroke-width:0.5;" width="179" x="748.5738" y="181.1094"/><rect fill="#F1F1F1" height="10" style="stroke:#181818;stroke-width:0.5;" width="15" x="907.5738" y="186.1094"/><rect fill="#F1F1F1" height="2" style="stroke:#181818;stroke-width:0.5;" width="4" x="905.5738" y="188.1094"/><rect fill="#F1F1F1" height="2" style="stroke:#181818;stroke-width:0.5;" width="4" x="905.5738" y="192.1094"/><text fill="#000000" font-family="sans-serif" font-size="14" font-style="italic" lengthAdjust="spacing" textLength="89" x="788.5738" y="215.6426">&#171;Component&#187;</text><text fill="#000000" font-family="sans-serif" font-size="14" lengthAdjust="spacing" textLength="139" x="763.5738" y="233.252">ECommerceController</text></g><!--entity VenteControllerClient--><g id="elem_VenteControllerClient"><rect fill="#F1F1F1" height="65.2188" rx="2.5" ry="2.5" style="stroke:#181818;stroke-width:0.5;" width="139" x="354.0738" y="347.1094"/><rect fill="#F1F1F1" height="10" style="stroke:#181818;stroke-width:0.5;" width="15" x="473.0738" y="352.1094"/><rect fill="#F1F1F1" height="2" style="stroke:#181818;stroke-width:0.5;" width="4" x="471.0738" y="354.1094"/><rect fill="#F1F1F1" height="2" style="stroke:#181818;stroke-width:0.5;" width="4" x="471.0738" y="358.1094"/><text fill="#000000" font-family="sans-serif" font-size="14" font-style="italic" lengthAdjust="spacing" textLength="89" x="374.0738" y="381.6426">&#171;Component&#187;</text><text fill="#000000" font-family="sans-serif" font-size="14" lengthAdjust="spacing" textLength="99" x="369.0738" y="399.252">VenteController</text></g><!--entity sagaDb--><g id="elem_sagaDb"><path d="M1671.5738,1479.6094 C1671.5738,1469.6094 1720.0738,1469.6094 1720.0738,1469.6094 C1720.0738,1469.6094 1768.5738,1469.6094 1768.5738,1479.6094 L1768.5738,1523.8281 C1768.5738,1533.8281 1720.0738,1533.8281 1720.0738,1533.8281 C1720.0738,1533.8281 1671.5738,1533.8281 1671.5738,1523.8281 L1671.5738,1479.6094 " fill="#F1F1F1" style="stroke:#181818;stroke-width:0.5;"/><path d="M1671.5738,1479.6094 C1671.5738,1489.6094 1720.0738,1489.6094 1720.0738,1489.6094 C1720.0738,1489.6094 1768.5738,1489.6094 1768.5738,1479.6094 " fill="none" style="stroke:#181818;stroke-width:0.5;"/><text fill="#000000" font-family="sans-serif" font-size="14" font-style="italic" lengthAdjust="spacing" textLength="77" x="1681.5738" y="1508.1426">&#171;Database&#187;</text><text fill="#000000" font-family="sans-serif" font-size="14" lengthAdjust="spacing" textLength="56" x="1692.0738" y="1525.752">Saga DB</text></g><!--entity venteDb--><g id="elem_venteDb"><path d="M1878.0738,1309.6094 C1878.0738,1299.6094 1926.5738,1299.6094 1926.5738,1299.6094 C1926.5738,1299.6094 1975.0738,1299.6094 1975.0738,1309.6094 L1975.0738,1353.8281 C1975.0738,1363.8281 1926.5738,1363.8281 1926.5738,1363.8281 C1926.5738,1363.8281 1878.0738,1363.8281 1878.0738,1353.8281 L1878.0738,1309.6094 " fill="#F1F1F1" style="stroke:#181818;stroke-width:0.5;"/><path d="M1878.0738,1309.6094 C1878.0738,1319.6094 1926.5738,1319.6094 1926.5738,1319.6094 C1926.5738,1319.6094 1975.0738,1319.6094 1975.0738,1309.6094 " fill="none" style="stroke:#181818;stroke-width:0.5;"/><text fill="#000000" font-family="sans-serif" font-size="14" font-style="italic" lengthAdjust="spacing" textLength="77" x="1888.0738" y="1338.1426">&#171;Database&#187;</text><text fill="#000000" font-family="sans-serif" font-size="14" lengthAdjust="spacing" textLength="60" x="1896.5738" y="1355.752">Vente DB</text></g><!--entity inventaireDb--><g id="elem_inventaireDb"><path d="M2047.5738,1098.6094 C2047.5738,1088.6094 2100.0738,1088.6094 2100.0738,1088.6094 C2100.0738,1088.6094 2152.5738,1088.6094 2152.5738,1098.6094 L2152.5738,1142.8281 C2152.5738,1152.8281 2100.0738,1152.8281 2100.0738,1152.8281 C2100.0738,1152.8281 2047.5738,1152.8281 2047.5738,1142.8281 L2047.5738,1098.6094 " fill="#F1F1F1" style="stroke:#181818;stroke-width:0.5;"/><path d="M2047.5738,1098.6094 C2047.5738,1108.6094 2100.0738,1108.6094 2100.0738,1108.6094 C2100.0738,1108.6094 2152.5738,1108.6094 2152.5738,1098.6094 " fill="none" style="stroke:#181818;stroke-width:0.5;"/><text fill="#000000" font-family="sans-serif" font-size="14" font-style="italic" lengthAdjust="spacing" textLength="77" x="2061.5738" y="1127.1426">&#171;Database&#187;</text><text fill="#000000" font-family="sans-serif" font-size="14" lengthAdjust="spacing" textLength="85" x="2057.5738" y="1144.752">Inventaire DB</text></g><!--entity catalogueDb--><g id="elem_catalogueDb"><path d="M1872.5738,908.6094 C1872.5738,898.6094 1926.5738,898.6094 1926.5738,898.6094 C1926.5738,898.6094 1980.5738,898.6094 1980.5738,908.6094 L1980.5738,952.8281 C1980.5738,962.8281 1926.5738,962.8281 1926.5738,962.8281 C1926.5738,962.8281 1872.5738,962.8281 1872.5738,952.8281 L1872.5738,908.6094 " fill="#F1F1F1" style="stroke:#181818;stroke-width:0.5;"/><path d="M1872.5738,908.6094 C1872.5738,918.6094 1926.5738,918.6094 1926.5738,918.6094 C1926.5738,918.6094 1980.5738,918.6094 1980.5738,908.6094 " fill="none" style="stroke:#181818;stroke-width:0.5;"/><text fill="#000000" font-family="sans-serif" font-size="14" font-style="italic" lengthAdjust="spacing" textLength="77" x="1888.0738" y="937.1426">&#171;Database&#187;</text><text fill="#000000" font-family="sans-serif" font-size="14" lengthAdjust="spacing" textLength="88" x="1882.5738" y="954.752">Catalogue DB</text></g><!--entity VenteSagaController--><g id="elem_VenteSagaController"><rect fill="#F1F1F1" height="65.2188" rx="2.5" ry="2.5" style="stroke:#181818;stroke-width:0.5;" width="172" x="752.0738" y="1469.1094"/><rect fill="#F1F1F1" height="10" style="stroke:#181818;stroke-width:0.5;" width="15" x="904.0738" y="1474.1094"/><rect fill="#F1F1F1" height="2" style="stroke:#181818;stroke-width:0.5;" width="4" x="902.0738" y="1476.1094"/><rect fill="#F1F1F1" height="2" style="stroke:#181818;stroke-width:0.5;" width="4" x="902.0738" y="1480.1094"/><text fill="#000000" font-family="sans-serif" font-size="14" font-style="italic" lengthAdjust="spacing" textLength="38" x="814.0738" y="1503.6426">&#171;API&#187;</text><text fill="#000000" font-family="sans-serif" font-size="14" lengthAdjust="spacing" textLength="132" x="767.0738" y="1521.252">VenteSagaController</text></g><!--entity Orchestrator--><g id="elem_Orchestrator"><rect fill="#F1F1F1" height="65.2188" rx="2.5" ry="2.5" style="stroke:#181818;stroke-width:0.5;" width="120" x="1192.0738" y="1469.1094"/><rect fill="#F1F1F1" height="10" style="stroke:#181818;stroke-width:0.5;" width="15" x="1292.0738" y="1474.1094"/><rect fill="#F1F1F1" height="2" style="stroke:#181818;stroke-width:0.5;" width="4" x="1290.0738" y="1476.1094"/><rect fill="#F1F1F1" height="2" style="stroke:#181818;stroke-width:0.5;" width="4" x="1290.0738" y="1480.1094"/><text fill="#000000" font-family="sans-serif" font-size="14" font-style="italic" lengthAdjust="spacing" textLength="56" x="1219.0738" y="1503.6426">&#171;M&#233;tier&#187;</text><text fill="#000000" font-family="sans-serif" font-size="14" lengthAdjust="spacing" textLength="80" x="1207.0738" y="1521.252">Orchestrator</text></g><!--entity SagaDbContext--><g id="elem_SagaDbContext"><rect fill="#F1F1F1" height="65.2188" rx="2.5" ry="2.5" style="stroke:#181818;stroke-width:0.5;" width="139" x="1415.5738" y="1469.1094"/><rect fill="#F1F1F1" height="10" style="stroke:#181818;stroke-width:0.5;" width="15" x="1534.5738" y="1474.1094"/><rect fill="#F1F1F1" height="2" style="stroke:#181818;stroke-width:0.5;" width="4" x="1532.5738" y="1476.1094"/><rect fill="#F1F1F1" height="2" style="stroke:#181818;stroke-width:0.5;" width="4" x="1532.5738" y="1480.1094"/><text fill="#000000" font-family="sans-serif" font-size="14" font-style="italic" lengthAdjust="spacing" textLength="90" x="1435.0738" y="1503.6426">&#171;Persistence&#187;</text><text fill="#000000" font-family="sans-serif" font-size="14" lengthAdjust="spacing" textLength="99" x="1430.5738" y="1521.252">SagaDbContext</text></g><!--entity VenteController--><g id="elem_VenteController"><rect fill="#F1F1F1" height="65.2188" rx="2.5" ry="2.5" style="stroke:#181818;stroke-width:0.5;" width="139" x="1182.5738" y="1299.1094"/><rect fill="#F1F1F1" height="10" style="stroke:#181818;stroke-width:0.5;" width="15" x="1301.5738" y="1304.1094"/><rect fill="#F1F1F1" height="2" style="stroke:#181818;stroke-width:0.5;" width="4" x="1299.5738" y="1306.1094"/><rect fill="#F1F1F1" height="2" style="stroke:#181818;stroke-width:0.5;" width="4" x="1299.5738" y="1310.1094"/><text fill="#000000" font-family="sans-serif" font-size="14" font-style="italic" lengthAdjust="spacing" textLength="38" x="1228.0738" y="1333.6426">&#171;API&#187;</text><text fill="#000000" font-family="sans-serif" font-size="14" lengthAdjust="spacing" textLength="99" x="1197.5738" y="1351.252">VenteController</text></g><!--entity VenteService--><g id="elem_VenteService"><rect fill="#F1F1F1" height="65.2188" rx="2.5" ry="2.5" style="stroke:#181818;stroke-width:0.5;" width="124" x="1423.0738" y="1299.1094"/><rect fill="#F1F1F1" height="10" style="stroke:#181818;stroke-width:0.5;" width="15" x="1527.0738" y="1304.1094"/><rect fill="#F1F1F1" height="2" style="stroke:#181818;stroke-width:0.5;" width="4" x="1525.0738" y="1306.1094"/><rect fill="#F1F1F1" height="2" style="stroke:#181818;stroke-width:0.5;" width="4" x="1525.0738" y="1310.1094"/><text fill="#000000" font-family="sans-serif" font-size="14" font-style="italic" lengthAdjust="spacing" textLength="56" x="1452.0738" y="1333.6426">&#171;M&#233;tier&#187;</text><text fill="#000000" font-family="sans-serif" font-size="14" lengthAdjust="spacing" textLength="84" x="1438.0738" y="1351.252">VenteService</text></g><!--entity VenteDbContext--><g id="elem_VenteDbContext"><rect fill="#F1F1F1" height="65.2188" rx="2.5" ry="2.5" style="stroke:#181818;stroke-width:0.5;" width="143" x="1648.5738" y="1299.1094"/><rect fill="#F1F1F1" height="10" style="stroke:#181818;stroke-width:0.5;" width="15" x="1771.5738" y="1304.1094"/><rect fill="#F1F1F1" height="2" style="stroke:#181818;stroke-width:0.5;" width="4" x="1769.5738" y="1306.1094"/><rect fill="#F1F1F1" height="2" style="stroke:#181818;stroke-width:0.5;" width="4" x="1769.5738" y="1310.1094"/><text fill="#000000" font-family="sans-serif" font-size="14" font-style="italic" lengthAdjust="spacing" textLength="90" x="1670.0738" y="1333.6426">&#171;Persistence&#187;</text><text fill="#000000" font-family="sans-serif" font-size="14" lengthAdjust="spacing" textLength="103" x="1663.5738" y="1351.252">VenteDbContext</text></g><!--entity ReapproController--><g id="elem_ReapproController"><rect fill="#F1F1F1" height="65.2188" rx="2.5" ry="2.5" style="stroke:#181818;stroke-width:0.5;" width="157" x="1173.5738" y="1073.1094"/><rect fill="#F1F1F1" height="10" style="stroke:#181818;stroke-width:0.5;" width="15" x="1310.5738" y="1078.1094"/><rect fill="#F1F1F1" height="2" style="stroke:#181818;stroke-width:0.5;" width="4" x="1308.5738" y="1080.1094"/><rect fill="#F1F1F1" height="2" style="stroke:#181818;stroke-width:0.5;" width="4" x="1308.5738" y="1084.1094"/><text fill="#000000" font-family="sans-serif" font-size="14" font-style="italic" lengthAdjust="spacing" textLength="38" x="1228.0738" y="1107.6426">&#171;API&#187;</text><text fill="#000000" font-family="sans-serif" font-size="14" lengthAdjust="spacing" textLength="117" x="1188.5738" y="1125.252">ReapproController</text></g><!--entity StockController--><g id="elem_StockController"><rect fill="#F1F1F1" height="65.2188" rx="2.5" ry="2.5" style="stroke:#181818;stroke-width:0.5;" width="137" x="1416.5738" y="1171.1094"/><rect fill="#F1F1F1" height="10" style="stroke:#181818;stroke-width:0.5;" width="15" x="1533.5738" y="1176.1094"/><rect fill="#F1F1F1" height="2" style="stroke:#181818;stroke-width:0.5;" width="4" x="1531.5738" y="1178.1094"/><rect fill="#F1F1F1" height="2" style="stroke:#181818;stroke-width:0.5;" width="4" x="1531.5738" y="1182.1094"/><text fill="#000000" font-family="sans-serif" font-size="14" font-style="italic" lengthAdjust="spacing" textLength="38" x="1461.0738" y="1205.6426">&#171;API&#187;</text><text fill="#000000" font-family="sans-serif" font-size="14" lengthAdjust="spacing" textLength="97" x="1431.5738" y="1223.252">StockController</text></g><!--entity ReapprovisionnementService--><g id="elem_ReapprovisionnementService"><rect fill="#F1F1F1" height="65.2188" rx="2.5" ry="2.5" style="stroke:#181818;stroke-width:0.5;" width="225" x="1372.5738" y="1073.1094"/><rect fill="#F1F1F1" height="10" style="stroke:#181818;stroke-width:0.5;" width="15" x="1577.5738" y="1078.1094"/><rect fill="#F1F1F1" height="2" style="stroke:#181818;stroke-width:0.5;" width="4" x="1575.5738" y="1080.1094"/><rect fill="#F1F1F1" height="2" style="stroke:#181818;stroke-width:0.5;" width="4" x="1575.5738" y="1084.1094"/><text fill="#000000" font-family="sans-serif" font-size="14" font-style="italic" lengthAdjust="spacing" textLength="56" x="1452.0738" y="1107.6426">&#171;M&#233;tier&#187;</text><text fill="#000000" font-family="sans-serif" font-size="14" lengthAdjust="spacing" textLength="185" x="1387.5738" y="1125.252">ReapprovisionnementService</text></g><!--entity StockService--><g id="elem_StockService"><rect fill="#F1F1F1" height="65.2188" rx="2.5" ry="2.5" style="stroke:#181818;stroke-width:0.5;" width="122" x="1659.0738" y="1171.1094"/><rect fill="#F1F1F1" height="10" style="stroke:#181818;stroke-width:0.5;" width="15" x="1761.0738" y="1176.1094"/><rect fill="#F1F1F1" height="2" style="stroke:#181818;stroke-width:0.5;" width="4" x="1759.0738" y="1178.1094"/><rect fill="#F1F1F1" height="2" style="stroke:#181818;stroke-width:0.5;" width="4" x="1759.0738" y="1182.1094"/><text fill="#000000" font-family="sans-serif" font-size="14" font-style="italic" lengthAdjust="spacing" textLength="56" x="1687.0738" y="1205.6426">&#171;M&#233;tier&#187;</text><text fill="#000000" font-family="sans-serif" font-size="14" lengthAdjust="spacing" textLength="82" x="1674.0738" y="1223.252">StockService</text></g><!--entity InventaireService--><g id="elem_InventaireService"><rect fill="#F1F1F1" height="65.2188" rx="2.5" ry="2.5" style="stroke:#181818;stroke-width:0.5;" width="149" x="1645.5738" y="1088.1094"/><rect fill="#F1F1F1" height="10" style="stroke:#181818;stroke-width:0.5;" width="15" x="1774.5738" y="1093.1094"/><rect fill="#F1F1F1" height="2" style="stroke:#181818;stroke-width:0.5;" width="4" x="1772.5738" y="1095.1094"/><rect fill="#F1F1F1" height="2" style="stroke:#181818;stroke-width:0.5;" width="4" x="1772.5738" y="1099.1094"/><text fill="#000000" font-family="sans-serif" font-size="14" font-style="italic" lengthAdjust="spacing" textLength="56" x="1687.0738" y="1122.6426">&#171;M&#233;tier&#187;</text><text fill="#000000" font-family="sans-serif" font-size="14" lengthAdjust="spacing" textLength="109" x="1660.5738" y="1140.252">InventaireService</text></g><!--entity InventaireDbContext--><g id="elem_InventaireDbContext"><rect fill="#F1F1F1" height="65.2188" rx="2.5" ry="2.5" style="stroke:#181818;stroke-width:0.5;" width="168" x="1842.5738" y="1088.1094"/><rect fill="#F1F1F1" height="10" style="stroke:#181818;stroke-width:0.5;" width="15" x="1990.5738" y="1093.1094"/><rect fill="#F1F1F1" height="2" style="stroke:#181818;stroke-width:0.5;" width="4" x="1988.5738" y="1095.1094"/><rect fill="#F1F1F1" height="2" style="stroke:#181818;stroke-width:0.5;" width="4" x="1988.5738" y="1099.1094"/><text fill="#000000" font-family="sans-serif" font-size="14" font-style="italic" lengthAdjust="spacing" textLength="90" x="1876.5738" y="1122.6426">&#171;Persistence&#187;</text><text fill="#000000" font-family="sans-serif" font-size="14" lengthAdjust="spacing" textLength="128" x="1857.5738" y="1140.252">InventaireDbContext</text></g><!--entity CatalogueController--><g id="elem_CatalogueController"><rect fill="#F1F1F1" height="65.2188" rx="2.5" ry="2.5" style="stroke:#181818;stroke-width:0.5;" width="167" x="1168.5738" y="898.1094"/><rect fill="#F1F1F1" height="10" style="stroke:#181818;stroke-width:0.5;" width="15" x="1315.5738" y="903.1094"/><rect fill="#F1F1F1" height="2" style="stroke:#181818;stroke-width:0.5;" width="4" x="1313.5738" y="905.1094"/><rect fill="#F1F1F1" height="2" style="stroke:#181818;stroke-width:0.5;" width="4" x="1313.5738" y="909.1094"/><text fill="#000000" font-family="sans-serif" font-size="14" font-style="italic" lengthAdjust="spacing" textLength="38" x="1228.0738" y="932.6426">&#171;API&#187;</text><text fill="#000000" font-family="sans-serif" font-size="14" lengthAdjust="spacing" textLength="127" x="1183.5738" y="950.252">CatalogueController</text></g><!--entity CatalogueService--><g id="elem_CatalogueService"><rect fill="#F1F1F1" height="65.2188" rx="2.5" ry="2.5" style="stroke:#181818;stroke-width:0.5;" width="152" x="1409.0738" y="898.1094"/><rect fill="#F1F1F1" height="10" style="stroke:#181818;stroke-width:0.5;" width="15" x="1541.0738" y="903.1094"/><rect fill="#F1F1F1" height="2" style="stroke:#181818;stroke-width:0.5;" width="4" x="1539.0738" y="905.1094"/><rect fill="#F1F1F1" height="2" style="stroke:#181818;stroke-width:0.5;" width="4" x="1539.0738" y="909.1094"/><text fill="#000000" font-family="sans-serif" font-size="14" font-style="italic" lengthAdjust="spacing" textLength="56" x="1452.0738" y="932.6426">&#171;M&#233;tier&#187;</text><text fill="#000000" font-family="sans-serif" font-size="14" lengthAdjust="spacing" textLength="112" x="1424.0738" y="950.252">CatalogueService</text></g><!--entity CatalogueDbContext--><g id="elem_CatalogueDbContext"><rect fill="#F1F1F1" height="65.2188" rx="2.5" ry="2.5" style="stroke:#181818;stroke-width:0.5;" width="171" x="1634.5738" y="898.1094"/><rect fill="#F1F1F1" height="10" style="stroke:#181818;stroke-width:0.5;" width="15" x="1785.5738" y="903.1094"/><rect fill="#F1F1F1" height="2" style="stroke:#181818;stroke-width:0.5;" width="4" x="1783.5738" y="905.1094"/><rect fill="#F1F1F1" height="2" style="stroke:#181818;stroke-width:0.5;" width="4" x="1783.5738" y="909.1094"/><text fill="#000000" font-family="sans-serif" font-size="14" font-style="italic" lengthAdjust="spacing" textLength="90" x="1670.0738" y="932.6426">&#171;Persistence&#187;</text><text fill="#000000" font-family="sans-serif" font-size="14" lengthAdjust="spacing" textLength="131" x="1649.5738" y="950.252">CatalogueDbContext</text></g><polygon fill="#181818" points="325.9079,462.6555,316.15,463.9909,321.6564,465.2869,320.3603,470.7933,325.9079,462.6555" style="stroke:#181818;stroke-width:1.0;"/><path d="M315.2069,470.3554 C315.5213,470.1045 315.8376,469.8539 316.156,469.6034 C317.4294,468.6016 318.735,467.6036 320.0738,466.6094 C321.9538,465.2133 318.8005,467.0545 320.8061,465.8132 " fill="none" style="stroke:#181818;stroke-width:1.0;"/><text fill="#000000" font-family="sans-serif" font-size="13" lengthAdjust="spacing" textLength="90" x="219.0738" y="470.1045">&#171;Requ&#234;te Http&#187;</text><polygon fill="#181818" points="1191.7668,1501.6094,1182.7668,1497.6094,1186.7668,1501.6094,1182.7668,1505.6094,1191.7668,1501.6094" style="stroke:#181818;stroke-width:1.0;"/><path d="M924.4405,1501.6094 C1004.3421,1501.6094 1115.6289,1501.6094 1185.7668,1501.6094 " fill="none" style="stroke:#181818;stroke-width:1.0;"/><polygon fill="#181818" points="1415.2055,1501.6094,1406.2055,1497.6094,1410.2055,1501.6094,1406.2055,1505.6094,1415.2055,1501.6094" style="stroke:#181818;stroke-width:1.0;"/><path d="M1312.2621,1501.6094 C1343.6759,1501.6094 1376.4479,1501.6094 1409.2055,1501.6094 " fill="none" style="stroke:#181818;stroke-width:1.0;"/><polygon fill="#181818" points="1671.5717,1501.6094,1662.5717,1497.6094,1666.5717,1501.6094,1662.5717,1505.6094,1671.5717,1501.6094" style="stroke:#181818;stroke-width:1.0;"/><path d="M1554.7213,1501.6094 C1592.3076,1501.6094 1631.9372,1501.6094 1665.5717,1501.6094 " fill="none" style="stroke:#181818;stroke-width:1.0;"/><polygon fill="#181818" points="1422.728,1331.6094,1413.728,1327.6094,1417.728,1331.6094,1413.728,1335.6094,1422.728,1331.6094" style="stroke:#181818;stroke-width:1.0;"/><path d="M1321.756,1331.6094 C1353.8074,1331.6094 1385.6488,1331.6094 1416.728,1331.6094 " fill="none" style="stroke:#181818;stroke-width:1.0;"/><polygon fill="#181818" points="1648.3657,1331.6094,1639.3657,1327.6094,1643.3657,1331.6094,1639.3657,1335.6094,1648.3657,1331.6094" style="stroke:#181818;stroke-width:1.0;"/><path d="M1547.2918,1331.6094 C1578.3032,1331.6094 1610.1179,1331.6094 1642.3657,1331.6094 " fill="none" style="stroke:#181818;stroke-width:1.0;"/><polygon fill="#181818" points="1878.0453,1331.6094,1869.0453,1327.6094,1873.0453,1331.6094,1869.0453,1335.6094,1878.0453,1331.6094" style="stroke:#181818;stroke-width:1.0;"/><path d="M1791.7375,1331.6094 C1820.2534,1331.6094 1846.4037,1331.6094 1872.0453,1331.6094 " fill="none" style="stroke:#181818;stroke-width:1.0;"/><polygon fill="#181818" points="1372.1977,1105.6094,1363.1977,1101.6094,1367.1977,1105.6094,1363.1977,1109.6094,1372.1977,1105.6094" style="stroke:#181818;stroke-width:1.0;"/><path d="M1330.6361,1105.6094 C1344.0053,1105.6094 1352.1373,1105.6094 1366.1977,1105.6094 " fill="none" style="stroke:#181818;stroke-width:1.0;"/><polygon fill="#181818" points="1658.7421,1203.6094,1649.7421,1199.6094,1653.7421,1203.6094,1649.7421,1207.6094,1658.7421,1203.6094" style="stroke:#181818;stroke-width:1.0;"/><path d="M1553.7801,1203.6094 C1586.9677,1203.6094 1620.6035,1203.6094 1652.7421,1203.6094 " fill="none" style="stroke:#181818;stroke-width:1.0;"/><polygon fill="#181818" points="1645.2787,1115.8586,1636.5542,1111.2887,1640.289,1115.5374,1636.0403,1119.2721,1645.2787,1115.8586" style="stroke:#181818;stroke-width:1.0;"/><path d="M1597.7967,1112.8018 C1613.9141,1113.8394 1624.1661,1114.4994 1639.2911,1115.4731 " fill="none" style="stroke:#181818;stroke-width:1.0;"/><polygon fill="#181818" points="1847.2933,1088.0542,1839.8965,1081.5513,1842.521,1086.5625,1837.5098,1089.187,1847.2933,1088.0542" style="stroke:#181818;stroke-width:1.0;"/><path d="M1597.7867,1082.7684 C1661.4112,1073.2401 1742.39,1066.9897 1813.5738,1079.6094 C1824.6855,1081.5793 1830.4154,1082.7787 1841.5666,1086.2642 " fill="none" style="stroke:#181818;stroke-width:1.0;"/><polygon fill="#181818" points="1845.282,1153.1973,1835.4384,1152.8756,1840.649,1155.0776,1838.4469,1160.2883,1845.282,1153.1973" style="stroke:#181818;stroke-width:1.0;"/><path d="M1781.3245,1179.1556 C1801.3534,1171.0265 1818.4251,1164.0976 1839.7224,1155.4537 " fill="none" style="stroke:#181818;stroke-width:1.0;"/><polygon fill="#181818" points="1842.2709,1120.6094,1833.2709,1116.6094,1837.2709,1120.6094,1833.2709,1124.6094,1842.2709,1120.6094" style="stroke:#181818;stroke-width:1.0;"/><path d="M1794.6141,1120.6094 C1810.0727,1120.6094 1820.484,1120.6094 1836.2709,1120.6094 " fill="none" style="stroke:#181818;stroke-width:1.0;"/><polygon fill="#181818" points="2047.3511,1120.6094,2038.3511,1116.6094,2042.3511,1120.6094,2038.3511,1124.6094,2047.3511,1120.6094" style="stroke:#181818;stroke-width:1.0;"/><path d="M2010.812,1120.6094 C2023.2721,1120.6094 2029.8029,1120.6094 2041.3511,1120.6094 " fill="none" style="stroke:#181818;stroke-width:1.0;"/><polygon fill="#181818" points="1408.8253,930.6094,1399.8253,926.6094,1403.8253,930.6094,1399.8253,934.6094,1408.8253,930.6094" style="stroke:#181818;stroke-width:1.0;"/><path d="M1335.8177,930.6094 C1359.6381,930.6094 1379.485,930.6094 1402.8253,930.6094 " fill="none" style="stroke:#181818;stroke-width:1.0;"/><polygon fill="#181818" points="1634.5025,930.6094,1625.5025,926.6094,1629.5025,930.6094,1625.5025,934.6094,1634.5025,930.6094" style="stroke:#181818;stroke-width:1.0;"/><path d="M1561.079,930.6094 C1584.493,930.6094 1604.4792,930.6094 1628.5025,930.6094 " fill="none" style="stroke:#181818;stroke-width:1.0;"/><polygon fill="#181818" points="1872.2772,930.6094,1863.2772,926.6094,1867.2772,930.6094,1863.2772,934.6094,1872.2772,930.6094" style="stroke:#181818;stroke-width:1.0;"/><path d="M1805.728,930.6094 C1828.2537,930.6094 1845.954,930.6094 1866.2772,930.6094 " fill="none" style="stroke:#181818;stroke-width:1.0;"/><polygon fill="#181818" points="836.9024,1468.7409,840.746,1459.6731,836.8158,1463.7417,832.7472,1459.8115,836.9024,1468.7409" style="stroke:#181818;stroke-width:1.0;"/><path d="M493.4507,401.521 C503.013,406.8954 511.9752,413.507 519.0738,421.6094 C806.3058,749.4561 834.3218,1319.6419 836.7985,1462.7418 " fill="none" style="stroke:#181818;stroke-width:1.0;"/><text fill="#000000" font-family="sans-serif" font-size="13" lengthAdjust="spacing" textLength="189" x="538.0738" y="441.1045">&#171;Requ&#234;te Http via API Gateway&#187;</text><polygon fill="#181818" points="1173.9616,1414.6361,1164.2451,1413.0269,1169.1221,1415.8929,1166.2561,1420.77,1173.9616,1414.6361" style="stroke:#181818;stroke-width:1.0;"/><path d="M924.4405,1479.4389 C978.1796,1465.4824 1048.8298,1447.1339 1110.673,1431.0727 C1126.1337,1427.0574 1141.0441,1423.1851 1155.0022,1419.56 C1158.4917,1418.6538 1161.9217,1417.763 1165.2859,1416.8893 C1166.968,1416.4524 1168.6336,1416.0198 1170.2821,1415.5917 C1171.1063,1415.3777 1171.9262,1415.1647 1172.7417,1414.9529 C1173.1494,1414.847 1167.7487,1416.2496 1168.1542,1416.1443 " fill="none" style="stroke:#181818;stroke-width:1.0;"/><text fill="#000000" font-family="sans-serif" font-size="13" lengthAdjust="spacing" textLength="189" x="960.5738" y="1418.1045">&#171;Requ&#234;te Http via API Gateway&#187;</text><polygon fill="#181818" points="1169.2948,1244.7013,1159.4491,1244.4537,1164.6762,1246.6165,1162.5134,1251.8436,1169.2948,1244.7013" style="stroke:#181818;stroke-width:1.0;"/><path d="M870.5088,1469.0148 C924.6115,1414.8623 1041.0795,1306.5916 1160.5738,1248.6094 C1162.3836,1247.7312 1164.2298,1246.8819 1166.1048,1246.0607 C1167.0423,1245.65 1167.987,1245.2464 1168.9379,1244.8498 C1169.0568,1244.8002 1163.6334,1247.0489 1163.7524,1246.9996 " fill="none" style="stroke:#181818;stroke-width:1.0;"/><text fill="#000000" font-family="sans-serif" font-size="13" lengthAdjust="spacing" textLength="189" x="960.5738" y="1254.1045">&#171;Requ&#234;te Http via API Gateway&#187;</text><polygon fill="#181818" points="1167.6427,1013.7078,1157.8062,1014.2016,1163.1812,1015.965,1161.4178,1021.34,1167.6427,1013.7078" style="stroke:#181818;stroke-width:1.0;"/><path d="M850.0817,1468.7764 C868.3437,1416.7695 908.0544,1313.3766 959.5738,1235.6094 C1032.3577,1125.744 1047.7144,1085.6582 1160.5738,1017.6094 C1162.3139,1016.5602 1164.0998,1015.5563 1165.9229,1014.5957 C1166.3786,1014.3555 1166.8367,1014.1181 1167.297,1013.8833 C1167.4121,1013.8246 1162.1735,1016.4748 1162.2889,1016.4164 " fill="none" style="stroke:#181818;stroke-width:1.0;"/><text fill="#000000" font-family="sans-serif" font-size="13" lengthAdjust="spacing" textLength="189" x="960.5738" y="1022.1045">&#171;Requ&#234;te Http via API Gateway&#187;</text><!--SRC=[fLNDRjim3BxxARYSkaE0OhiDHO7MsK-11IiQ83iKFQWovmgr9KzMqdL37wXxZRpOADcn9V-bGsyM-V6Z-96cZ30Pmdg3a20iTizRp5HHO8xIm1oMB6Mba13JKRCiUbDebkOCClQeDWRA70sJBChmXm6ZG8lqpa0YD78Zb8oYybx8WccM0rTveQHb_HC1t2ajVYjfMBOg61SoXVV7PDwYDeAtndV7qPF7GTPxbg9ZA5YID9389cGofKfcPqMH4OVD3pmJDkFH9qsvK2PlPy3AsaeuE3dvoXvHdvxMb1Nzx3lUmd8Tmz6btZsNX7LiLJ3vh2kCz6BN0XzAXzpI5-6QmXiim7NCg7ILRj32RmWLjwWzvYp9XHGbwMwpJm0lvDRUaLIV0AtfDEN_IBOSDSSXFoaS51cJd5fb6UggLDwS3nRSXdOIMPu1LEoQDQp9A5TVcOFGflw3IAVaP1aTX5V2KrIBwOPZdgW7EJ_rvVj0R5VuSxFxQn2-65DGNWfeb3-d3nhacLCs8RbkMKdc5Vsdi3XtpIZfUt5BF8lQxQxUOjtjzc2h3qwXMmdt8QAnJCKrhTo7yRsX6-N_URQERvhVeMknqar1AzHRmP4Ybu9hLLR7PiAgfjZei35dbnTruwvzMkjQxfwDi7zmvLuvrMmq_ZBMVqd3JPE6acED6SW1SsgVp-o0li4X0d872ImEKxLjFn_jFh59bxokl-rPOvgMP5IEgfWgPa2ETJKNX_NeQE7JUgBLLsqGeHYXoQ7gkUp9qOvZg8desqU5kK9M55gDIhCoYj-FUklehIXf0qdtK8xBwAZ6tMqrBy4SQ4UlB2Va-7MhEGnhhQRLkxJFFC3XyBqg_Y-eysDuoIU1lQmlH8TpvY-pth0rEooSDTupZuxQoBFdZLE369-0kDsSamCmaCpLs4qHWdtr-fb2RAYTjz6TT2HUDFZqUPiXt9wzruxUHGQa3dnc1X_O8rKsjdKxM_0rL4FBupLy0mFo4hf_]--></g></svg>