<?xml version="1.0" encoding="us-ascii" standalone="no"?><svg xmlns="http://www.w3.org/2000/svg" xmlns:xlink="http://www.w3.org/1999/xlink" contentStyleType="text/css" height="827px" preserveAspectRatio="none" style="width:1360px;height:827px;background:#FFFFFF;" version="1.1" viewBox="0 0 1360 827" width="1360px" zoomAndPan="magnify"><defs/><g><text fill="#000000" font-family="sans-serif" font-size="14" font-weight="bold" lengthAdjust="spacing" textLength="323" x="514.5" y="29.5332">Process View - G&#233;n&#233;rer un Rapport Consolid&#233;</text><line style="stroke:#181818;stroke-width:0.5;stroke-dasharray:5.0,5.0;" x1="48" x2="48" y1="121.2188" y2="744.8984"/><line style="stroke:#181818;stroke-width:0.5;stroke-dasharray:5.0,5.0;" x1="151" x2="151" y1="121.2188" y2="744.8984"/><line style="stroke:#181818;stroke-width:0.5;stroke-dasharray:5.0,5.0;" x1="335" x2="335" y1="121.2188" y2="744.8984"/><line style="stroke:#181818;stroke-width:0.5;stroke-dasharray:5.0,5.0;" x1="558.5" x2="558.5" y1="121.2188" y2="744.8984"/><line style="stroke:#181818;stroke-width:0.5;stroke-dasharray:5.0,5.0;" x1="771.5" x2="771.5" y1="121.2188" y2="744.8984"/><line style="stroke:#181818;stroke-width:0.5;stroke-dasharray:5.0,5.0;" x1="952" x2="952" y1="121.2188" y2="744.8984"/><line style="stroke:#181818;stroke-width:0.5;stroke-dasharray:5.0,5.0;" x1="1105" x2="1105" y1="121.2188" y2="744.8984"/><line style="stroke:#181818;stroke-width:0.5;stroke-dasharray:5.0,5.0;" x1="1271" x2="1271" y1="121.2188" y2="744.8984"/><text fill="#000000" font-family="sans-serif" font-size="14" lengthAdjust="spacing" textLength="81" x="5" y="118.1426">Gestionnaire</text><ellipse cx="48.5" cy="52.1094" fill="#E2E2F0" rx="8" ry="8" style="stroke:#181818;stroke-width:0.5;"/><path d="M48.5,60.1094 L48.5,87.1094 M35.5,68.1094 L61.5,68.1094 M48.5,87.1094 L35.5,102.1094 M48.5,87.1094 L61.5,102.1094 " fill="none" style="stroke:#181818;stroke-width:0.5;"/><text fill="#000000" font-family="sans-serif" font-size="14" lengthAdjust="spacing" textLength="81" x="5" y="758.4316">Gestionnaire</text><ellipse cx="48.5" cy="770.0078" fill="#E2E2F0" rx="8" ry="8" style="stroke:#181818;stroke-width:0.5;"/><path d="M48.5,778.0078 L48.5,805.0078 M35.5,786.0078 L61.5,786.0078 M48.5,805.0078 L35.5,820.0078 M48.5,805.0078 L61.5,820.0078 " fill="none" style="stroke:#181818;stroke-width:0.5;"/><rect fill="#E2E2F0" height="31.6094" rx="2.5" ry="2.5" style="stroke:#181818;stroke-width:0.5;" width="65" x="119" y="88.6094"/><text fill="#000000" font-family="sans-serif" font-size="14" lengthAdjust="spacing" textLength="51" x="126" y="110.1426">Browser</text><rect fill="#E2E2F0" height="31.6094" rx="2.5" ry="2.5" style="stroke:#181818;stroke-width:0.5;" width="65" x="119" y="743.8984"/><text fill="#000000" font-family="sans-serif" font-size="14" lengthAdjust="spacing" textLength="51" x="126" y="765.4316">Browser</text><rect fill="#E2E2F0" height="49.2188" rx="2.5" ry="2.5" style="stroke:#181818;stroke-width:0.5;" width="181" x="245" y="71"/><text fill="#000000" font-family="sans-serif" font-size="14" lengthAdjust="spacing" textLength="99" x="286" y="92.5332">MagasinCentral</text><text fill="#000000" font-family="sans-serif" font-size="14" lengthAdjust="spacing" textLength="167" x="252" y="110.1426">&#171;AdministrationController&#187;</text><rect fill="#E2E2F0" height="49.2188" rx="2.5" ry="2.5" style="stroke:#181818;stroke-width:0.5;" width="181" x="245" y="743.8984"/><text fill="#000000" font-family="sans-serif" font-size="14" lengthAdjust="spacing" textLength="99" x="286" y="765.4316">MagasinCentral</text><text fill="#000000" font-family="sans-serif" font-size="14" lengthAdjust="spacing" textLength="167" x="252" y="783.041">&#171;AdministrationController&#187;</text><rect fill="#E2E2F0" height="49.2188" rx="2.5" ry="2.5" style="stroke:#181818;stroke-width:0.5;" width="168" x="474.5" y="71"/><text fill="#000000" font-family="sans-serif" font-size="14" lengthAdjust="spacing" textLength="154" x="481.5" y="92.5332">AdministrationMcService</text><text fill="#000000" font-family="sans-serif" font-size="14" lengthAdjust="spacing" textLength="129" x="494" y="110.1426">&#171;RapportController&#187;</text><rect fill="#E2E2F0" height="49.2188" rx="2.5" ry="2.5" style="stroke:#181818;stroke-width:0.5;" width="168" x="474.5" y="743.8984"/><text fill="#000000" font-family="sans-serif" font-size="14" lengthAdjust="spacing" textLength="154" x="481.5" y="765.4316">AdministrationMcService</text><text fill="#000000" font-family="sans-serif" font-size="14" lengthAdjust="spacing" textLength="129" x="494" y="783.041">&#171;RapportController&#187;</text><rect fill="#E2E2F0" height="49.2188" rx="2.5" ry="2.5" style="stroke:#181818;stroke-width:0.5;" width="168" x="687.5" y="71"/><text fill="#000000" font-family="sans-serif" font-size="14" lengthAdjust="spacing" textLength="154" x="694.5" y="92.5332">AdministrationMcService</text><text fill="#000000" font-family="sans-serif" font-size="14" lengthAdjust="spacing" textLength="114" x="714.5" y="110.1426">&#171;RapportService&#187;</text><rect fill="#E2E2F0" height="49.2188" rx="2.5" ry="2.5" style="stroke:#181818;stroke-width:0.5;" width="168" x="687.5" y="743.8984"/><text fill="#000000" font-family="sans-serif" font-size="14" lengthAdjust="spacing" textLength="154" x="694.5" y="765.4316">AdministrationMcService</text><text fill="#000000" font-family="sans-serif" font-size="14" lengthAdjust="spacing" textLength="114" x="714.5" y="783.041">&#171;RapportService&#187;</text><rect fill="#E2E2F0" height="49.2188" rx="2.5" ry="2.5" style="stroke:#181818;stroke-width:0.5;" width="129" x="888" y="71"/><text fill="#000000" font-family="sans-serif" font-size="14" lengthAdjust="spacing" textLength="102" x="901.5" y="92.5332">VenteMcService</text><text fill="#000000" font-family="sans-serif" font-size="14" lengthAdjust="spacing" textLength="115" x="895" y="110.1426">&#171;VenteController&#187;</text><rect fill="#E2E2F0" height="49.2188" rx="2.5" ry="2.5" style="stroke:#181818;stroke-width:0.5;" width="129" x="888" y="743.8984"/><text fill="#000000" font-family="sans-serif" font-size="14" lengthAdjust="spacing" textLength="102" x="901.5" y="765.4316">VenteMcService</text><text fill="#000000" font-family="sans-serif" font-size="14" lengthAdjust="spacing" textLength="115" x="895" y="783.041">&#171;VenteController&#187;</text><rect fill="#E2E2F0" height="49.2188" rx="2.5" ry="2.5" style="stroke:#181818;stroke-width:0.5;" width="157" x="1027" y="71"/><text fill="#000000" font-family="sans-serif" font-size="14" lengthAdjust="spacing" textLength="130" x="1040.5" y="92.5332">CatalogueMcService</text><text fill="#000000" font-family="sans-serif" font-size="14" lengthAdjust="spacing" textLength="143" x="1034" y="110.1426">&#171;CatalogueController&#187;</text><rect fill="#E2E2F0" height="49.2188" rx="2.5" ry="2.5" style="stroke:#181818;stroke-width:0.5;" width="157" x="1027" y="743.8984"/><text fill="#000000" font-family="sans-serif" font-size="14" lengthAdjust="spacing" textLength="130" x="1040.5" y="765.4316">CatalogueMcService</text><text fill="#000000" font-family="sans-serif" font-size="14" lengthAdjust="spacing" textLength="143" x="1034" y="783.041">&#171;CatalogueController&#187;</text><rect fill="#E2E2F0" height="49.2188" rx="2.5" ry="2.5" style="stroke:#181818;stroke-width:0.5;" width="154" x="1194" y="71"/><text fill="#000000" font-family="sans-serif" font-size="14" lengthAdjust="spacing" textLength="127" x="1207.5" y="92.5332">InventaireMcService</text><text fill="#000000" font-family="sans-serif" font-size="14" lengthAdjust="spacing" textLength="140" x="1201" y="110.1426">&#171;InventaireController&#187;</text><rect fill="#E2E2F0" height="49.2188" rx="2.5" ry="2.5" style="stroke:#181818;stroke-width:0.5;" width="154" x="1194" y="743.8984"/><text fill="#000000" font-family="sans-serif" font-size="14" lengthAdjust="spacing" textLength="127" x="1207.5" y="765.4316">InventaireMcService</text><text fill="#000000" font-family="sans-serif" font-size="14" lengthAdjust="spacing" textLength="140" x="1201" y="783.041">&#171;InventaireController&#187;</text><polygon fill="#181818" points="139.5,149.5703,149.5,153.5703,139.5,157.5703,143.5,153.5703" style="stroke:#181818;stroke-width:1.0;"/><line style="stroke:#181818;stroke-width:1.0;" x1="48.5" x2="145.5" y1="153.5703" y2="153.5703"/><text fill="#000000" font-family="sans-serif" font-size="13" lengthAdjust="spacing" textLength="79" x="55.5" y="148.7139">GET /Rapport</text><polygon fill="#181818" points="323.5,179.9219,333.5,183.9219,323.5,187.9219,327.5,183.9219" style="stroke:#181818;stroke-width:1.0;"/><line style="stroke:#181818;stroke-width:1.0;" x1="151.5" x2="329.5" y1="183.9219" y2="183.9219"/><text fill="#000000" font-family="sans-serif" font-size="13" lengthAdjust="spacing" textLength="79" x="158.5" y="179.0654">GET /Rapport</text><polygon fill="#181818" points="546.5,210.2734,556.5,214.2734,546.5,218.2734,550.5,214.2734" style="stroke:#181818;stroke-width:1.0;"/><line style="stroke:#181818;stroke-width:1.0;" x1="335.5" x2="552.5" y1="214.2734" y2="214.2734"/><text fill="#000000" font-family="sans-serif" font-size="13" lengthAdjust="spacing" textLength="199" x="342.5" y="209.417">GET api/v1/administration/rapports</text><polygon fill="#181818" points="759.5,256.9766,769.5,260.9766,759.5,264.9766,763.5,260.9766" style="stroke:#181818;stroke-width:1.0;"/><line style="stroke:#181818;stroke-width:1.0;" x1="558.5" x2="765.5" y1="260.9766" y2="260.9766"/><text fill="#000000" font-family="sans-serif" font-size="13" lengthAdjust="spacing" textLength="109" x="565.5" y="239.7686">rapportConsolide =</text><text fill="#000000" font-family="sans-serif" font-size="13" lengthAdjust="spacing" textLength="189" x="565.5" y="256.1201">ObtenirRapportConsolideAsync()</text><rect fill="#EEEEEE" height="3" style="stroke:#EEEEEE;stroke-width:1.0;" width="1353" x="0" y="290.1523"/><line style="stroke:#000000;stroke-width:1.0;" x1="0" x2="1353" y1="290.1523" y2="290.1523"/><line style="stroke:#000000;stroke-width:1.0;" x1="0" x2="1353" y1="293.1523" y2="293.1523"/><rect fill="#EEEEEE" height="24.3516" style="stroke:#000000;stroke-width:2.0;" width="151" x="601" y="278.9766"/><text fill="#000000" font-family="sans-serif" font-size="13" font-weight="bold" lengthAdjust="spacing" textLength="133" x="607" y="296.4717">Recuperer les ventes</text><polygon fill="#181818" points="940.5,331.6797,950.5,335.6797,940.5,339.6797,944.5,335.6797" style="stroke:#181818;stroke-width:1.0;"/><line style="stroke:#181818;stroke-width:1.0;" x1="771.5" x2="946.5" y1="335.6797" y2="335.6797"/><text fill="#000000" font-family="sans-serif" font-size="13" lengthAdjust="spacing" textLength="157" x="778.5" y="330.8232">ventes = GET api/v1/ventes</text><polygon fill="#181818" points="782.5,362.0313,772.5,366.0313,782.5,370.0313,778.5,366.0313" style="stroke:#181818;stroke-width:1.0;"/><line style="stroke:#181818;stroke-width:1.0;stroke-dasharray:2.0,2.0;" x1="776.5" x2="951.5" y1="366.0313" y2="366.0313"/><text fill="#000000" font-family="sans-serif" font-size="13" lengthAdjust="spacing" textLength="94" x="788.5" y="361.1748">Liste des ventes</text><rect fill="#EEEEEE" height="3" style="stroke:#EEEEEE;stroke-width:1.0;" width="1353" x="0" y="395.207"/><line style="stroke:#000000;stroke-width:1.0;" x1="0" x2="1353" y1="395.207" y2="395.207"/><line style="stroke:#000000;stroke-width:1.0;" x1="0" x2="1353" y1="398.207" y2="398.207"/><rect fill="#EEEEEE" height="24.3516" style="stroke:#000000;stroke-width:2.0;" width="161" x="596" y="384.0313"/><text fill="#000000" font-family="sans-serif" font-size="13" font-weight="bold" lengthAdjust="spacing" textLength="143" x="602" y="401.5264">Recuperer les produits</text><polygon fill="#181818" points="1093.5,436.7344,1103.5,440.7344,1093.5,444.7344,1097.5,440.7344" style="stroke:#181818;stroke-width:1.0;"/><line style="stroke:#181818;stroke-width:1.0;" x1="771.5" x2="1099.5" y1="440.7344" y2="440.7344"/><text fill="#000000" font-family="sans-serif" font-size="13" lengthAdjust="spacing" textLength="237" x="778.5" y="435.8779">produits = GET api/v1/Catalogue/produits</text><polygon fill="#181818" points="782.5,467.0859,772.5,471.0859,782.5,475.0859,778.5,471.0859" style="stroke:#181818;stroke-width:1.0;"/><line style="stroke:#181818;stroke-width:1.0;stroke-dasharray:2.0,2.0;" x1="776.5" x2="1104.5" y1="471.0859" y2="471.0859"/><text fill="#000000" font-family="sans-serif" font-size="13" lengthAdjust="spacing" textLength="103" x="788.5" y="466.2295">Liste des produits</text><rect fill="#EEEEEE" height="3" style="stroke:#EEEEEE;stroke-width:1.0;" width="1353" x="0" y="500.2617"/><line style="stroke:#000000;stroke-width:1.0;" x1="0" x2="1353" y1="500.2617" y2="500.2617"/><line style="stroke:#000000;stroke-width:1.0;" x1="0" x2="1353" y1="503.2617" y2="503.2617"/><rect fill="#EEEEEE" height="24.3516" style="stroke:#000000;stroke-width:2.0;" width="148" x="602.5" y="489.0859"/><text fill="#000000" font-family="sans-serif" font-size="13" font-weight="bold" lengthAdjust="spacing" textLength="130" x="608.5" y="506.5811">Recuperer les stocks</text><polygon fill="#181818" points="1259,541.7891,1269,545.7891,1259,549.7891,1263,545.7891" style="stroke:#181818;stroke-width:1.0;"/><line style="stroke:#181818;stroke-width:1.0;" x1="771.5" x2="1265" y1="545.7891" y2="545.7891"/><text fill="#000000" font-family="sans-serif" font-size="13" lengthAdjust="spacing" textLength="219" x="778.5" y="540.9326">stocks = GET api/v1/inventaire/stocks</text><polygon fill="#181818" points="782.5,572.1406,772.5,576.1406,782.5,580.1406,778.5,576.1406" style="stroke:#181818;stroke-width:1.0;"/><line style="stroke:#181818;stroke-width:1.0;stroke-dasharray:2.0,2.0;" x1="776.5" x2="1270" y1="576.1406" y2="576.1406"/><text fill="#000000" font-family="sans-serif" font-size="13" lengthAdjust="spacing" textLength="96" x="788.5" y="571.2842">Liste des stocks</text><line style="stroke:#181818;stroke-width:1.0;" x1="771.5" x2="813.5" y1="622.8438" y2="622.8438"/><line style="stroke:#181818;stroke-width:1.0;" x1="813.5" x2="813.5" y1="622.8438" y2="635.8438"/><line style="stroke:#181818;stroke-width:1.0;" x1="772.5" x2="813.5" y1="635.8438" y2="635.8438"/><polygon fill="#181818" points="782.5,631.8438,772.5,635.8438,782.5,639.8438,778.5,635.8438" style="stroke:#181818;stroke-width:1.0;"/><text fill="#000000" font-family="sans-serif" font-size="13" lengthAdjust="spacing" textLength="73" x="778.5" y="601.6357">Construire le</text><text fill="#000000" font-family="sans-serif" font-size="13" lengthAdjust="spacing" textLength="99" x="778.5" y="617.9873">rapport consolid&#233;</text><polygon fill="#181818" points="569.5,662.1953,559.5,666.1953,569.5,670.1953,565.5,666.1953" style="stroke:#181818;stroke-width:1.0;"/><line style="stroke:#181818;stroke-width:1.0;stroke-dasharray:2.0,2.0;" x1="563.5" x2="770.5" y1="666.1953" y2="666.1953"/><text fill="#000000" font-family="sans-serif" font-size="13" lengthAdjust="spacing" textLength="97" x="575.5" y="661.3389">rapportConsolide</text><polygon fill="#181818" points="346.5,692.5469,336.5,696.5469,346.5,700.5469,342.5,696.5469" style="stroke:#181818;stroke-width:1.0;"/><line style="stroke:#181818;stroke-width:1.0;stroke-dasharray:2.0,2.0;" x1="340.5" x2="557.5" y1="696.5469" y2="696.5469"/><text fill="#000000" font-family="sans-serif" font-size="13" lengthAdjust="spacing" textLength="97" x="352.5" y="691.6904">rapportConsolide</text><polygon fill="#181818" points="162.5,722.8984,152.5,726.8984,162.5,730.8984,158.5,726.8984" style="stroke:#181818;stroke-width:1.0;"/><line style="stroke:#181818;stroke-width:1.0;" x1="156.5" x2="334.5" y1="726.8984" y2="726.8984"/><text fill="#000000" font-family="sans-serif" font-size="13" lengthAdjust="spacing" textLength="160" x="168.5" y="722.042">Afficher le rapport consolid&#233;</text><!--SRC=[bPH1JiCm44NtFiMeArXK4Lj4AeK8LKWWK46is1Xt2XR1ZiPE4KVgENendDHfujWLOjV- -VFytHdNIbiXF98MQ0oyIFo6EIptExNV4H8q2bQyhZLPABKokfBh_OvnOJN1R8d6IgqKbuGpu0R60cCr9ok5hBcoCBic_MsGEjlRuNDekEVlt4XLehB4grTrTLMilwIIndrjeUvuIxgga1QBZbAK8I2qtuidfAqKs9By5I84JVN_4hqIuhmOibxSlJ10T4eKQHkg8QJabbVwlGb1HpM2YRWI0czLUruxhe0uo15I9agCZGSFyqK_ORY4vSqpPFxNOhti74KvBJh5wT58l8tNCjjUP3mOIURTXiLj0yjVp846LxV92FchUdYpg2Ij9gN2_2XnTivOdiCAHLDZ-nmgz1CoaETimdSdJgRdZkpTuqiSD3OrprEHxznb4TR7SnE1QjBhHjeJaH8xuB13ppZOSPEolivIxNy4FVR6KOtLulD4qDHcEMxVCiuvMBD3cIMR_yZfMnDHegPsBImrxNPNxeNuEeZXBp6YdDZbwGgcDhT_7f7ty4I6nrLiDb9yTByjn9b-0G00]--></g></svg>