<?xml version="1.0" encoding="us-ascii" standalone="no"?><svg xmlns="http://www.w3.org/2000/svg" xmlns:xlink="http://www.w3.org/1999/xlink" contentStyleType="text/css" height="1399px" preserveAspectRatio="none" style="width:1021px;height:1399px;background:#FFFFFF;" version="1.1" viewBox="0 0 1021 1399" width="1021px" zoomAndPan="magnify"><defs/><g><text fill="#000000" font-family="sans-serif" font-size="14" font-weight="bold" lengthAdjust="spacing" textLength="257" x="375" y="24.5332">Vue Physique - Architecture &#201;volu&#233;e</text><!--cluster clientApp--><g id="cluster_clientApp"><polygon fill="none" points="16,624.6094,26,614.6094,339,614.6094,339,744.6094,329,754.6094,16,754.6094,16,624.6094" style="stroke:#181818;stroke-width:1.0;"/><line style="stroke:#181818;stroke-width:1.0;" x1="329" x2="339" y1="624.6094" y2="614.6094"/><line style="stroke:#181818;stroke-width:1.0;" x1="16" x2="329" y1="624.6094" y2="624.6094"/><line style="stroke:#181818;stroke-width:1.0;" x1="329" x2="329" y1="624.6094" y2="754.6094"/><text fill="#000000" font-family="sans-serif" font-size="14" font-weight="bold" lengthAdjust="spacing" textLength="70" x="138.5" y="642.1426">client-app</text></g><!--cluster catalogueMcService--><g id="cluster_catalogueMcService"><polygon fill="none" points="452,500.6094,462,490.6094,630,490.6094,630,620.6094,620,630.6094,452,630.6094,452,500.6094" style="stroke:#181818;stroke-width:1.0;"/><line style="stroke:#181818;stroke-width:1.0;" x1="620" x2="630" y1="500.6094" y2="490.6094"/><line style="stroke:#181818;stroke-width:1.0;" x1="452" x2="620" y1="500.6094" y2="500.6094"/><line style="stroke:#181818;stroke-width:1.0;" x1="620" x2="620" y1="500.6094" y2="630.6094"/><text fill="#000000" font-family="sans-serif" font-size="14" font-weight="bold" lengthAdjust="spacing" textLength="95" x="489.5" y="518.1426">catalogue-api</text></g><!--cluster inventaireMcService--><g id="cluster_inventaireMcService"><polygon fill="none" points="453.5,680.6094,463.5,670.6094,628.5,670.6094,628.5,800.6094,618.5,810.6094,453.5,810.6094,453.5,680.6094" style="stroke:#181818;stroke-width:1.0;"/><line style="stroke:#181818;stroke-width:1.0;" x1="618.5" x2="628.5" y1="680.6094" y2="670.6094"/><line style="stroke:#181818;stroke-width:1.0;" x1="453.5" x2="618.5" y1="680.6094" y2="680.6094"/><line style="stroke:#181818;stroke-width:1.0;" x1="618.5" x2="618.5" y1="680.6094" y2="810.6094"/><text fill="#000000" font-family="sans-serif" font-size="14" font-weight="bold" lengthAdjust="spacing" textLength="98" x="488" y="698.1426">inventaire-api</text></g><!--cluster venteMcService--><g id="cluster_venteMcService"><polygon fill="none" points="466,860.6094,476,850.6094,616,850.6094,616,980.6094,606,990.6094,466,990.6094,466,860.6094" style="stroke:#181818;stroke-width:1.0;"/><line style="stroke:#181818;stroke-width:1.0;" x1="606" x2="616" y1="860.6094" y2="850.6094"/><line style="stroke:#181818;stroke-width:1.0;" x1="466" x2="606" y1="860.6094" y2="860.6094"/><line style="stroke:#181818;stroke-width:1.0;" x1="606" x2="606" y1="860.6094" y2="990.6094"/><text fill="#000000" font-family="sans-serif" font-size="14" font-weight="bold" lengthAdjust="spacing" textLength="67" x="503.5" y="878.1426">vente-api</text></g><!--cluster administrationMcService--><g id="cluster_administrationMcService"><polygon fill="none" points="440,1040.6094,450,1030.6094,642,1030.6094,642,1160.6094,632,1170.6094,440,1170.6094,440,1040.6094" style="stroke:#181818;stroke-width:1.0;"/><line style="stroke:#181818;stroke-width:1.0;" x1="632" x2="642" y1="1040.6094" y2="1030.6094"/><line style="stroke:#181818;stroke-width:1.0;" x1="440" x2="632" y1="1040.6094" y2="1040.6094"/><line style="stroke:#181818;stroke-width:1.0;" x1="632" x2="632" y1="1040.6094" y2="1170.6094"/><text fill="#000000" font-family="sans-serif" font-size="14" font-weight="bold" lengthAdjust="spacing" textLength="126" x="474" y="1058.1426">administration-api</text></g><!--cluster ecommerceMcService--><g id="cluster_ecommerceMcService"><polygon fill="none" points="446,1220.6094,456,1210.6094,636,1210.6094,636,1340.6094,626,1350.6094,446,1350.6094,446,1220.6094" style="stroke:#181818;stroke-width:1.0;"/><line style="stroke:#181818;stroke-width:1.0;" x1="626" x2="636" y1="1220.6094" y2="1210.6094"/><line style="stroke:#181818;stroke-width:1.0;" x1="446" x2="626" y1="1220.6094" y2="1220.6094"/><line style="stroke:#181818;stroke-width:1.0;" x1="626" x2="626" y1="1220.6094" y2="1350.6094"/><text fill="#000000" font-family="sans-serif" font-size="14" font-weight="bold" lengthAdjust="spacing" textLength="108" x="483" y="1238.1426">ecommerce-api</text></g><!--cluster sagaService--><g id="cluster_sagaService"><polygon fill="none" points="398,264.6094,408,254.6094,685,254.6094,685,384.6094,675,394.6094,398,394.6094,398,264.6094" style="stroke:#181818;stroke-width:1.0;"/><line style="stroke:#181818;stroke-width:1.0;" x1="675" x2="685" y1="264.6094" y2="254.6094"/><line style="stroke:#181818;stroke-width:1.0;" x1="398" x2="675" y1="264.6094" y2="264.6094"/><line style="stroke:#181818;stroke-width:1.0;" x1="675" x2="675" y1="264.6094" y2="394.6094"/><text fill="#000000" font-family="sans-serif" font-size="14" font-weight="bold" lengthAdjust="spacing" textLength="211" x="432" y="282.1426">Docker Container : postgresql</text></g><!--cluster ecommerce-service-db--><g id="cluster_ecommerce-service-db"><polygon fill="none" points="717,1287.6094,727,1277.6094,1004,1277.6094,1004,1372.6094,994,1382.6094,717,1382.6094,717,1287.6094" style="stroke:#181818;stroke-width:1.0;"/><line style="stroke:#181818;stroke-width:1.0;" x1="994" x2="1004" y1="1287.6094" y2="1277.6094"/><line style="stroke:#181818;stroke-width:1.0;" x1="717" x2="994" y1="1287.6094" y2="1287.6094"/><line style="stroke:#181818;stroke-width:1.0;" x1="994" x2="994" y1="1287.6094" y2="1382.6094"/><text fill="#000000" font-family="sans-serif" font-size="14" font-weight="bold" lengthAdjust="spacing" textLength="211" x="751" y="1305.1426">Docker Container : postgresql</text></g><!--cluster administration-service-db--><g id="cluster_administration-service-db"><polygon fill="none" points="717,1107.6094,727,1097.6094,1004,1097.6094,1004,1192.6094,994,1202.6094,717,1202.6094,717,1107.6094" style="stroke:#181818;stroke-width:1.0;"/><line style="stroke:#181818;stroke-width:1.0;" x1="994" x2="1004" y1="1107.6094" y2="1097.6094"/><line style="stroke:#181818;stroke-width:1.0;" x1="717" x2="994" y1="1107.6094" y2="1107.6094"/><line style="stroke:#181818;stroke-width:1.0;" x1="994" x2="994" y1="1107.6094" y2="1202.6094"/><text fill="#000000" font-family="sans-serif" font-size="14" font-weight="bold" lengthAdjust="spacing" textLength="211" x="751" y="1125.1426">Docker Container : postgresql</text></g><!--cluster vente-service-db--><g id="cluster_vente-service-db"><polygon fill="none" points="717,927.6094,727,917.6094,1004,917.6094,1004,1012.6094,994,1022.6094,717,1022.6094,717,927.6094" style="stroke:#181818;stroke-width:1.0;"/><line style="stroke:#181818;stroke-width:1.0;" x1="994" x2="1004" y1="927.6094" y2="917.6094"/><line style="stroke:#181818;stroke-width:1.0;" x1="717" x2="994" y1="927.6094" y2="927.6094"/><line style="stroke:#181818;stroke-width:1.0;" x1="994" x2="994" y1="927.6094" y2="1022.6094"/><text fill="#000000" font-family="sans-serif" font-size="14" font-weight="bold" lengthAdjust="spacing" textLength="211" x="751" y="945.1426">Docker Container : postgresql</text></g><!--cluster inventaire-service-db--><g id="cluster_inventaire-service-db"><polygon fill="none" points="716.5,747.6094,726.5,737.6094,1003.5,737.6094,1003.5,832.6094,993.5,842.6094,716.5,842.6094,716.5,747.6094" style="stroke:#181818;stroke-width:1.0;"/><line style="stroke:#181818;stroke-width:1.0;" x1="993.5" x2="1003.5" y1="747.6094" y2="737.6094"/><line style="stroke:#181818;stroke-width:1.0;" x1="716.5" x2="993.5" y1="747.6094" y2="747.6094"/><line style="stroke:#181818;stroke-width:1.0;" x1="993.5" x2="993.5" y1="747.6094" y2="842.6094"/><text fill="#000000" font-family="sans-serif" font-size="14" font-weight="bold" lengthAdjust="spacing" textLength="211" x="750.5" y="765.1426">Docker Container : postgresql</text></g><!--cluster catalogue-service-db--><g id="cluster_catalogue-service-db"><polygon fill="none" points="717,567.6094,727,557.6094,1004,557.6094,1004,652.6094,994,662.6094,717,662.6094,717,567.6094" style="stroke:#181818;stroke-width:1.0;"/><line style="stroke:#181818;stroke-width:1.0;" x1="994" x2="1004" y1="567.6094" y2="557.6094"/><line style="stroke:#181818;stroke-width:1.0;" x1="717" x2="994" y1="567.6094" y2="567.6094"/><line style="stroke:#181818;stroke-width:1.0;" x1="994" x2="994" y1="567.6094" y2="662.6094"/><text fill="#000000" font-family="sans-serif" font-size="14" font-weight="bold" lengthAdjust="spacing" textLength="211" x="751" y="585.1426">Docker Container : postgresql</text></g><!--cluster saga-service-db--><g id="cluster_saga-service-db"><polygon fill="none" points="717,244.6094,727,234.6094,1004,234.6094,1004,329.6094,994,339.6094,717,339.6094,717,244.6094" style="stroke:#181818;stroke-width:1.0;"/><line style="stroke:#181818;stroke-width:1.0;" x1="994" x2="1004" y1="244.6094" y2="234.6094"/><line style="stroke:#181818;stroke-width:1.0;" x1="717" x2="994" y1="244.6094" y2="244.6094"/><line style="stroke:#181818;stroke-width:1.0;" x1="994" x2="994" y1="244.6094" y2="339.6094"/><text fill="#000000" font-family="sans-serif" font-size="14" font-weight="bold" lengthAdjust="spacing" textLength="211" x="751" y="262.1426">Docker Container : postgresql</text></g><!--cluster Observabilit?--><g id="cluster_Observabilit&#233;"><polygon fill="none" points="30.5,54.6094,40.5,44.6094,913.5,44.6094,913.5,200.6094,903.5,210.6094,30.5,210.6094,30.5,54.6094" style="stroke:#181818;stroke-width:1.0;"/><line style="stroke:#181818;stroke-width:1.0;" x1="903.5" x2="913.5" y1="54.6094" y2="44.6094"/><line style="stroke:#181818;stroke-width:1.0;" x1="30.5" x2="903.5" y1="54.6094" y2="54.6094"/><line style="stroke:#181818;stroke-width:1.0;" x1="903.5" x2="903.5" y1="54.6094" y2="210.6094"/><text fill="#000000" font-family="sans-serif" font-size="14" font-weight="bold" lengthAdjust="spacing" textLength="95" x="420.5" y="72.1426">Observabilit&#233;</text></g><!--entity clientAppComponent--><g id="elem_clientAppComponent"><rect fill="#F1F1F1" height="47.6094" rx="2.5" ry="2.5" style="stroke:#181818;stroke-width:0.5;" width="105" x="40" y="663.6094"/><rect fill="#F1F1F1" height="10" style="stroke:#181818;stroke-width:0.5;" width="15" x="125" y="668.6094"/><rect fill="#F1F1F1" height="2" style="stroke:#181818;stroke-width:0.5;" width="4" x="123" y="670.6094"/><rect fill="#F1F1F1" height="2" style="stroke:#181818;stroke-width:0.5;" width="4" x="123" y="674.6094"/><text fill="#000000" font-family="sans-serif" font-size="14" lengthAdjust="spacing" textLength="65" x="55" y="698.1426">Client App</text></g><g id="elem_GMN5"><path d="M252,674.6094 L252,683.6094 L145.2,687.6094 L252,691.6094 L252,700.9609 A0,0 0 0 0 252,700.9609 L315,700.9609 A0,0 0 0 0 315,700.9609 L315,684.6094 L305,674.6094 L252,674.6094 A0,0 0 0 0 252,674.6094 " fill="#FEFFDD" style="stroke:#181818;stroke-width:0.5;"/><path d="M305,674.6094 L305,684.6094 L315,684.6094 L305,674.6094 " fill="#FEFFDD" style="stroke:#181818;stroke-width:0.5;"/><text fill="#000000" font-family="sans-serif" font-size="13" lengthAdjust="spacing" textLength="42" x="258" y="693.1045">Port 80</text></g><!--entity catalogueApi--><g id="elem_catalogueApi"><rect fill="#F1F1F1" height="47.6094" rx="2.5" ry="2.5" style="stroke:#181818;stroke-width:0.5;" width="130" x="476" y="539.6094"/><rect fill="#F1F1F1" height="10" style="stroke:#181818;stroke-width:0.5;" width="15" x="586" y="544.6094"/><rect fill="#F1F1F1" height="2" style="stroke:#181818;stroke-width:0.5;" width="4" x="584" y="546.6094"/><rect fill="#F1F1F1" height="2" style="stroke:#181818;stroke-width:0.5;" width="4" x="584" y="550.6094"/><text fill="#000000" font-family="sans-serif" font-size="14" lengthAdjust="spacing" textLength="90" x="491" y="574.1426">Catalogue API</text></g><!--entity inventaireApi--><g id="elem_inventaireApi"><rect fill="#F1F1F1" height="47.6094" rx="2.5" ry="2.5" style="stroke:#181818;stroke-width:0.5;" width="127" x="477.5" y="719.6094"/><rect fill="#F1F1F1" height="10" style="stroke:#181818;stroke-width:0.5;" width="15" x="584.5" y="724.6094"/><rect fill="#F1F1F1" height="2" style="stroke:#181818;stroke-width:0.5;" width="4" x="582.5" y="726.6094"/><rect fill="#F1F1F1" height="2" style="stroke:#181818;stroke-width:0.5;" width="4" x="582.5" y="730.6094"/><text fill="#000000" font-family="sans-serif" font-size="14" lengthAdjust="spacing" textLength="87" x="492.5" y="754.1426">Inventaire API</text></g><!--entity venteApi--><g id="elem_venteApi"><rect fill="#F1F1F1" height="47.6094" rx="2.5" ry="2.5" style="stroke:#181818;stroke-width:0.5;" width="102" x="490" y="899.6094"/><rect fill="#F1F1F1" height="10" style="stroke:#181818;stroke-width:0.5;" width="15" x="572" y="904.6094"/><rect fill="#F1F1F1" height="2" style="stroke:#181818;stroke-width:0.5;" width="4" x="570" y="906.6094"/><rect fill="#F1F1F1" height="2" style="stroke:#181818;stroke-width:0.5;" width="4" x="570" y="910.6094"/><text fill="#000000" font-family="sans-serif" font-size="14" lengthAdjust="spacing" textLength="62" x="505" y="934.1426">Vente API</text></g><!--entity adminApi--><g id="elem_adminApi"><rect fill="#F1F1F1" height="47.6094" rx="2.5" ry="2.5" style="stroke:#181818;stroke-width:0.5;" width="154" x="464" y="1079.6094"/><rect fill="#F1F1F1" height="10" style="stroke:#181818;stroke-width:0.5;" width="15" x="598" y="1084.6094"/><rect fill="#F1F1F1" height="2" style="stroke:#181818;stroke-width:0.5;" width="4" x="596" y="1086.6094"/><rect fill="#F1F1F1" height="2" style="stroke:#181818;stroke-width:0.5;" width="4" x="596" y="1090.6094"/><text fill="#000000" font-family="sans-serif" font-size="14" lengthAdjust="spacing" textLength="114" x="479" y="1114.1426">Administration API</text></g><!--entity ecommerceApi--><g id="elem_ecommerceApi"><rect fill="#F1F1F1" height="47.6094" rx="2.5" ry="2.5" style="stroke:#181818;stroke-width:0.5;" width="142" x="470" y="1259.6094"/><rect fill="#F1F1F1" height="10" style="stroke:#181818;stroke-width:0.5;" width="15" x="592" y="1264.6094"/><rect fill="#F1F1F1" height="2" style="stroke:#181818;stroke-width:0.5;" width="4" x="590" y="1266.6094"/><rect fill="#F1F1F1" height="2" style="stroke:#181818;stroke-width:0.5;" width="4" x="590" y="1270.6094"/><text fill="#000000" font-family="sans-serif" font-size="14" lengthAdjust="spacing" textLength="102" x="485" y="1294.1426">ECommerce API</text></g><!--entity sagaApi--><g id="elem_sagaApi"><path d="M502,333.1094 C502,323.1094 541,323.1094 541,323.1094 C541,323.1094 580,323.1094 580,333.1094 L580,359.7188 C580,369.7188 541,369.7188 541,369.7188 C541,369.7188 502,369.7188 502,359.7188 L502,333.1094 " fill="#F1F1F1" style="stroke:#181818;stroke-width:0.5;"/><path d="M502,333.1094 C502,343.1094 541,343.1094 541,343.1094 C541,343.1094 580,343.1094 580,333.1094 " fill="none" style="stroke:#181818;stroke-width:0.5;"/><text fill="#000000" font-family="sans-serif" font-size="14" lengthAdjust="spacing" textLength="58" x="512" y="361.6426">Saga API</text></g><!--entity ecommerceDb--><g id="elem_ecommerceDb"><path d="M800,1329.1094 C800,1319.1094 860,1319.1094 860,1319.1094 C860,1319.1094 920,1319.1094 920,1329.1094 L920,1355.7188 C920,1365.7188 860,1365.7188 860,1365.7188 C860,1365.7188 800,1365.7188 800,1355.7188 L800,1329.1094 " fill="#F1F1F1" style="stroke:#181818;stroke-width:0.5;"/><path d="M800,1329.1094 C800,1339.1094 860,1339.1094 860,1339.1094 C860,1339.1094 920,1339.1094 920,1329.1094 " fill="none" style="stroke:#181818;stroke-width:0.5;"/><text fill="#000000" font-family="sans-serif" font-size="14" lengthAdjust="spacing" textLength="100" x="810" y="1357.6426">ECommerce DB</text></g><!--entity administrationDb--><g id="elem_administrationDb"><path d="M794,1149.1094 C794,1139.1094 860,1139.1094 860,1139.1094 C860,1139.1094 926,1139.1094 926,1149.1094 L926,1175.7188 C926,1185.7188 860,1185.7188 860,1185.7188 C860,1185.7188 794,1185.7188 794,1175.7188 L794,1149.1094 " fill="#F1F1F1" style="stroke:#181818;stroke-width:0.5;"/><path d="M794,1149.1094 C794,1159.1094 860,1159.1094 860,1159.1094 C860,1159.1094 926,1159.1094 926,1149.1094 " fill="none" style="stroke:#181818;stroke-width:0.5;"/><text fill="#000000" font-family="sans-serif" font-size="14" lengthAdjust="spacing" textLength="112" x="804" y="1177.6426">Administration DB</text></g><!--entity venteDb--><g id="elem_venteDb"><path d="M820,969.1094 C820,959.1094 860,959.1094 860,959.1094 C860,959.1094 900,959.1094 900,969.1094 L900,995.7188 C900,1005.7188 860,1005.7188 860,1005.7188 C860,1005.7188 820,1005.7188 820,995.7188 L820,969.1094 " fill="#F1F1F1" style="stroke:#181818;stroke-width:0.5;"/><path d="M820,969.1094 C820,979.1094 860,979.1094 860,979.1094 C860,979.1094 900,979.1094 900,969.1094 " fill="none" style="stroke:#181818;stroke-width:0.5;"/><text fill="#000000" font-family="sans-serif" font-size="14" lengthAdjust="spacing" textLength="60" x="830" y="997.6426">Vente DB</text></g><!--entity inventaireDb--><g id="elem_inventaireDb"><path d="M807.5,789.1094 C807.5,779.1094 860,779.1094 860,779.1094 C860,779.1094 912.5,779.1094 912.5,789.1094 L912.5,815.7188 C912.5,825.7188 860,825.7188 860,825.7188 C860,825.7188 807.5,825.7188 807.5,815.7188 L807.5,789.1094 " fill="#F1F1F1" style="stroke:#181818;stroke-width:0.5;"/><path d="M807.5,789.1094 C807.5,799.1094 860,799.1094 860,799.1094 C860,799.1094 912.5,799.1094 912.5,789.1094 " fill="none" style="stroke:#181818;stroke-width:0.5;"/><text fill="#000000" font-family="sans-serif" font-size="14" lengthAdjust="spacing" textLength="85" x="817.5" y="817.6426">Inventaire DB</text></g><!--entity catalogueDb--><g id="elem_catalogueDb"><path d="M806,609.1094 C806,599.1094 860,599.1094 860,599.1094 C860,599.1094 914,599.1094 914,609.1094 L914,635.7188 C914,645.7188 860,645.7188 860,645.7188 C860,645.7188 806,645.7188 806,635.7188 L806,609.1094 " fill="#F1F1F1" style="stroke:#181818;stroke-width:0.5;"/><path d="M806,609.1094 C806,619.1094 860,619.1094 860,619.1094 C860,619.1094 914,619.1094 914,609.1094 " fill="none" style="stroke:#181818;stroke-width:0.5;"/><text fill="#000000" font-family="sans-serif" font-size="14" lengthAdjust="spacing" textLength="88" x="816" y="637.6426">Catalogue DB</text></g><!--entity sagaDb--><g id="elem_sagaDb"><path d="M822,286.1094 C822,276.1094 860,276.1094 860,276.1094 C860,276.1094 898,276.1094 898,286.1094 L898,312.7188 C898,322.7188 860,322.7188 860,322.7188 C860,322.7188 822,322.7188 822,312.7188 L822,286.1094 " fill="#F1F1F1" style="stroke:#181818;stroke-width:0.5;"/><path d="M822,286.1094 C822,296.1094 860,296.1094 860,296.1094 C860,296.1094 898,296.1094 898,286.1094 " fill="none" style="stroke:#181818;stroke-width:0.5;"/><text fill="#000000" font-family="sans-serif" font-size="14" lengthAdjust="spacing" textLength="56" x="832" y="314.6426">Saga DB</text></g><!--entity Prometheus--><g id="elem_Prometheus"><rect fill="#F1F1F1" height="47.6094" rx="2.5" ry="2.5" style="stroke:#181818;stroke-width:0.5;" width="116" x="225.5" y="146.6094"/><rect fill="#F1F1F1" height="10" style="stroke:#181818;stroke-width:0.5;" width="15" x="321.5" y="151.6094"/><rect fill="#F1F1F1" height="2" style="stroke:#181818;stroke-width:0.5;" width="4" x="319.5" y="153.6094"/><rect fill="#F1F1F1" height="2" style="stroke:#181818;stroke-width:0.5;" width="4" x="319.5" y="157.6094"/><text fill="#000000" font-family="sans-serif" font-size="14" lengthAdjust="spacing" textLength="76" x="240.5" y="181.1426">Prometheus</text></g><g id="elem_GMN34"><path d="M503.5,168.6094 L503.5,177.6094 L341.61,181.6094 L503.5,185.6094 L503.5,194.9609 A0,0 0 0 0 503.5,194.9609 L578.5,194.9609 A0,0 0 0 0 578.5,194.9609 L578.5,178.6094 L568.5,168.6094 L503.5,168.6094 A0,0 0 0 0 503.5,168.6094 " fill="#FEFFDD" style="stroke:#181818;stroke-width:0.5;"/><path d="M568.5,168.6094 L568.5,178.6094 L578.5,178.6094 L568.5,168.6094 " fill="#FEFFDD" style="stroke:#181818;stroke-width:0.5;"/><text fill="#000000" font-family="sans-serif" font-size="13" lengthAdjust="spacing" textLength="54" x="509.5" y="187.1045">port 9090</text></g><!--entity Grafana--><g id="elem_Grafana"><rect fill="#F1F1F1" height="47.6094" rx="2.5" ry="2.5" style="stroke:#181818;stroke-width:0.5;" width="92" x="46.5" y="116.6094"/><rect fill="#F1F1F1" height="10" style="stroke:#181818;stroke-width:0.5;" width="15" x="118.5" y="121.6094"/><rect fill="#F1F1F1" height="2" style="stroke:#181818;stroke-width:0.5;" width="4" x="116.5" y="123.6094"/><rect fill="#F1F1F1" height="2" style="stroke:#181818;stroke-width:0.5;" width="4" x="116.5" y="127.6094"/><text fill="#000000" font-family="sans-serif" font-size="14" lengthAdjust="spacing" textLength="52" x="61.5" y="151.1426">Grafana</text></g><g id="elem_GMN38"><path d="M246,85.6094 L246,111.9609 L321,111.9609 L321,95.6094 L311,85.6094 L246,85.6094 " fill="#FEFFDD" style="stroke:#181818;stroke-width:0.5;"/><path d="M311,85.6094 L311,95.6094 L321,95.6094 L311,85.6094 " fill="#FEFFDD" style="stroke:#181818;stroke-width:1.0;"/><text fill="#000000" font-family="sans-serif" font-size="13" lengthAdjust="spacing" textLength="54" x="252" y="104.1045">port 3000</text></g><!--entity nodeExporter--><g id="elem_nodeExporter"><rect fill="#F1F1F1" height="47.6094" rx="2.5" ry="2.5" style="stroke:#181818;stroke-width:0.5;" width="130" x="476" y="85.6094"/><rect fill="#F1F1F1" height="10" style="stroke:#181818;stroke-width:0.5;" width="15" x="586" y="90.6094"/><rect fill="#F1F1F1" height="2" style="stroke:#181818;stroke-width:0.5;" width="4" x="584" y="92.6094"/><rect fill="#F1F1F1" height="2" style="stroke:#181818;stroke-width:0.5;" width="4" x="584" y="96.6094"/><text fill="#000000" font-family="sans-serif" font-size="14" lengthAdjust="spacing" textLength="90" x="491" y="120.1426">Node Exporter</text></g><g id="elem_GMN42"><path d="M822.5,96.6094 L822.5,105.6094 L606.32,109.6094 L822.5,113.6094 L822.5,122.9609 A0,0 0 0 0 822.5,122.9609 L897.5,122.9609 A0,0 0 0 0 897.5,122.9609 L897.5,106.6094 L887.5,96.6094 L822.5,96.6094 A0,0 0 0 0 822.5,96.6094 " fill="#FEFFDD" style="stroke:#181818;stroke-width:0.5;"/><path d="M887.5,96.6094 L887.5,106.6094 L897.5,106.6094 L887.5,96.6094 " fill="#FEFFDD" style="stroke:#181818;stroke-width:0.5;"/><text fill="#000000" font-family="sans-serif" font-size="13" lengthAdjust="spacing" textLength="54" x="828.5" y="115.1045">port 9100</text></g><!--entity kong--><g id="elem_kong"><polygon fill="#F1F1F1" points="205,788.6094,215,778.6094,362,778.6094,362,816.2188,352,826.2188,205,826.2188,205,788.6094" style="stroke:#181818;stroke-width:0.5;"/><line style="stroke:#181818;stroke-width:0.5;" x1="352" x2="362" y1="788.6094" y2="778.6094"/><line style="stroke:#181818;stroke-width:0.5;" x1="205" x2="352" y1="788.6094" y2="788.6094"/><line style="stroke:#181818;stroke-width:0.5;" x1="352" x2="352" y1="788.6094" y2="826.2188"/><text fill="#000000" font-family="sans-serif" font-size="14" lengthAdjust="spacing" textLength="117" x="220" y="813.1426">Kong API Gateway</text></g><!--entity kongDb--><g id="elem_kongDb"><path d="M503,429.1094 C503,419.1094 541,419.1094 541,419.1094 C541,419.1094 579,419.1094 579,429.1094 L579,455.7188 C579,465.7188 541,465.7188 541,465.7188 C541,465.7188 503,465.7188 503,455.7188 L503,429.1094 " fill="#F1F1F1" style="stroke:#181818;stroke-width:0.5;"/><path d="M503,429.1094 C503,439.1094 541,439.1094 541,439.1094 C541,439.1094 579,439.1094 579,429.1094 " fill="none" style="stroke:#181818;stroke-width:0.5;"/><text fill="#000000" font-family="sans-serif" font-size="14" lengthAdjust="spacing" textLength="56" x="513" y="457.6426">Kong DB</text></g><!--link Grafana to GMN38--><g id="link_Grafana_GMN38"><path d="M138.86,122.2794 C195.53,122.2794 284,122.2794 284,122.2794 C284,122.2794 284,117.2494 284,111.8294 " fill="none" id="Grafana-GMN38" style="stroke:#181818;stroke-width:1.0;stroke-dasharray:7.0,7.0;"/></g><!--link kong to catalogueMcService--><g id="link_kong_catalogueMcService"><path codeLine="91" d="M357,778.3294 C357,729.1994 357,622.6094 357,622.6094 C357,622.6094 400.17,622.6094 444.6887,622.6094 C446.08,622.6094 447.4725,622.6094 448.8651,622.6094 C449.5613,622.6094 450.2576,622.6094 450.9538,622.6094 C451.3019,622.6094 445.6499,622.6094 445.9979,622.6094 " fill="none" id="kong-to-catalogueMcService" style="stroke:#181818;stroke-width:1.0;"/><polygon fill="#181818" points="451.9979,622.6094,442.9979,618.6094,446.9979,622.6094,442.9979,626.6094,451.9979,622.6094" style="stroke:#181818;stroke-width:1.0;"/></g><!--link kong to inventaireMcService--><g id="link_kong_inventaireMcService"><path codeLine="92" d="M362.16,802.6094 C380.2025,802.6094 399.8006,802.6094 419.1886,802.6094 C428.8826,802.6094 438.524,802.6094 447.8922,802.6094 C449.0632,802.6094 450.23,802.6094 451.392,802.6094 C451.9731,802.6094 446.5529,802.6094 447.1315,802.6094 " fill="none" id="kong-to-inventaireMcService" style="stroke:#181818;stroke-width:1.0;"/><polygon fill="#181818" points="453.1315,802.6094,444.1315,798.6094,448.1315,802.6094,444.1315,806.6094,453.1315,802.6094" style="stroke:#181818;stroke-width:1.0;"/></g><!--link kong to venteMcService--><g id="link_kong_venteMcService"><path codeLine="93" d="M323,826.8894 C323,876.0194 323,982.6094 323,982.6094 C323,982.6094 374.1475,982.6094 426.8925,982.6094 C440.0788,982.6094 447.3648,982.6094 459.9766,982.6094 " fill="none" id="kong-to-venteMcService" style="stroke:#181818;stroke-width:1.0;"/><polygon fill="#181818" points="465.9766,982.6094,456.9766,978.6094,460.9766,982.6094,456.9766,986.6094,465.9766,982.6094" style="stroke:#181818;stroke-width:1.0;"/></g><!--link kong to administrationMcService--><g id="link_kong_administrationMcService"><path codeLine="94" d="M284,826.7894 C284,907.5094 284,1162.6094 284,1162.6094 C284,1162.6094 345.2725,1162.6094 407.9813,1162.6094 C415.8198,1162.6094 423.6809,1162.6094 431.4475,1162.6094 C433.3891,1162.6094 435.3249,1162.6094 437.2529,1162.6094 C437.7349,1162.6094 432.2164,1162.6094 432.6975,1162.6094 " fill="none" id="kong-to-administrationMcService" style="stroke:#181818;stroke-width:1.0;"/><polygon fill="#181818" points="438.6975,1162.6094,429.6975,1158.6094,433.6975,1162.6094,429.6975,1166.6094,438.6975,1162.6094" style="stroke:#181818;stroke-width:1.0;"/></g><!--link kong to ecommerceMcService--><g id="link_kong_ecommerceMcService"><path codeLine="95" d="M245,826.8594 C245,931.9394 245,1342.6094 245,1342.6094 C245,1342.6094 315.5725,1342.6094 387.7988,1342.6094 C405.8553,1342.6094 424.0152,1342.6094 441.2017,1342.6094 C442.2758,1342.6094 437.3462,1342.6094 438.4124,1342.6094 " fill="none" id="kong-to-ecommerceMcService" style="stroke:#181818;stroke-width:1.0;"/><polygon fill="#181818" points="444.4124,1342.6094,435.4124,1338.6094,439.4124,1342.6094,435.4124,1346.6094,444.4124,1342.6094" style="stroke:#181818;stroke-width:1.0;"/></g><!--link kong to sagaApi--><g id="link_kong_sagaApi"><path codeLine="96" d="M347,778.4194 C347,684.1394 347,346.6094 347,346.6094 C347,346.6094 439.05,346.6094 495.74,346.6094 " fill="none" id="kong-to-sagaApi" style="stroke:#181818;stroke-width:1.0;"/><polygon fill="#181818" points="501.74,346.6094,492.74,342.6094,496.74,346.6094,492.74,350.6094,501.74,346.6094" style="stroke:#181818;stroke-width:1.0;"/></g><!--link clientApp to kong--><g id="link_clientApp_kong"><path codeLine="99" d="M216,754.6934 C216,755.3903 216,756.1213 216,756.8819 C216,762.9669 216,764.9494 216,772.5394 " fill="none" id="clientApp-to-kong" style="stroke:#181818;stroke-width:1.0;"/><polygon fill="#181818" points="216,778.5394,220,769.5394,216,773.5394,212,769.5394,216,778.5394" style="stroke:#181818;stroke-width:1.0;"/><text fill="#000000" font-family="sans-serif" font-size="13" lengthAdjust="spacing" textLength="91" x="78.61" y="761.1045">HTTP Requests</text></g><!--link catalogueMcService to catalogueDb--><g id="link_catalogueMcService_catalogueDb"><path codeLine="101" d="M630.8338,622.6094 C631.2387,622.6094 631.6444,622.6094 632.0508,622.6094 C632.8636,622.6094 633.6794,622.6094 634.4979,622.6094 C637.7722,622.6094 641.0915,622.6094 644.4488,622.6094 C698.165,622.6094 755.6,622.6094 799.69,622.6094 " fill="none" id="catalogueMcService-to-catalogueDb" style="stroke:#181818;stroke-width:1.0;"/><polygon fill="#181818" points="805.69,622.6094,796.69,618.6094,800.69,622.6094,796.69,626.6094,805.69,622.6094" style="stroke:#181818;stroke-width:1.0;"/></g><!--link inventaireMcService to inventaireDb--><g id="link_inventaireMcService_inventaireDb"><path codeLine="102" d="M629.3408,802.6094 C629.7465,802.6094 630.1531,802.6094 630.5604,802.6094 C632.1895,802.6094 633.8308,802.6094 635.4834,802.6094 C638.7885,802.6094 642.1385,802.6094 645.5263,802.6094 C699.73,802.6094 757.585,802.6094 801.44,802.6094 " fill="none" id="inventaireMcService-to-inventaireDb" style="stroke:#181818;stroke-width:1.0;"/><polygon fill="#181818" points="807.44,802.6094,798.44,798.6094,802.44,802.6094,798.44,806.6094,807.44,802.6094" style="stroke:#181818;stroke-width:1.0;"/></g><!--link venteMcService to venteDb--><g id="link_venteMcService_venteDb"><path codeLine="103" d="M616.0837,982.6094 C616.4895,982.6094 616.8963,982.6094 617.3041,982.6094 C618.9353,982.6094 620.5826,982.6094 622.245,982.6094 C625.5699,982.6094 628.955,982.6094 632.3921,982.6094 C639.2663,982.6094 646.3483,982.6094 653.5713,982.6094 C711.355,982.6094 772.16,982.6094 813.75,982.6094 " fill="none" id="venteMcService-to-venteDb" style="stroke:#181818;stroke-width:1.0;"/><polygon fill="#181818" points="819.75,982.6094,810.75,978.6094,814.75,982.6094,810.75,986.6094,819.75,982.6094" style="stroke:#181818;stroke-width:1.0;"/></g><!--link administrationMcService to administrationDb--><g id="link_administrationMcService_administrationDb"><path codeLine="104" d="M642.3889,1162.6094 C643.9883,1162.6094 645.5966,1162.6094 647.2133,1162.6094 C650.4465,1162.6094 653.7128,1162.6094 657.0058,1162.6094 C663.5919,1162.6094 670.2852,1162.6094 677.0357,1162.6094 C690.5368,1162.6094 704.2673,1162.6094 717.8286,1162.6094 C744.9513,1162.6094 765.3975,1162.6094 787.98,1162.6094 " fill="none" id="administrationMcService-to-administrationDb" style="stroke:#181818;stroke-width:1.0;"/><polygon fill="#181818" points="793.98,1162.6094,784.98,1158.6094,788.98,1162.6094,784.98,1166.6094,793.98,1162.6094" style="stroke:#181818;stroke-width:1.0;"/></g><!--link ecommerceMcService to ecommerceDb--><g id="link_ecommerceMcService_ecommerceDb"><path codeLine="105" d="M636.1621,1342.6094 C637.7716,1342.6094 639.3916,1342.6094 641.0213,1342.6094 C693.17,1342.6094 749.22,1342.6094 793.93,1342.6094 " fill="none" id="ecommerceMcService-to-ecommerceDb" style="stroke:#181818;stroke-width:1.0;"/><polygon fill="#181818" points="799.93,1342.6094,790.93,1338.6094,794.93,1342.6094,790.93,1346.6094,799.93,1342.6094" style="stroke:#181818;stroke-width:1.0;"/></g><!--link sagaService to sagaDb--><g id="link_sagaService_sagaDb"><path codeLine="106" d="M685.8549,287.6094 C686.7996,287.6094 687.7451,287.6094 688.6911,287.6094 C692.4751,287.6094 696.268,287.6094 700.0612,287.6094 C715.2341,287.6094 730.4123,287.6094 745.0466,287.6094 C774.315,287.6094 795.4075,287.6094 815.93,287.6094 " fill="none" id="sagaService-to-sagaDb" style="stroke:#181818;stroke-width:1.0;"/><polygon fill="#181818" points="821.93,287.6094,812.93,283.6094,816.93,287.6094,812.93,291.6094,821.93,287.6094" style="stroke:#181818;stroke-width:1.0;"/></g><!--link Prometheus to sagaService--><g id="link_Prometheus_sagaService"><path codeLine="108" d="M329,194.8494 C329,229.1194 329,287.6094 329,287.6094 C329,287.6094 341.435,287.6094 360.2817,287.6094 C369.7051,287.6094 380.7314,287.6094 392.6077,287.6094 C394.0922,287.6094 389.59,287.6094 391.0997,287.6094 " fill="none" id="Prometheus-to-sagaService" style="stroke:#181818;stroke-width:1.0;"/><polygon fill="#181818" points="397.0997,287.6094,388.0997,283.6094,392.0997,287.6094,388.0997,291.6094,397.0997,287.6094" style="stroke:#181818;stroke-width:1.0;"/><text fill="#000000" font-family="sans-serif" font-size="13" lengthAdjust="spacing" textLength="39" x="348.32" y="302.1045">scrape</text></g><!--link Prometheus to nodeExporter--><g id="link_Prometheus_nodeExporter"><path codeLine="109" d="M332,146.2894 C332,136.6994 332,127.9394 332,127.9394 C332,127.9394 408.41,127.9394 469.73,127.9394 " fill="none" id="Prometheus-to-nodeExporter" style="stroke:#181818;stroke-width:1.0;"/><polygon fill="#181818" points="475.73,127.9394,466.73,123.9394,470.73,127.9394,466.73,131.9394,475.73,127.9394" style="stroke:#181818;stroke-width:1.0;"/><text fill="#000000" font-family="sans-serif" font-size="13" lengthAdjust="spacing" textLength="39" x="354.69" y="142.4345">scrape</text></g><!--link Grafana to Prometheus--><g id="link_Grafana_Prometheus"><path codeLine="110" d="M138.74,155.6094 C164.79,155.6094 191.58,155.6094 219.37,155.6094 " fill="none" id="Grafana-to-Prometheus" style="stroke:#181818;stroke-width:1.0;"/><polygon fill="#181818" points="225.37,155.6094,216.37,151.6094,220.37,155.6094,216.37,159.6094,225.37,155.6094" style="stroke:#181818;stroke-width:1.0;"/></g><!--link kong to kongDb--><g id="link_kong_kongDb"><path codeLine="112" d="M352,778.4294 C352,697.7094 352,442.6094 352,442.6094 C352,442.6094 441.53,442.6094 496.75,442.6094 " fill="none" id="kong-to-kongDb" style="stroke:#181818;stroke-width:1.0;"/><polygon fill="#181818" points="502.75,442.6094,493.75,438.6094,497.75,442.6094,493.75,446.6094,502.75,442.6094" style="stroke:#181818;stroke-width:1.0;"/></g><!--SRC=[bLRDRjim3BxhAGXVkXqoPDXbxM50cWHTCRGBrg8xApQR27KaLrBQ1aCVO8_Iv-YBZP9joKhY3BdPvFSZIZHbAso9SBT6c2qtHZpImm16EbyAYxbTQuJtlq-gNB-_8UDbgPvNuaN81JCFGbPSynMKGgBTL0XAswNg9CoI5-gPm73FIuEin7iBLe4MYwM5GcWo44eoTWA3mG36fK1f3N1Pm5HQlO6P4Yv0IIPLWP3zK2Gscbt21RVup3SPS0CF54mrO5HLddK2DI_tuG6lAi-eNnte3q40ShMgb7J4xCEdw-aj_COvNDsDFsQKVcNiloA9H5n3YXkt489BPR7U1te1AbHR-3gaPwJYNPAzjYLTYLmhW_f9vDZTYvnRNgh56cb5edPg8rVvJOtVMLgBS9kOSaQLOA5K8Py8p-c4WdWCzQfV1aYGZwn4tmMZj7_hLRrpsI3eiOaMBrP22cCrTyqKHDDmh_eeWGKRpqvia4Whr7bSTeZqYa_73IBe1awYFL7v0seOAxTLafxEe5B6BZIQnzBp35_mhWb0GGStvuRODvGB1Wvuf7QihEcoGJ7VCOcbJCvJrcH-ZDdMQHrmt3gPnZRb7-TTTzq1oxhL6YUFFiwWyzaSSEby9erLv1td5qV00RlupJTkWNMScUkiGpw-3HiBXwtLwndsS-w8V2vAOJUT6TQDlxzbsz_FJAiLsYMkJGQxGxDoG_DqU9gCpOH_eVazbpphuNuP3lkvrsw1qnS7HEsBSajk0tsh-JpSFyJznJKvzwN7BMkYuHQZBMllCILbVJlM8zzbwU7RdXaVStj6T4ocGpR6U-Pa1EoEkPXhfmrZyJPqSGyuW- -tjpFuXVHFOQmXpExzb9H4vU-xPTBI2BHrNuJgADKtzNSh9V2U0PuKJ93kt6qBTgSKEpE4MzWPc5pp2hSntVQ9eAP5FI8IMDpYkY_-0G00]--></g></svg>