<?xml version="1.0" encoding="us-ascii" standalone="no"?><svg xmlns="http://www.w3.org/2000/svg" xmlns:xlink="http://www.w3.org/1999/xlink" contentStyleType="text/css" height="1210px" preserveAspectRatio="none" style="width:936px;height:1210px;background:#FFFFFF;" version="1.1" viewBox="0 0 936 1210" width="936px" zoomAndPan="magnify"><defs/><g><text fill="#000000" font-family="sans-serif" font-size="14" font-weight="bold" lengthAdjust="spacing" textLength="257" x="332.5" y="24.5332">Vue Physique - Architecture &#201;volu&#233;e</text><!--cluster clientApp--><g id="cluster_clientApp"><polygon fill="none" points="16,525.6094,26,515.6094,339,515.6094,339,645.6094,329,655.6094,16,655.6094,16,525.6094" style="stroke:#181818;stroke-width:1.0;"/><line style="stroke:#181818;stroke-width:1.0;" x1="329" x2="339" y1="525.6094" y2="515.6094"/><line style="stroke:#181818;stroke-width:1.0;" x1="16" x2="329" y1="525.6094" y2="525.6094"/><line style="stroke:#181818;stroke-width:1.0;" x1="329" x2="329" y1="525.6094" y2="655.6094"/><text fill="#000000" font-family="sans-serif" font-size="14" font-weight="bold" lengthAdjust="spacing" textLength="70" x="138.5" y="543.1426">client-app</text></g><!--cluster catalogueMcService--><g id="cluster_catalogueMcService"><polygon fill="none" points="410,252.6094,420,242.6094,588,242.6094,588,372.6094,578,382.6094,410,382.6094,410,252.6094" style="stroke:#181818;stroke-width:1.0;"/><line style="stroke:#181818;stroke-width:1.0;" x1="578" x2="588" y1="252.6094" y2="242.6094"/><line style="stroke:#181818;stroke-width:1.0;" x1="410" x2="578" y1="252.6094" y2="252.6094"/><line style="stroke:#181818;stroke-width:1.0;" x1="578" x2="578" y1="252.6094" y2="382.6094"/><text fill="#000000" font-family="sans-serif" font-size="14" font-weight="bold" lengthAdjust="spacing" textLength="95" x="447.5" y="270.1426">catalogue-api</text></g><!--cluster inventaireMcService--><g id="cluster_inventaireMcService"><polygon fill="none" points="411.5,491.6094,421.5,481.6094,586.5,481.6094,586.5,611.6094,576.5,621.6094,411.5,621.6094,411.5,491.6094" style="stroke:#181818;stroke-width:1.0;"/><line style="stroke:#181818;stroke-width:1.0;" x1="576.5" x2="586.5" y1="491.6094" y2="481.6094"/><line style="stroke:#181818;stroke-width:1.0;" x1="411.5" x2="576.5" y1="491.6094" y2="491.6094"/><line style="stroke:#181818;stroke-width:1.0;" x1="576.5" x2="576.5" y1="491.6094" y2="621.6094"/><text fill="#000000" font-family="sans-serif" font-size="14" font-weight="bold" lengthAdjust="spacing" textLength="98" x="446" y="509.1426">inventaire-api</text></g><!--cluster venteMcService--><g id="cluster_venteMcService"><polygon fill="none" points="424,671.6094,434,661.6094,574,661.6094,574,791.6094,564,801.6094,424,801.6094,424,671.6094" style="stroke:#181818;stroke-width:1.0;"/><line style="stroke:#181818;stroke-width:1.0;" x1="564" x2="574" y1="671.6094" y2="661.6094"/><line style="stroke:#181818;stroke-width:1.0;" x1="424" x2="564" y1="671.6094" y2="671.6094"/><line style="stroke:#181818;stroke-width:1.0;" x1="564" x2="564" y1="671.6094" y2="801.6094"/><text fill="#000000" font-family="sans-serif" font-size="14" font-weight="bold" lengthAdjust="spacing" textLength="67" x="461.5" y="689.1426">vente-api</text></g><!--cluster administrationMcService--><g id="cluster_administrationMcService"><polygon fill="none" points="398,851.6094,408,841.6094,600,841.6094,600,971.6094,590,981.6094,398,981.6094,398,851.6094" style="stroke:#181818;stroke-width:1.0;"/><line style="stroke:#181818;stroke-width:1.0;" x1="590" x2="600" y1="851.6094" y2="841.6094"/><line style="stroke:#181818;stroke-width:1.0;" x1="398" x2="590" y1="851.6094" y2="851.6094"/><line style="stroke:#181818;stroke-width:1.0;" x1="590" x2="590" y1="851.6094" y2="981.6094"/><text fill="#000000" font-family="sans-serif" font-size="14" font-weight="bold" lengthAdjust="spacing" textLength="126" x="432" y="869.1426">administration-api</text></g><!--cluster ecommerceMcService--><g id="cluster_ecommerceMcService"><polygon fill="none" points="404,1031.6094,414,1021.6094,594,1021.6094,594,1151.6094,584,1161.6094,404,1161.6094,404,1031.6094" style="stroke:#181818;stroke-width:1.0;"/><line style="stroke:#181818;stroke-width:1.0;" x1="584" x2="594" y1="1031.6094" y2="1021.6094"/><line style="stroke:#181818;stroke-width:1.0;" x1="404" x2="584" y1="1031.6094" y2="1031.6094"/><line style="stroke:#181818;stroke-width:1.0;" x1="584" x2="584" y1="1031.6094" y2="1161.6094"/><text fill="#000000" font-family="sans-serif" font-size="14" font-weight="bold" lengthAdjust="spacing" textLength="108" x="441" y="1049.1426">ecommerce-api</text></g><!--cluster ecommerce-service-db--><g id="cluster_ecommerce-service-db"><polygon fill="none" points="632,1098.6094,642,1088.6094,919,1088.6094,919,1183.6094,909,1193.6094,632,1193.6094,632,1098.6094" style="stroke:#181818;stroke-width:1.0;"/><line style="stroke:#181818;stroke-width:1.0;" x1="909" x2="919" y1="1098.6094" y2="1088.6094"/><line style="stroke:#181818;stroke-width:1.0;" x1="632" x2="909" y1="1098.6094" y2="1098.6094"/><line style="stroke:#181818;stroke-width:1.0;" x1="909" x2="909" y1="1098.6094" y2="1193.6094"/><text fill="#000000" font-family="sans-serif" font-size="14" font-weight="bold" lengthAdjust="spacing" textLength="211" x="666" y="1116.1426">Docker Container : postgresql</text></g><!--cluster administration-service-db--><g id="cluster_administration-service-db"><polygon fill="none" points="632,918.6094,642,908.6094,919,908.6094,919,1003.6094,909,1013.6094,632,1013.6094,632,918.6094" style="stroke:#181818;stroke-width:1.0;"/><line style="stroke:#181818;stroke-width:1.0;" x1="909" x2="919" y1="918.6094" y2="908.6094"/><line style="stroke:#181818;stroke-width:1.0;" x1="632" x2="909" y1="918.6094" y2="918.6094"/><line style="stroke:#181818;stroke-width:1.0;" x1="909" x2="909" y1="918.6094" y2="1013.6094"/><text fill="#000000" font-family="sans-serif" font-size="14" font-weight="bold" lengthAdjust="spacing" textLength="211" x="666" y="936.1426">Docker Container : postgresql</text></g><!--cluster vente-service-db--><g id="cluster_vente-service-db"><polygon fill="none" points="632,738.6094,642,728.6094,919,728.6094,919,823.6094,909,833.6094,632,833.6094,632,738.6094" style="stroke:#181818;stroke-width:1.0;"/><line style="stroke:#181818;stroke-width:1.0;" x1="909" x2="919" y1="738.6094" y2="728.6094"/><line style="stroke:#181818;stroke-width:1.0;" x1="632" x2="909" y1="738.6094" y2="738.6094"/><line style="stroke:#181818;stroke-width:1.0;" x1="909" x2="909" y1="738.6094" y2="833.6094"/><text fill="#000000" font-family="sans-serif" font-size="14" font-weight="bold" lengthAdjust="spacing" textLength="211" x="666" y="756.1426">Docker Container : postgresql</text></g><!--cluster inventaire-service-db--><g id="cluster_inventaire-service-db"><polygon fill="none" points="631.5,558.6094,641.5,548.6094,918.5,548.6094,918.5,643.6094,908.5,653.6094,631.5,653.6094,631.5,558.6094" style="stroke:#181818;stroke-width:1.0;"/><line style="stroke:#181818;stroke-width:1.0;" x1="908.5" x2="918.5" y1="558.6094" y2="548.6094"/><line style="stroke:#181818;stroke-width:1.0;" x1="631.5" x2="908.5" y1="558.6094" y2="558.6094"/><line style="stroke:#181818;stroke-width:1.0;" x1="908.5" x2="908.5" y1="558.6094" y2="653.6094"/><text fill="#000000" font-family="sans-serif" font-size="14" font-weight="bold" lengthAdjust="spacing" textLength="211" x="665.5" y="576.1426">Docker Container : postgresql</text></g><!--cluster catalogue-service-db--><g id="cluster_catalogue-service-db"><polygon fill="none" points="632,319.6094,642,309.6094,919,309.6094,919,404.6094,909,414.6094,632,414.6094,632,319.6094" style="stroke:#181818;stroke-width:1.0;"/><line style="stroke:#181818;stroke-width:1.0;" x1="909" x2="919" y1="319.6094" y2="309.6094"/><line style="stroke:#181818;stroke-width:1.0;" x1="632" x2="909" y1="319.6094" y2="319.6094"/><line style="stroke:#181818;stroke-width:1.0;" x1="909" x2="909" y1="319.6094" y2="414.6094"/><text fill="#000000" font-family="sans-serif" font-size="14" font-weight="bold" lengthAdjust="spacing" textLength="211" x="666" y="337.1426">Docker Container : postgresql</text></g><!--cluster Observabilit?--><g id="cluster_Observabilit&#233;"><polygon fill="none" points="30.5,54.6094,40.5,44.6094,828.5,44.6094,828.5,200.6094,818.5,210.6094,30.5,210.6094,30.5,54.6094" style="stroke:#181818;stroke-width:1.0;"/><line style="stroke:#181818;stroke-width:1.0;" x1="818.5" x2="828.5" y1="54.6094" y2="44.6094"/><line style="stroke:#181818;stroke-width:1.0;" x1="30.5" x2="818.5" y1="54.6094" y2="54.6094"/><line style="stroke:#181818;stroke-width:1.0;" x1="818.5" x2="818.5" y1="54.6094" y2="210.6094"/><text fill="#000000" font-family="sans-serif" font-size="14" font-weight="bold" lengthAdjust="spacing" textLength="95" x="378" y="72.1426">Observabilit&#233;</text></g><!--entity clientAppComponent--><g id="elem_clientAppComponent"><rect fill="#F1F1F1" height="47.6094" rx="2.5" ry="2.5" style="stroke:#181818;stroke-width:0.5;" width="105" x="40" y="564.6094"/><rect fill="#F1F1F1" height="10" style="stroke:#181818;stroke-width:0.5;" width="15" x="125" y="569.6094"/><rect fill="#F1F1F1" height="2" style="stroke:#181818;stroke-width:0.5;" width="4" x="123" y="571.6094"/><rect fill="#F1F1F1" height="2" style="stroke:#181818;stroke-width:0.5;" width="4" x="123" y="575.6094"/><text fill="#000000" font-family="sans-serif" font-size="14" lengthAdjust="spacing" textLength="65" x="55" y="599.1426">Client App</text></g><g id="elem_GMN5"><path d="M252,575.6094 L252,584.6094 L145.2,588.6094 L252,592.6094 L252,601.9609 A0,0 0 0 0 252,601.9609 L315,601.9609 A0,0 0 0 0 315,601.9609 L315,585.6094 L305,575.6094 L252,575.6094 A0,0 0 0 0 252,575.6094 " fill="#FEFFDD" style="stroke:#181818;stroke-width:0.5;"/><path d="M305,575.6094 L305,585.6094 L315,585.6094 L305,575.6094 " fill="#FEFFDD" style="stroke:#181818;stroke-width:0.5;"/><text fill="#000000" font-family="sans-serif" font-size="13" lengthAdjust="spacing" textLength="42" x="258" y="594.1045">Port 80</text></g><!--entity catalogueApi--><g id="elem_catalogueApi"><rect fill="#F1F1F1" height="47.6094" rx="2.5" ry="2.5" style="stroke:#181818;stroke-width:0.5;" width="130" x="434" y="291.6094"/><rect fill="#F1F1F1" height="10" style="stroke:#181818;stroke-width:0.5;" width="15" x="544" y="296.6094"/><rect fill="#F1F1F1" height="2" style="stroke:#181818;stroke-width:0.5;" width="4" x="542" y="298.6094"/><rect fill="#F1F1F1" height="2" style="stroke:#181818;stroke-width:0.5;" width="4" x="542" y="302.6094"/><text fill="#000000" font-family="sans-serif" font-size="14" lengthAdjust="spacing" textLength="90" x="449" y="326.1426">Catalogue API</text></g><!--entity inventaireApi--><g id="elem_inventaireApi"><rect fill="#F1F1F1" height="47.6094" rx="2.5" ry="2.5" style="stroke:#181818;stroke-width:0.5;" width="127" x="435.5" y="530.6094"/><rect fill="#F1F1F1" height="10" style="stroke:#181818;stroke-width:0.5;" width="15" x="542.5" y="535.6094"/><rect fill="#F1F1F1" height="2" style="stroke:#181818;stroke-width:0.5;" width="4" x="540.5" y="537.6094"/><rect fill="#F1F1F1" height="2" style="stroke:#181818;stroke-width:0.5;" width="4" x="540.5" y="541.6094"/><text fill="#000000" font-family="sans-serif" font-size="14" lengthAdjust="spacing" textLength="87" x="450.5" y="565.1426">Inventaire API</text></g><!--entity venteApi--><g id="elem_venteApi"><rect fill="#F1F1F1" height="47.6094" rx="2.5" ry="2.5" style="stroke:#181818;stroke-width:0.5;" width="102" x="448" y="710.6094"/><rect fill="#F1F1F1" height="10" style="stroke:#181818;stroke-width:0.5;" width="15" x="530" y="715.6094"/><rect fill="#F1F1F1" height="2" style="stroke:#181818;stroke-width:0.5;" width="4" x="528" y="717.6094"/><rect fill="#F1F1F1" height="2" style="stroke:#181818;stroke-width:0.5;" width="4" x="528" y="721.6094"/><text fill="#000000" font-family="sans-serif" font-size="14" lengthAdjust="spacing" textLength="62" x="463" y="745.1426">Vente API</text></g><!--entity adminApi--><g id="elem_adminApi"><rect fill="#F1F1F1" height="47.6094" rx="2.5" ry="2.5" style="stroke:#181818;stroke-width:0.5;" width="154" x="422" y="890.6094"/><rect fill="#F1F1F1" height="10" style="stroke:#181818;stroke-width:0.5;" width="15" x="556" y="895.6094"/><rect fill="#F1F1F1" height="2" style="stroke:#181818;stroke-width:0.5;" width="4" x="554" y="897.6094"/><rect fill="#F1F1F1" height="2" style="stroke:#181818;stroke-width:0.5;" width="4" x="554" y="901.6094"/><text fill="#000000" font-family="sans-serif" font-size="14" lengthAdjust="spacing" textLength="114" x="437" y="925.1426">Administration API</text></g><!--entity ecommerceApi--><g id="elem_ecommerceApi"><rect fill="#F1F1F1" height="47.6094" rx="2.5" ry="2.5" style="stroke:#181818;stroke-width:0.5;" width="142" x="428" y="1070.6094"/><rect fill="#F1F1F1" height="10" style="stroke:#181818;stroke-width:0.5;" width="15" x="550" y="1075.6094"/><rect fill="#F1F1F1" height="2" style="stroke:#181818;stroke-width:0.5;" width="4" x="548" y="1077.6094"/><rect fill="#F1F1F1" height="2" style="stroke:#181818;stroke-width:0.5;" width="4" x="548" y="1081.6094"/><text fill="#000000" font-family="sans-serif" font-size="14" lengthAdjust="spacing" textLength="102" x="443" y="1105.1426">ECommerce API</text></g><!--entity ecommerceDb--><g id="elem_ecommerceDb"><path d="M715,1140.1094 C715,1130.1094 775,1130.1094 775,1130.1094 C775,1130.1094 835,1130.1094 835,1140.1094 L835,1166.7188 C835,1176.7188 775,1176.7188 775,1176.7188 C775,1176.7188 715,1176.7188 715,1166.7188 L715,1140.1094 " fill="#F1F1F1" style="stroke:#181818;stroke-width:0.5;"/><path d="M715,1140.1094 C715,1150.1094 775,1150.1094 775,1150.1094 C775,1150.1094 835,1150.1094 835,1140.1094 " fill="none" style="stroke:#181818;stroke-width:0.5;"/><text fill="#000000" font-family="sans-serif" font-size="14" lengthAdjust="spacing" textLength="100" x="725" y="1168.6426">ECommerce DB</text></g><!--entity administrationDb--><g id="elem_administrationDb"><path d="M709,960.1094 C709,950.1094 775,950.1094 775,950.1094 C775,950.1094 841,950.1094 841,960.1094 L841,986.7188 C841,996.7188 775,996.7188 775,996.7188 C775,996.7188 709,996.7188 709,986.7188 L709,960.1094 " fill="#F1F1F1" style="stroke:#181818;stroke-width:0.5;"/><path d="M709,960.1094 C709,970.1094 775,970.1094 775,970.1094 C775,970.1094 841,970.1094 841,960.1094 " fill="none" style="stroke:#181818;stroke-width:0.5;"/><text fill="#000000" font-family="sans-serif" font-size="14" lengthAdjust="spacing" textLength="112" x="719" y="988.6426">Administration DB</text></g><!--entity venteDb--><g id="elem_venteDb"><path d="M735,780.1094 C735,770.1094 775,770.1094 775,770.1094 C775,770.1094 815,770.1094 815,780.1094 L815,806.7188 C815,816.7188 775,816.7188 775,816.7188 C775,816.7188 735,816.7188 735,806.7188 L735,780.1094 " fill="#F1F1F1" style="stroke:#181818;stroke-width:0.5;"/><path d="M735,780.1094 C735,790.1094 775,790.1094 775,790.1094 C775,790.1094 815,790.1094 815,780.1094 " fill="none" style="stroke:#181818;stroke-width:0.5;"/><text fill="#000000" font-family="sans-serif" font-size="14" lengthAdjust="spacing" textLength="60" x="745" y="808.6426">Vente DB</text></g><!--entity inventaireDb--><g id="elem_inventaireDb"><path d="M722.5,600.1094 C722.5,590.1094 775,590.1094 775,590.1094 C775,590.1094 827.5,590.1094 827.5,600.1094 L827.5,626.7188 C827.5,636.7188 775,636.7188 775,636.7188 C775,636.7188 722.5,636.7188 722.5,626.7188 L722.5,600.1094 " fill="#F1F1F1" style="stroke:#181818;stroke-width:0.5;"/><path d="M722.5,600.1094 C722.5,610.1094 775,610.1094 775,610.1094 C775,610.1094 827.5,610.1094 827.5,600.1094 " fill="none" style="stroke:#181818;stroke-width:0.5;"/><text fill="#000000" font-family="sans-serif" font-size="14" lengthAdjust="spacing" textLength="85" x="732.5" y="628.6426">Inventaire DB</text></g><!--entity catalogueDb--><g id="elem_catalogueDb"><path d="M721,361.1094 C721,351.1094 775,351.1094 775,351.1094 C775,351.1094 829,351.1094 829,361.1094 L829,387.7188 C829,397.7188 775,397.7188 775,397.7188 C775,397.7188 721,397.7188 721,387.7188 L721,361.1094 " fill="#F1F1F1" style="stroke:#181818;stroke-width:0.5;"/><path d="M721,361.1094 C721,371.1094 775,371.1094 775,371.1094 C775,371.1094 829,371.1094 829,361.1094 " fill="none" style="stroke:#181818;stroke-width:0.5;"/><text fill="#000000" font-family="sans-serif" font-size="14" lengthAdjust="spacing" textLength="88" x="731" y="389.6426">Catalogue DB</text></g><!--entity Prometheus--><g id="elem_Prometheus"><rect fill="#F1F1F1" height="47.6094" rx="2.5" ry="2.5" style="stroke:#181818;stroke-width:0.5;" width="116" x="225.5" y="146.6094"/><rect fill="#F1F1F1" height="10" style="stroke:#181818;stroke-width:0.5;" width="15" x="321.5" y="151.6094"/><rect fill="#F1F1F1" height="2" style="stroke:#181818;stroke-width:0.5;" width="4" x="319.5" y="153.6094"/><rect fill="#F1F1F1" height="2" style="stroke:#181818;stroke-width:0.5;" width="4" x="319.5" y="157.6094"/><text fill="#000000" font-family="sans-serif" font-size="14" lengthAdjust="spacing" textLength="76" x="240.5" y="181.1426">Prometheus</text></g><g id="elem_GMN30"><path d="M461.5,168.6094 L461.5,177.6094 L341.53,181.6094 L461.5,185.6094 L461.5,194.9609 A0,0 0 0 0 461.5,194.9609 L536.5,194.9609 A0,0 0 0 0 536.5,194.9609 L536.5,178.6094 L526.5,168.6094 L461.5,168.6094 A0,0 0 0 0 461.5,168.6094 " fill="#FEFFDD" style="stroke:#181818;stroke-width:0.5;"/><path d="M526.5,168.6094 L526.5,178.6094 L536.5,178.6094 L526.5,168.6094 " fill="#FEFFDD" style="stroke:#181818;stroke-width:0.5;"/><text fill="#000000" font-family="sans-serif" font-size="13" lengthAdjust="spacing" textLength="54" x="467.5" y="187.1045">port 9090</text></g><!--entity Grafana--><g id="elem_Grafana"><rect fill="#F1F1F1" height="47.6094" rx="2.5" ry="2.5" style="stroke:#181818;stroke-width:0.5;" width="92" x="46.5" y="116.6094"/><rect fill="#F1F1F1" height="10" style="stroke:#181818;stroke-width:0.5;" width="15" x="118.5" y="121.6094"/><rect fill="#F1F1F1" height="2" style="stroke:#181818;stroke-width:0.5;" width="4" x="116.5" y="123.6094"/><rect fill="#F1F1F1" height="2" style="stroke:#181818;stroke-width:0.5;" width="4" x="116.5" y="127.6094"/><text fill="#000000" font-family="sans-serif" font-size="14" lengthAdjust="spacing" textLength="52" x="61.5" y="151.1426">Grafana</text></g><g id="elem_GMN34"><path d="M246,85.6094 L246,111.9609 L321,111.9609 L321,95.6094 L311,85.6094 L246,85.6094 " fill="#FEFFDD" style="stroke:#181818;stroke-width:0.5;"/><path d="M311,85.6094 L311,95.6094 L321,95.6094 L311,85.6094 " fill="#FEFFDD" style="stroke:#181818;stroke-width:1.0;"/><text fill="#000000" font-family="sans-serif" font-size="13" lengthAdjust="spacing" textLength="54" x="252" y="104.1045">port 3000</text></g><!--entity nodeExporter--><g id="elem_nodeExporter"><rect fill="#F1F1F1" height="47.6094" rx="2.5" ry="2.5" style="stroke:#181818;stroke-width:0.5;" width="130" x="434" y="85.6094"/><rect fill="#F1F1F1" height="10" style="stroke:#181818;stroke-width:0.5;" width="15" x="544" y="90.6094"/><rect fill="#F1F1F1" height="2" style="stroke:#181818;stroke-width:0.5;" width="4" x="542" y="92.6094"/><rect fill="#F1F1F1" height="2" style="stroke:#181818;stroke-width:0.5;" width="4" x="542" y="96.6094"/><text fill="#000000" font-family="sans-serif" font-size="14" lengthAdjust="spacing" textLength="90" x="449" y="120.1426">Node Exporter</text></g><g id="elem_GMN38"><path d="M737.5,96.6094 L737.5,105.6094 L564.06,109.6094 L737.5,113.6094 L737.5,122.9609 A0,0 0 0 0 737.5,122.9609 L812.5,122.9609 A0,0 0 0 0 812.5,122.9609 L812.5,106.6094 L802.5,96.6094 L737.5,96.6094 A0,0 0 0 0 737.5,96.6094 " fill="#FEFFDD" style="stroke:#181818;stroke-width:0.5;"/><path d="M802.5,96.6094 L802.5,106.6094 L812.5,106.6094 L802.5,96.6094 " fill="#FEFFDD" style="stroke:#181818;stroke-width:0.5;"/><text fill="#000000" font-family="sans-serif" font-size="13" lengthAdjust="spacing" textLength="54" x="743.5" y="115.1045">port 9100</text></g><!--entity kong--><g id="elem_kong"><polygon fill="#F1F1F1" points="205,689.6094,215,679.6094,362,679.6094,362,717.2188,352,727.2188,205,727.2188,205,689.6094" style="stroke:#181818;stroke-width:0.5;"/><line style="stroke:#181818;stroke-width:0.5;" x1="352" x2="362" y1="689.6094" y2="679.6094"/><line style="stroke:#181818;stroke-width:0.5;" x1="205" x2="352" y1="689.6094" y2="689.6094"/><line style="stroke:#181818;stroke-width:0.5;" x1="352" x2="352" y1="689.6094" y2="727.2188"/><text fill="#000000" font-family="sans-serif" font-size="14" lengthAdjust="spacing" textLength="117" x="220" y="714.1426">Kong API Gateway</text></g><!--entity kongDb--><g id="elem_kongDb"><path d="M461,420.1094 C461,410.1094 499,410.1094 499,410.1094 C499,410.1094 537,410.1094 537,420.1094 L537,446.7188 C537,456.7188 499,456.7188 499,456.7188 C499,456.7188 461,456.7188 461,446.7188 L461,420.1094 " fill="#F1F1F1" style="stroke:#181818;stroke-width:0.5;"/><path d="M461,420.1094 C461,430.1094 499,430.1094 499,430.1094 C499,430.1094 537,430.1094 537,420.1094 " fill="none" style="stroke:#181818;stroke-width:0.5;"/><text fill="#000000" font-family="sans-serif" font-size="14" lengthAdjust="spacing" textLength="56" x="471" y="448.6426">Kong DB</text></g><!--link Grafana to GMN34--><g id="link_Grafana_GMN34"><path d="M138.86,122.2794 C195.53,122.2794 284,122.2794 284,122.2794 C284,122.2794 284,117.2494 284,111.8294 " fill="none" id="Grafana-GMN34" style="stroke:#181818;stroke-width:1.0;stroke-dasharray:7.0,7.0;"/></g><!--link kong to catalogueMcService--><g id="link_kong_catalogueMcService"><path codeLine="84" d="M347,679.6094 C347,608.5394 347,404.1094 347,404.1094 C347,404.1094 499,404.1094 499,404.1094 C499,404.1094 499,398.0519 499,391.4269 C499,389.7706 499,388.0789 499,386.4375 C499,385.6168 499,384.8087 499,384.0238 C499,383.6314 499,383.2448 499,382.8654 C499,382.818 499,388.7707 499,388.7235 " fill="none" id="kong-to-catalogueMcService" style="stroke:#181818;stroke-width:1.0;"/><polygon fill="#181818" points="499,382.7235,495,391.7235,499,387.7235,503,391.7235,499,382.7235" style="stroke:#181818;stroke-width:1.0;"/></g><!--link kong to inventaireMcService--><g id="link_kong_inventaireMcService"><path codeLine="85" d="M357,679.4894 C357,652.8294 357,613.6094 357,613.6094 C357,613.6094 365.3288,613.6094 377.952,613.6094 C384.2637,613.6094 391.6489,613.6094 399.6036,613.6094 C401.5922,613.6094 403.6165,613.6094 405.6684,613.6094 C406.6944,613.6094 407.7273,613.6094 408.7661,613.6094 C409.2856,613.6094 409.8065,613.6094 410.3287,613.6094 C410.5899,613.6094 404.8513,613.6094 405.1131,613.6094 " fill="none" id="kong-to-inventaireMcService" style="stroke:#181818;stroke-width:1.0;"/><polygon fill="#181818" points="411.1131,613.6094,402.1131,609.6094,406.1131,613.6094,402.1131,617.6094,411.1131,613.6094" style="stroke:#181818;stroke-width:1.0;"/></g><!--link kong to venteMcService--><g id="link_kong_venteMcService"><path codeLine="86" d="M323,727.7294 C323,754.3894 323,793.6094 323,793.6094 C323,793.6094 364.2925,793.6094 406.8763,793.6094 C412.1992,793.6094 417.5424,793.6094 422.8276,793.6094 C423.1579,793.6094 417.488,793.6094 417.8178,793.6094 " fill="none" id="kong-to-venteMcService" style="stroke:#181818;stroke-width:1.0;"/><polygon fill="#181818" points="423.8178,793.6094,414.8178,789.6094,418.8178,793.6094,414.8178,797.6094,423.8178,793.6094" style="stroke:#181818;stroke-width:1.0;"/></g><!--link kong to administrationMcService--><g id="link_kong_administrationMcService"><path codeLine="87" d="M284,728.0494 C284,794.5094 284,973.6094 284,973.6094 C284,973.6094 334.4425,973.6094 386.4613,973.6094 C389.7124,973.6094 392.9698,973.6094 396.2213,973.6094 C396.6278,973.6094 391.0341,973.6094 391.4403,973.6094 " fill="none" id="kong-to-administrationMcService" style="stroke:#181818;stroke-width:1.0;"/><polygon fill="#181818" points="397.4403,973.6094,388.4403,969.6094,392.4403,973.6094,388.4403,977.6094,397.4403,973.6094" style="stroke:#181818;stroke-width:1.0;"/></g><!--link kong to ecommerceMcService--><g id="link_kong_ecommerceMcService"><path codeLine="88" d="M245,727.7994 C245,821.2694 245,1153.6094 245,1153.6094 C245,1153.6094 305.5575,1153.6094 367.535,1153.6094 C375.2822,1153.6094 383.0516,1153.6094 390.7276,1153.6094 C394.5657,1153.6094 398.3804,1153.6094 402.1573,1153.6094 C402.6294,1153.6094 397.1009,1153.6094 397.5718,1153.6094 " fill="none" id="kong-to-ecommerceMcService" style="stroke:#181818;stroke-width:1.0;"/><polygon fill="#181818" points="403.5718,1153.6094,394.5718,1149.6094,398.5718,1153.6094,394.5718,1157.6094,403.5718,1153.6094" style="stroke:#181818;stroke-width:1.0;"/></g><!--link clientApp to kong--><g id="link_clientApp_kong"><path codeLine="91" d="M216,655.6934 C216,656.3903 216,657.1213 216,657.8819 C216,663.9669 216,665.9494 216,673.5394 " fill="none" id="clientApp-to-kong" style="stroke:#181818;stroke-width:1.0;"/><polygon fill="#181818" points="216,679.5394,220,670.5394,216,674.5394,212,670.5394,216,679.5394" style="stroke:#181818;stroke-width:1.0;"/><text fill="#000000" font-family="sans-serif" font-size="13" lengthAdjust="spacing" textLength="91" x="78.61" y="662.1045">HTTP Requests</text></g><!--link catalogueMcService to catalogueDb--><g id="link_catalogueMcService_catalogueDb"><path codeLine="93" d="M588.4488,374.6094 C589.8563,374.6094 591.2716,374.6094 592.6939,374.6094 C595.5385,374.6094 598.4112,374.6094 601.3064,374.6094 C607.0969,374.6094 612.9773,374.6094 618.9031,374.6094 C630.7547,374.6094 642.7875,374.6094 654.6438,374.6094 C678.3562,374.6094 695.3625,374.6094 714.8,374.6094 " fill="none" id="catalogueMcService-to-catalogueDb" style="stroke:#181818;stroke-width:1.0;"/><polygon fill="#181818" points="720.8,374.6094,711.8,370.6094,715.8,374.6094,711.8,378.6094,720.8,374.6094" style="stroke:#181818;stroke-width:1.0;"/></g><!--link inventaireMcService to inventaireDb--><g id="link_inventaireMcService_inventaireDb"><path codeLine="94" d="M587.2819,613.6094 C587.9883,613.6094 588.6968,613.6094 589.4071,613.6094 C590.8278,613.6094 592.2562,613.6094 593.6915,613.6094 C596.5622,613.6094 599.4606,613.6094 602.3812,613.6094 C608.2224,613.6094 614.1521,613.6094 620.1245,613.6094 C632.0694,613.6094 644.1855,613.6094 656.1077,613.6094 C679.9519,613.6094 697.02,613.6094 716.39,613.6094 " fill="none" id="inventaireMcService-to-inventaireDb" style="stroke:#181818;stroke-width:1.0;"/><polygon fill="#181818" points="722.39,613.6094,713.39,609.6094,717.39,613.6094,713.39,617.6094,722.39,613.6094" style="stroke:#181818;stroke-width:1.0;"/></g><!--link venteMcService to venteDb--><g id="link_venteMcService_venteDb"><path codeLine="95" d="M574.0129,793.6094 C574.3705,793.6094 574.7288,793.6094 575.0878,793.6094 C580.8318,793.6094 586.7562,793.6094 592.8075,793.6094 C641.2175,793.6094 691.74,793.6094 728.84,793.6094 " fill="none" id="venteMcService-to-venteDb" style="stroke:#181818;stroke-width:1.0;"/><polygon fill="#181818" points="734.84,793.6094,725.84,789.6094,729.84,793.6094,725.84,797.6094,734.84,793.6094" style="stroke:#181818;stroke-width:1.0;"/></g><!--link administrationMcService to administrationDb--><g id="link_administrationMcService_administrationDb"><path codeLine="96" d="M600.7717,973.6094 C601.1153,973.6094 601.4592,973.6094 601.8035,973.6094 C604.5576,973.6094 607.3317,973.6094 610.1211,973.6094 C621.2786,973.6094 632.68,973.6094 644.0181,973.6094 C666.6944,973.6094 683.1175,973.6094 702.83,973.6094 " fill="none" id="administrationMcService-to-administrationDb" style="stroke:#181818;stroke-width:1.0;"/><polygon fill="#181818" points="708.83,973.6094,699.83,969.6094,703.83,973.6094,699.83,977.6094,708.83,973.6094" style="stroke:#181818;stroke-width:1.0;"/></g><!--link ecommerceMcService to ecommerceDb--><g id="link_ecommerceMcService_ecommerceDb"><path codeLine="97" d="M594.2993,1153.6094 C594.6473,1153.6094 594.9957,1153.6094 595.3446,1153.6094 C596.0422,1153.6094 596.7414,1153.6094 597.4421,1153.6094 C603.0475,1153.6094 608.7481,1153.6094 614.5023,1153.6094 C626.0108,1153.6094 637.7338,1153.6094 649.3394,1153.6094 C672.5506,1153.6094 689.2925,1153.6094 708.91,1153.6094 " fill="none" id="ecommerceMcService-to-ecommerceDb" style="stroke:#181818;stroke-width:1.0;"/><polygon fill="#181818" points="714.91,1153.6094,705.91,1149.6094,709.91,1153.6094,705.91,1157.6094,714.91,1153.6094" style="stroke:#181818;stroke-width:1.0;"/></g><!--link Prometheus to catalogueMcService--><g id="link_Prometheus_catalogueMcService"><path codeLine="99" d="M329,194.8094 C329,248.8494 329,374.6094 329,374.6094 C329,374.6094 338.9713,374.6094 354.0839,374.6094 C361.6402,374.6094 370.4819,374.6094 380.0052,374.6094 C384.7669,374.6094 389.6989,374.6094 394.7259,374.6094 C397.2394,374.6094 399.7766,374.6094 402.3282,374.6094 C403.6039,374.6094 404.8833,374.6094 406.165,374.6094 C406.8059,374.6094 407.4474,374.6094 408.0893,374.6094 C408.4102,374.6094 402.7313,374.6094 403.0525,374.6094 " fill="none" id="Prometheus-to-catalogueMcService" style="stroke:#181818;stroke-width:1.0;"/><polygon fill="#181818" points="409.0525,374.6094,400.0525,370.6094,404.0525,374.6094,400.0525,378.6094,409.0525,374.6094" style="stroke:#181818;stroke-width:1.0;"/><text fill="#000000" font-family="sans-serif" font-size="13" lengthAdjust="spacing" textLength="39" x="289" y="383.9645">scrape</text></g><!--link Prometheus to nodeExporter--><g id="link_Prometheus_nodeExporter"><path codeLine="100" d="M332,146.2894 C332,136.6994 332,127.9394 332,127.9394 C332,127.9394 381.06,127.9394 427.96,127.9394 " fill="none" id="Prometheus-to-nodeExporter" style="stroke:#181818;stroke-width:1.0;"/><polygon fill="#181818" points="433.96,127.9394,424.96,123.9394,428.96,127.9394,424.96,131.9394,433.96,127.9394" style="stroke:#181818;stroke-width:1.0;"/><text fill="#000000" font-family="sans-serif" font-size="13" lengthAdjust="spacing" textLength="39" x="333.81" y="142.4345">scrape</text></g><!--link Grafana to Prometheus--><g id="link_Grafana_Prometheus"><path codeLine="101" d="M138.74,155.6094 C164.79,155.6094 191.58,155.6094 219.37,155.6094 " fill="none" id="Grafana-to-Prometheus" style="stroke:#181818;stroke-width:1.0;"/><polygon fill="#181818" points="225.37,155.6094,216.37,151.6094,220.37,155.6094,216.37,159.6094,225.37,155.6094" style="stroke:#181818;stroke-width:1.0;"/></g><!--link kong to kongDb--><g id="link_kong_kongDb"><path codeLine="103" d="M352,679.1694 C352,612.7094 352,433.6094 352,433.6094 C352,433.6094 411.21,433.6094 454.76,433.6094 " fill="none" id="kong-to-kongDb" style="stroke:#181818;stroke-width:1.0;"/><polygon fill="#181818" points="460.76,433.6094,451.76,429.6094,455.76,433.6094,451.76,437.6094,460.76,433.6094" style="stroke:#181818;stroke-width:1.0;"/></g><!--SRC=[bLL1Rjim4Bph5GjTqXvKkEYboQ60OnjfK2GrMiCzqzB69YAJ2adRCOeye4_9E_onBYcP56tBGMxIxkmCTxKQ6cvAXEaAORpOQlv43ndqLRxW1dEpKWYxVsjPhdQlcB2ob9ibV-PYdkX7BYgcs19ABj1iAmIfp4As4dh12haXC3omKcDIueC18q7n-S90mHK9S2cIv0AoB8D1oL4O3KmKC196RM4ikGrGCX6oG4X_I2BhZs_XXXdSi6qAJCCZ1MCEw5ULgxg0kYvtuOnLbQkeNoteBq40ShcifB25wOTFzwC9_C4Pt4q77rDAloJ9coGHHJX3Z1li8GGNqc0z1te1QbGP-DgZPwJcRJ9vsRTqntCbDQerpx4zYvmPLihv2kb4l5RQH-xotpN-w6XxX1rYNDElUE9RvM9DU4PVo9E7K2VxhOTu-b0LyTjWe7PldQnJc_M43XjniMB91TT6CRjCdZGETxBt8vYNSTMH35BH4bKUZkqZdUIZGOFmlBwcuMx8Xp9_H0K3QMSbwEaAAgdDNA5-AkF2h5c5h9WvEO22Fk6CQMph3Q_Zgk4iTFAssC58poWUZA-HZUlVfrslnXd9UXyQ9OT-dq1hjy-ej7QvaGfrxzCB_-aPkV1ZDcg-gXQhhU3dp5Am6I-vsRQie1tVlQQ7QpXMSebcWIkTmh7tLDPxBdkNaVj4zJUAFJ31qexQBxrUT-szFU3esG9HkSxiaVU1hjDyxftsGkV_mslNUXXU4_MN0OriVnr88UfBfdPEcwM7RoUiCkHEE5r8nbuLuXrs4m37Ra5_VxX3BCHXh-3xP3A6NqWtiJQQCCUk7dL0tPxovhWJ0Xsuh6-6KbrUUTmOWK_ONjIVdNxOk8vfKviwLwp2GsXxEmAesK2720L9c6xzsVy3]--></g></svg>