<?xml version="1.0" encoding="us-ascii" standalone="no"?><svg xmlns="http://www.w3.org/2000/svg" xmlns:xlink="http://www.w3.org/1999/xlink" contentStyleType="text/css" height="677px" preserveAspectRatio="none" style="width:1452px;height:677px;background:#FFFFFF;" version="1.1" viewBox="0 0 1452 677" width="1452px" zoomAndPan="magnify"><defs/><g><text fill="#000000" font-family="sans-serif" font-size="14" font-weight="bold" lengthAdjust="spacing" textLength="263" x="593.5" y="29.5332">Process View - Enregistrer une vente</text><line style="stroke:#181818;stroke-width:0.5;stroke-dasharray:5.0,5.0;" x1="38" x2="38" y1="121.2188" y2="595.4922"/><line style="stroke:#181818;stroke-width:0.5;stroke-dasharray:5.0,5.0;" x1="184" x2="184" y1="121.2188" y2="595.4922"/><line style="stroke:#181818;stroke-width:0.5;stroke-dasharray:5.0,5.0;" x1="377" x2="377" y1="121.2188" y2="595.4922"/><line style="stroke:#181818;stroke-width:0.5;stroke-dasharray:5.0,5.0;" x1="522" x2="522" y1="121.2188" y2="595.4922"/><line style="stroke:#181818;stroke-width:0.5;stroke-dasharray:5.0,5.0;" x1="686.5" x2="686.5" y1="121.2188" y2="595.4922"/><line style="stroke:#181818;stroke-width:0.5;stroke-dasharray:5.0,5.0;" x1="1060" x2="1060" y1="121.2188" y2="595.4922"/><line style="stroke:#181818;stroke-width:0.5;stroke-dasharray:5.0,5.0;" x1="1226" x2="1226" y1="121.2188" y2="595.4922"/><line style="stroke:#181818;stroke-width:0.5;stroke-dasharray:5.0,5.0;" x1="1379" x2="1379" y1="121.2188" y2="595.4922"/><text fill="#000000" font-family="sans-serif" font-size="14" lengthAdjust="spacing" textLength="61" x="5" y="118.1426">utilisateur</text><ellipse cx="38.5" cy="52.1094" fill="#E2E2F0" rx="8" ry="8" style="stroke:#181818;stroke-width:0.5;"/><path d="M38.5,60.1094 L38.5,87.1094 M25.5,68.1094 L51.5,68.1094 M38.5,87.1094 L25.5,102.1094 M38.5,87.1094 L51.5,102.1094 " fill="none" style="stroke:#181818;stroke-width:0.5;"/><text fill="#000000" font-family="sans-serif" font-size="14" lengthAdjust="spacing" textLength="61" x="5" y="609.0254">utilisateur</text><ellipse cx="38.5" cy="620.6016" fill="#E2E2F0" rx="8" ry="8" style="stroke:#181818;stroke-width:0.5;"/><path d="M38.5,628.6016 L38.5,655.6016 M25.5,636.6016 L51.5,636.6016 M38.5,655.6016 L25.5,670.6016 M38.5,655.6016 L51.5,670.6016 " fill="none" style="stroke:#181818;stroke-width:0.5;"/><rect fill="#E2E2F0" height="31.6094" rx="2.5" ry="2.5" style="stroke:#181818;stroke-width:0.5;" width="65" x="152" y="88.6094"/><text fill="#000000" font-family="sans-serif" font-size="14" lengthAdjust="spacing" textLength="51" x="159" y="110.1426">Browser</text><rect fill="#E2E2F0" height="31.6094" rx="2.5" ry="2.5" style="stroke:#181818;stroke-width:0.5;" width="65" x="152" y="594.4922"/><text fill="#000000" font-family="sans-serif" font-size="14" lengthAdjust="spacing" textLength="51" x="159" y="616.0254">Browser</text><rect fill="#E2E2F0" height="49.2188" rx="2.5" ry="2.5" style="stroke:#181818;stroke-width:0.5;" width="129" x="313" y="71"/><text fill="#000000" font-family="sans-serif" font-size="14" lengthAdjust="spacing" textLength="99" x="328" y="92.5332">MagasinCentral</text><text fill="#000000" font-family="sans-serif" font-size="14" lengthAdjust="spacing" textLength="115" x="320" y="110.1426">&#171;VenteController&#187;</text><rect fill="#E2E2F0" height="49.2188" rx="2.5" ry="2.5" style="stroke:#181818;stroke-width:0.5;" width="129" x="313" y="594.4922"/><text fill="#000000" font-family="sans-serif" font-size="14" lengthAdjust="spacing" textLength="99" x="328" y="616.0254">MagasinCentral</text><text fill="#000000" font-family="sans-serif" font-size="14" lengthAdjust="spacing" textLength="115" x="320" y="633.6348">&#171;VenteController&#187;</text><rect fill="#E2E2F0" height="49.2188" rx="2.5" ry="2.5" style="stroke:#181818;stroke-width:0.5;" width="129" x="458" y="71"/><text fill="#000000" font-family="sans-serif" font-size="14" lengthAdjust="spacing" textLength="102" x="471.5" y="92.5332">VenteMcService</text><text fill="#000000" font-family="sans-serif" font-size="14" lengthAdjust="spacing" textLength="115" x="465" y="110.1426">&#171;VenteController&#187;</text><rect fill="#E2E2F0" height="49.2188" rx="2.5" ry="2.5" style="stroke:#181818;stroke-width:0.5;" width="129" x="458" y="594.4922"/><text fill="#000000" font-family="sans-serif" font-size="14" lengthAdjust="spacing" textLength="102" x="471.5" y="616.0254">VenteMcService</text><text fill="#000000" font-family="sans-serif" font-size="14" lengthAdjust="spacing" textLength="115" x="465" y="633.6348">&#171;VenteController&#187;</text><rect fill="#E2E2F0" height="49.2188" rx="2.5" ry="2.5" style="stroke:#181818;stroke-width:0.5;" width="116" x="628.5" y="71"/><text fill="#000000" font-family="sans-serif" font-size="14" lengthAdjust="spacing" textLength="102" x="635.5" y="92.5332">VenteMcService</text><text fill="#000000" font-family="sans-serif" font-size="14" lengthAdjust="spacing" textLength="100" x="636.5" y="110.1426">&#171;VenteService&#187;</text><rect fill="#E2E2F0" height="49.2188" rx="2.5" ry="2.5" style="stroke:#181818;stroke-width:0.5;" width="116" x="628.5" y="594.4922"/><text fill="#000000" font-family="sans-serif" font-size="14" lengthAdjust="spacing" textLength="102" x="635.5" y="616.0254">VenteMcService</text><text fill="#000000" font-family="sans-serif" font-size="14" lengthAdjust="spacing" textLength="100" x="636.5" y="633.6348">&#171;VenteService&#187;</text><rect fill="#E2E2F0" height="49.2188" rx="2.5" ry="2.5" style="stroke:#181818;stroke-width:0.5;" width="157" x="982" y="71"/><text fill="#000000" font-family="sans-serif" font-size="14" lengthAdjust="spacing" textLength="130" x="995.5" y="92.5332">CatalogueMcService</text><text fill="#000000" font-family="sans-serif" font-size="14" lengthAdjust="spacing" textLength="143" x="989" y="110.1426">&#171;CatalogueController&#187;</text><rect fill="#E2E2F0" height="49.2188" rx="2.5" ry="2.5" style="stroke:#181818;stroke-width:0.5;" width="157" x="982" y="594.4922"/><text fill="#000000" font-family="sans-serif" font-size="14" lengthAdjust="spacing" textLength="130" x="995.5" y="616.0254">CatalogueMcService</text><text fill="#000000" font-family="sans-serif" font-size="14" lengthAdjust="spacing" textLength="143" x="989" y="633.6348">&#171;CatalogueController&#187;</text><rect fill="#E2E2F0" height="49.2188" rx="2.5" ry="2.5" style="stroke:#181818;stroke-width:0.5;" width="154" x="1149" y="71"/><text fill="#000000" font-family="sans-serif" font-size="14" lengthAdjust="spacing" textLength="127" x="1162.5" y="92.5332">InventaireMcService</text><text fill="#000000" font-family="sans-serif" font-size="14" lengthAdjust="spacing" textLength="140" x="1156" y="110.1426">&#171;InventaireController&#187;</text><rect fill="#E2E2F0" height="49.2188" rx="2.5" ry="2.5" style="stroke:#181818;stroke-width:0.5;" width="154" x="1149" y="594.4922"/><text fill="#000000" font-family="sans-serif" font-size="14" lengthAdjust="spacing" textLength="127" x="1162.5" y="616.0254">InventaireMcService</text><text fill="#000000" font-family="sans-serif" font-size="14" lengthAdjust="spacing" textLength="140" x="1156" y="633.6348">&#171;InventaireController&#187;</text><rect fill="#E2E2F0" height="49.2188" rx="2.5" ry="2.5" style="stroke:#181818;stroke-width:0.5;" width="133" x="1313" y="71"/><text fill="#000000" font-family="sans-serif" font-size="14" lengthAdjust="spacing" textLength="102" x="1328.5" y="92.5332">VenteMcService</text><text fill="#000000" font-family="sans-serif" font-size="14" lengthAdjust="spacing" textLength="119" x="1320" y="110.1426">&#171;VenteDbContext&#187;</text><rect fill="#E2E2F0" height="49.2188" rx="2.5" ry="2.5" style="stroke:#181818;stroke-width:0.5;" width="133" x="1313" y="594.4922"/><text fill="#000000" font-family="sans-serif" font-size="14" lengthAdjust="spacing" textLength="102" x="1328.5" y="616.0254">VenteMcService</text><text fill="#000000" font-family="sans-serif" font-size="14" lengthAdjust="spacing" textLength="119" x="1320" y="633.6348">&#171;VenteDbContext&#187;</text><polygon fill="#181818" points="172.5,149.5703,182.5,153.5703,172.5,157.5703,176.5,153.5703" style="stroke:#181818;stroke-width:1.0;"/><line style="stroke:#181818;stroke-width:1.0;" x1="38.5" x2="178.5" y1="153.5703" y2="153.5703"/><text fill="#000000" font-family="sans-serif" font-size="13" lengthAdjust="spacing" textLength="122" x="45.5" y="148.7139">Enregistrer une vente</text><polygon fill="#181818" points="365.5,179.9219,375.5,183.9219,365.5,187.9219,369.5,183.9219" style="stroke:#181818;stroke-width:1.0;"/><line style="stroke:#181818;stroke-width:1.0;" x1="184.5" x2="371.5" y1="183.9219" y2="183.9219"/><text fill="#000000" font-family="sans-serif" font-size="13" lengthAdjust="spacing" textLength="77" x="191.5" y="179.0654">POST /Vente</text><polygon fill="#181818" points="510.5,226.625,520.5,230.625,510.5,234.625,514.5,230.625" style="stroke:#181818;stroke-width:1.0;"/><line style="stroke:#181818;stroke-width:1.0;" x1="377.5" x2="516.5" y1="230.625" y2="230.625"/><text fill="#000000" font-family="sans-serif" font-size="13" lengthAdjust="spacing" textLength="121" x="384.5" y="209.417">POST api/v1/ventes ,</text><text fill="#000000" font-family="sans-serif" font-size="13" lengthAdjust="spacing" textLength="85" x="384.5" y="225.7686">Payload: vente</text><polygon fill="#181818" points="674.5,256.9766,684.5,260.9766,674.5,264.9766,678.5,260.9766" style="stroke:#181818;stroke-width:1.0;"/><line style="stroke:#181818;stroke-width:1.0;" x1="522.5" x2="680.5" y1="260.9766" y2="260.9766"/><text fill="#000000" font-family="sans-serif" font-size="13" lengthAdjust="spacing" textLength="140" x="529.5" y="256.1201">CreerVenteAsync(vente)</text><polygon fill="#181818" points="1048.5,287.3281,1058.5,291.3281,1048.5,295.3281,1052.5,291.3281" style="stroke:#181818;stroke-width:1.0;"/><line style="stroke:#181818;stroke-width:1.0;" x1="686.5" x2="1054.5" y1="291.3281" y2="291.3281"/><text fill="#000000" font-family="sans-serif" font-size="13" lengthAdjust="spacing" textLength="332" x="693.5" y="286.4717">produits = GET api/v1/Catalogue/produits/{vente.produitId}</text><polygon fill="#181818" points="697.5,317.6797,687.5,321.6797,697.5,325.6797,693.5,321.6797" style="stroke:#181818;stroke-width:1.0;"/><line style="stroke:#181818;stroke-width:1.0;stroke-dasharray:2.0,2.0;" x1="691.5" x2="1059.5" y1="321.6797" y2="321.6797"/><text fill="#000000" font-family="sans-serif" font-size="13" lengthAdjust="spacing" textLength="41" x="703.5" y="316.8232">Produit</text><polygon fill="#181818" points="1367.5,348.0313,1377.5,352.0313,1367.5,356.0313,1371.5,352.0313" style="stroke:#181818;stroke-width:1.0;"/><line style="stroke:#181818;stroke-width:1.0;" x1="686.5" x2="1373.5" y1="352.0313" y2="352.0313"/><text fill="#000000" font-family="sans-serif" font-size="13" lengthAdjust="spacing" textLength="61" x="693.5" y="347.1748">Add(vente)</text><polygon fill="#181818" points="1367.5,378.3828,1377.5,382.3828,1367.5,386.3828,1371.5,382.3828" style="stroke:#181818;stroke-width:1.0;"/><line style="stroke:#181818;stroke-width:1.0;" x1="686.5" x2="1373.5" y1="382.3828" y2="382.3828"/><text fill="#000000" font-family="sans-serif" font-size="13" lengthAdjust="spacing" textLength="124" x="693.5" y="377.5264">SaveChangesAsync()</text><line style="stroke:#181818;stroke-width:1.0;" x1="686.5" x2="728.5" y1="412.7344" y2="412.7344"/><line style="stroke:#181818;stroke-width:1.0;" x1="728.5" x2="728.5" y1="412.7344" y2="425.7344"/><line style="stroke:#181818;stroke-width:1.0;" x1="687.5" x2="728.5" y1="425.7344" y2="425.7344"/><polygon fill="#181818" points="697.5,421.7344,687.5,425.7344,697.5,429.7344,693.5,425.7344" style="stroke:#181818;stroke-width:1.0;"/><text fill="#000000" font-family="sans-serif" font-size="13" lengthAdjust="spacing" textLength="360" x="693.5" y="407.8779">UpdateStock(vente.MagasinId, vente.ProduitId, vente.Quantite)</text><polygon fill="#181818" points="1214,452.0859,1224,456.0859,1214,460.0859,1218,456.0859" style="stroke:#181818;stroke-width:1.0;"/><line style="stroke:#181818;stroke-width:1.0;" x1="686.5" x2="1220" y1="456.0859" y2="456.0859"/><text fill="#000000" font-family="sans-serif" font-size="13" lengthAdjust="spacing" textLength="460" x="693.5" y="451.2295">PUT api/v1/inventaire/stocks/{vente.MagasinId}/{vente.ProduitId}/{vente.Quantite}</text><polygon fill="#181818" points="697.5,482.4375,687.5,486.4375,697.5,490.4375,693.5,486.4375" style="stroke:#181818;stroke-width:1.0;"/><line style="stroke:#181818;stroke-width:1.0;stroke-dasharray:2.0,2.0;" x1="691.5" x2="1225" y1="486.4375" y2="486.4375"/><text fill="#000000" font-family="sans-serif" font-size="13" lengthAdjust="spacing" textLength="90" x="703.5" y="481.5811">204 No Content</text><polygon fill="#181818" points="533.5,512.7891,523.5,516.7891,533.5,520.7891,529.5,516.7891" style="stroke:#181818;stroke-width:1.0;"/><line style="stroke:#181818;stroke-width:1.0;stroke-dasharray:2.0,2.0;" x1="527.5" x2="685.5" y1="516.7891" y2="516.7891"/><text fill="#000000" font-family="sans-serif" font-size="13" lengthAdjust="spacing" textLength="90" x="539.5" y="511.9326">204 No Content</text><polygon fill="#181818" points="388.5,543.1406,378.5,547.1406,388.5,551.1406,384.5,547.1406" style="stroke:#181818;stroke-width:1.0;"/><line style="stroke:#181818;stroke-width:1.0;stroke-dasharray:2.0,2.0;" x1="382.5" x2="521.5" y1="547.1406" y2="547.1406"/><text fill="#000000" font-family="sans-serif" font-size="13" lengthAdjust="spacing" textLength="90" x="394.5" y="542.2842">204 No Content</text><polygon fill="#181818" points="195.5,573.4922,185.5,577.4922,195.5,581.4922,191.5,577.4922" style="stroke:#181818;stroke-width:1.0;"/><line style="stroke:#181818;stroke-width:1.0;stroke-dasharray:2.0,2.0;" x1="189.5" x2="376.5" y1="577.4922" y2="577.4922"/><text fill="#000000" font-family="sans-serif" font-size="13" lengthAdjust="spacing" textLength="169" x="201.5" y="572.6357">Afficher confirmation de vente</text><!--SRC=[ZLF9Rjim4BtpAmO-fK1ijKLFGMB0KOF2XxGgtEIK2qEDdK5LKY0ffK7XVo-ra3OZflMDixptPgCbMo4KMWaq1ku9ds4EDrBZZepLgA6H22rAYumBgpJC6aiL6MwnqJFW1evincgkBGcgkRGmkzRgsU2GzJYyuuHRlkE6PExeDQyUvENbVQUKAsUhgaAzNFRWDlRc5Jb7JDK3RyK6TKi2JwOwYMIqZnb6LmpFkUMLsZKnHV1EQX7JI4oubfqO9nqp7jmJIag4JkhnysC7mD_skClWPEneop1V-dN2nHktukCkDRay1oo-RNv0rekpTCuKx66yfgpzaFLH0-SFik0lbUBbnIZ_6kQPnguTJQuHTI- -CYzIdFNXTun5QGwMs953rrgL3La3L_3b9fGJDftvUFQdvrkCzhhSinJXV5fVCI0czSHxSOchilJ5_pTtmrlCdxZSeHcwVWDpAEEkBjtEDrQ9duFAOlopw_9yo5qKlZVl-DwuGwDKGQdhx7gz2oCyP6Ic4mqJ3B9xxmcwmUE5zomfb9Zon_UVuAk2VaBozR2JvvT2f3GI1_zlgB_vw7EjjbiIJ-ufbDoI_iKjAGdb-Cl-0W00]--></g></svg>