<?xml version="1.0" encoding="us-ascii" standalone="no"?><svg xmlns="http://www.w3.org/2000/svg" xmlns:xlink="http://www.w3.org/1999/xlink" contentStyleType="text/css" height="849px" preserveAspectRatio="none" style="width:1854px;height:849px;background:#FFFFFF;" version="1.1" viewBox="0 0 1854 849" width="1854px" zoomAndPan="magnify"><defs/><g><text fill="#000000" font-family="sans-serif" font-size="14" font-weight="bold" lengthAdjust="spacing" textLength="263" x="794.75" y="29.5332">Process View - Enregistrer une vente</text><line style="stroke:#181818;stroke-width:0.5;stroke-dasharray:5.0,5.0;" x1="38" x2="38" y1="121.2188" y2="766.9531"/><line style="stroke:#181818;stroke-width:0.5;stroke-dasharray:5.0,5.0;" x1="184" x2="184" y1="121.2188" y2="766.9531"/><line style="stroke:#181818;stroke-width:0.5;stroke-dasharray:5.0,5.0;" x1="377" x2="377" y1="121.2188" y2="766.9531"/><line style="stroke:#181818;stroke-width:0.5;stroke-dasharray:5.0,5.0;" x1="522.5" x2="522.5" y1="121.2188" y2="766.9531"/><line style="stroke:#181818;stroke-width:0.5;stroke-dasharray:5.0,5.0;" x1="667" x2="667" y1="121.2188" y2="766.9531"/><line style="stroke:#181818;stroke-width:0.5;stroke-dasharray:5.0,5.0;" x1="1151.5" x2="1151.5" y1="121.2188" y2="766.9531"/><line style="stroke:#181818;stroke-width:0.5;stroke-dasharray:5.0,5.0;" x1="1316.5" x2="1316.5" y1="121.2188" y2="766.9531"/><line style="stroke:#181818;stroke-width:0.5;stroke-dasharray:5.0,5.0;" x1="1469.5" x2="1469.5" y1="121.2188" y2="766.9531"/><line style="stroke:#181818;stroke-width:0.5;stroke-dasharray:5.0,5.0;" x1="1634" x2="1634" y1="121.2188" y2="766.9531"/><line style="stroke:#181818;stroke-width:0.5;stroke-dasharray:5.0,5.0;" x1="1781.5" x2="1781.5" y1="121.2188" y2="766.9531"/><text fill="#000000" font-family="sans-serif" font-size="14" lengthAdjust="spacing" textLength="61" x="5" y="118.1426">utilisateur</text><ellipse cx="38.5" cy="52.1094" fill="#E2E2F0" rx="8" ry="8" style="stroke:#181818;stroke-width:0.5;"/><path d="M38.5,60.1094 L38.5,87.1094 M25.5,68.1094 L51.5,68.1094 M38.5,87.1094 L25.5,102.1094 M38.5,87.1094 L51.5,102.1094 " fill="none" style="stroke:#181818;stroke-width:0.5;"/><text fill="#000000" font-family="sans-serif" font-size="14" lengthAdjust="spacing" textLength="61" x="5" y="780.4863">utilisateur</text><ellipse cx="38.5" cy="792.0625" fill="#E2E2F0" rx="8" ry="8" style="stroke:#181818;stroke-width:0.5;"/><path d="M38.5,800.0625 L38.5,827.0625 M25.5,808.0625 L51.5,808.0625 M38.5,827.0625 L25.5,842.0625 M38.5,827.0625 L51.5,842.0625 " fill="none" style="stroke:#181818;stroke-width:0.5;"/><rect fill="#E2E2F0" height="31.6094" rx="2.5" ry="2.5" style="stroke:#181818;stroke-width:0.5;" width="65" x="152" y="88.6094"/><text fill="#000000" font-family="sans-serif" font-size="14" lengthAdjust="spacing" textLength="51" x="159" y="110.1426">Browser</text><rect fill="#E2E2F0" height="31.6094" rx="2.5" ry="2.5" style="stroke:#181818;stroke-width:0.5;" width="65" x="152" y="765.9531"/><text fill="#000000" font-family="sans-serif" font-size="14" lengthAdjust="spacing" textLength="51" x="159" y="787.4863">Browser</text><rect fill="#E2E2F0" height="49.2188" rx="2.5" ry="2.5" style="stroke:#181818;stroke-width:0.5;" width="129" x="313" y="71"/><text fill="#000000" font-family="sans-serif" font-size="14" lengthAdjust="spacing" textLength="99" x="328" y="92.5332">MagasinCentral</text><text fill="#000000" font-family="sans-serif" font-size="14" lengthAdjust="spacing" textLength="115" x="320" y="110.1426">&#171;VenteController&#187;</text><rect fill="#E2E2F0" height="49.2188" rx="2.5" ry="2.5" style="stroke:#181818;stroke-width:0.5;" width="129" x="313" y="765.9531"/><text fill="#000000" font-family="sans-serif" font-size="14" lengthAdjust="spacing" textLength="99" x="328" y="787.4863">MagasinCentral</text><text fill="#000000" font-family="sans-serif" font-size="14" lengthAdjust="spacing" textLength="115" x="320" y="805.0957">&#171;VenteController&#187;</text><rect fill="#E2E2F0" height="49.2188" rx="2.5" ry="2.5" style="stroke:#181818;stroke-width:0.5;" width="94" x="475.5" y="71"/><text fill="#000000" font-family="sans-serif" font-size="14" lengthAdjust="spacing" textLength="80" x="482.5" y="92.5332">API Gateway</text><text fill="#000000" font-family="sans-serif" font-size="14" lengthAdjust="spacing" textLength="49" x="498" y="110.1426">&#171;Kong&#187;</text><rect fill="#E2E2F0" height="49.2188" rx="2.5" ry="2.5" style="stroke:#181818;stroke-width:0.5;" width="94" x="475.5" y="765.9531"/><text fill="#000000" font-family="sans-serif" font-size="14" lengthAdjust="spacing" textLength="80" x="482.5" y="787.4863">API Gateway</text><text fill="#000000" font-family="sans-serif" font-size="14" lengthAdjust="spacing" textLength="49" x="498" y="805.0957">&#171;Kong&#187;</text><rect fill="#E2E2F0" height="49.2188" rx="2.5" ry="2.5" style="stroke:#181818;stroke-width:0.5;" width="127" x="604" y="71"/><text fill="#000000" font-family="sans-serif" font-size="14" lengthAdjust="spacing" textLength="113" x="611" y="92.5332">SagaOrchestrator</text><text fill="#000000" font-family="sans-serif" font-size="14" lengthAdjust="spacing" textLength="74" x="630.5" y="110.1426">&#171;Saga API&#187;</text><rect fill="#E2E2F0" height="49.2188" rx="2.5" ry="2.5" style="stroke:#181818;stroke-width:0.5;" width="127" x="604" y="765.9531"/><text fill="#000000" font-family="sans-serif" font-size="14" lengthAdjust="spacing" textLength="113" x="611" y="787.4863">SagaOrchestrator</text><text fill="#000000" font-family="sans-serif" font-size="14" lengthAdjust="spacing" textLength="74" x="630.5" y="805.0957">&#171;Saga API&#187;</text><rect fill="#E2E2F0" height="49.2188" rx="2.5" ry="2.5" style="stroke:#181818;stroke-width:0.5;" width="154" x="1074.5" y="71"/><text fill="#000000" font-family="sans-serif" font-size="14" lengthAdjust="spacing" textLength="127" x="1088" y="92.5332">InventaireMcService</text><text fill="#000000" font-family="sans-serif" font-size="14" lengthAdjust="spacing" textLength="140" x="1081.5" y="110.1426">&#171;InventaireController&#187;</text><rect fill="#E2E2F0" height="49.2188" rx="2.5" ry="2.5" style="stroke:#181818;stroke-width:0.5;" width="154" x="1074.5" y="765.9531"/><text fill="#000000" font-family="sans-serif" font-size="14" lengthAdjust="spacing" textLength="127" x="1088" y="787.4863">InventaireMcService</text><text fill="#000000" font-family="sans-serif" font-size="14" lengthAdjust="spacing" textLength="140" x="1081.5" y="805.0957">&#171;InventaireController&#187;</text><rect fill="#E2E2F0" height="49.2188" rx="2.5" ry="2.5" style="stroke:#181818;stroke-width:0.5;" width="157" x="1238.5" y="71"/><text fill="#000000" font-family="sans-serif" font-size="14" lengthAdjust="spacing" textLength="130" x="1252" y="92.5332">CatalogueMcService</text><text fill="#000000" font-family="sans-serif" font-size="14" lengthAdjust="spacing" textLength="143" x="1245.5" y="110.1426">&#171;CatalogueController&#187;</text><rect fill="#E2E2F0" height="49.2188" rx="2.5" ry="2.5" style="stroke:#181818;stroke-width:0.5;" width="157" x="1238.5" y="765.9531"/><text fill="#000000" font-family="sans-serif" font-size="14" lengthAdjust="spacing" textLength="130" x="1252" y="787.4863">CatalogueMcService</text><text fill="#000000" font-family="sans-serif" font-size="14" lengthAdjust="spacing" textLength="143" x="1245.5" y="805.0957">&#171;CatalogueController&#187;</text><rect fill="#E2E2F0" height="49.2188" rx="2.5" ry="2.5" style="stroke:#181818;stroke-width:0.5;" width="129" x="1405.5" y="71"/><text fill="#000000" font-family="sans-serif" font-size="14" lengthAdjust="spacing" textLength="102" x="1419" y="92.5332">VenteMcService</text><text fill="#000000" font-family="sans-serif" font-size="14" lengthAdjust="spacing" textLength="115" x="1412.5" y="110.1426">&#171;VenteController&#187;</text><rect fill="#E2E2F0" height="49.2188" rx="2.5" ry="2.5" style="stroke:#181818;stroke-width:0.5;" width="129" x="1405.5" y="765.9531"/><text fill="#000000" font-family="sans-serif" font-size="14" lengthAdjust="spacing" textLength="102" x="1419" y="787.4863">VenteMcService</text><text fill="#000000" font-family="sans-serif" font-size="14" lengthAdjust="spacing" textLength="115" x="1412.5" y="805.0957">&#171;VenteController&#187;</text><rect fill="#E2E2F0" height="49.2188" rx="2.5" ry="2.5" style="stroke:#181818;stroke-width:0.5;" width="116" x="1576" y="71"/><text fill="#000000" font-family="sans-serif" font-size="14" lengthAdjust="spacing" textLength="102" x="1583" y="92.5332">VenteMcService</text><text fill="#000000" font-family="sans-serif" font-size="14" lengthAdjust="spacing" textLength="100" x="1584" y="110.1426">&#171;VenteService&#187;</text><rect fill="#E2E2F0" height="49.2188" rx="2.5" ry="2.5" style="stroke:#181818;stroke-width:0.5;" width="116" x="1576" y="765.9531"/><text fill="#000000" font-family="sans-serif" font-size="14" lengthAdjust="spacing" textLength="102" x="1583" y="787.4863">VenteMcService</text><text fill="#000000" font-family="sans-serif" font-size="14" lengthAdjust="spacing" textLength="100" x="1584" y="805.0957">&#171;VenteService&#187;</text><rect fill="#E2E2F0" height="49.2188" rx="2.5" ry="2.5" style="stroke:#181818;stroke-width:0.5;" width="133" x="1715.5" y="71"/><text fill="#000000" font-family="sans-serif" font-size="14" lengthAdjust="spacing" textLength="102" x="1731" y="92.5332">VenteMcService</text><text fill="#000000" font-family="sans-serif" font-size="14" lengthAdjust="spacing" textLength="119" x="1722.5" y="110.1426">&#171;VenteDbContext&#187;</text><rect fill="#E2E2F0" height="49.2188" rx="2.5" ry="2.5" style="stroke:#181818;stroke-width:0.5;" width="133" x="1715.5" y="765.9531"/><text fill="#000000" font-family="sans-serif" font-size="14" lengthAdjust="spacing" textLength="102" x="1731" y="787.4863">VenteMcService</text><text fill="#000000" font-family="sans-serif" font-size="14" lengthAdjust="spacing" textLength="119" x="1722.5" y="805.0957">&#171;VenteDbContext&#187;</text><polygon fill="#181818" points="172.5,149.5703,182.5,153.5703,172.5,157.5703,176.5,153.5703" style="stroke:#181818;stroke-width:1.0;"/><line style="stroke:#181818;stroke-width:1.0;" x1="38.5" x2="178.5" y1="153.5703" y2="153.5703"/><text fill="#000000" font-family="sans-serif" font-size="13" lengthAdjust="spacing" textLength="122" x="45.5" y="148.7139">Enregistrer une vente</text><polygon fill="#181818" points="365.5,179.9219,375.5,183.9219,365.5,187.9219,369.5,183.9219" style="stroke:#181818;stroke-width:1.0;"/><line style="stroke:#181818;stroke-width:1.0;" x1="184.5" x2="371.5" y1="183.9219" y2="183.9219"/><text fill="#000000" font-family="sans-serif" font-size="13" lengthAdjust="spacing" textLength="77" x="191.5" y="179.0654">POST /Vente</text><polygon fill="#181818" points="510.5,226.625,520.5,230.625,510.5,234.625,514.5,230.625" style="stroke:#181818;stroke-width:1.0;"/><line style="stroke:#181818;stroke-width:1.0;" x1="377.5" x2="516.5" y1="230.625" y2="230.625"/><text fill="#000000" font-family="sans-serif" font-size="13" lengthAdjust="spacing" textLength="121" x="384.5" y="209.417">POST api/v1/ventes ,</text><text fill="#000000" font-family="sans-serif" font-size="13" lengthAdjust="spacing" textLength="85" x="384.5" y="225.7686">Payload: vente</text><polygon fill="#181818" points="655.5,273.3281,665.5,277.3281,655.5,281.3281,659.5,277.3281" style="stroke:#181818;stroke-width:1.0;"/><line style="stroke:#181818;stroke-width:1.0;" x1="522.5" x2="661.5" y1="277.3281" y2="277.3281"/><text fill="#000000" font-family="sans-serif" font-size="13" lengthAdjust="spacing" textLength="121" x="529.5" y="256.1201">POST api/v1/ventes ,</text><text fill="#000000" font-family="sans-serif" font-size="13" lengthAdjust="spacing" textLength="85" x="529.5" y="272.4717">Payload: vente</text><polygon fill="#181818" points="1139.5,303.6797,1149.5,307.6797,1139.5,311.6797,1143.5,307.6797" style="stroke:#181818;stroke-width:1.0;"/><line style="stroke:#181818;stroke-width:1.0;" x1="667.5" x2="1145.5" y1="307.6797" y2="307.6797"/><text fill="#000000" font-family="sans-serif" font-size="13" lengthAdjust="spacing" textLength="366" x="674.5" y="302.8232">GET api/v1/inventaire/stocks/{vente.MagasinId}/{vente.ProduitId}</text><polygon fill="#181818" points="678.5,334.0313,668.5,338.0313,678.5,342.0313,674.5,338.0313" style="stroke:#181818;stroke-width:1.0;"/><line style="stroke:#181818;stroke-width:1.0;stroke-dasharray:2.0,2.0;" x1="672.5" x2="1150.5" y1="338.0313" y2="338.0313"/><text fill="#000000" font-family="sans-serif" font-size="13" lengthAdjust="spacing" textLength="41" x="684.5" y="333.1748">Stocks</text><polygon fill="#181818" points="1305,364.3828,1315,368.3828,1305,372.3828,1309,368.3828" style="stroke:#181818;stroke-width:1.0;"/><line style="stroke:#181818;stroke-width:1.0;" x1="667.5" x2="1311" y1="368.3828" y2="368.3828"/><text fill="#000000" font-family="sans-serif" font-size="13" lengthAdjust="spacing" textLength="270" x="674.5" y="363.5264">GET api/v1/catalogue/produits/{vente.ProduitId}</text><polygon fill="#181818" points="678.5,394.7344,668.5,398.7344,678.5,402.7344,674.5,398.7344" style="stroke:#181818;stroke-width:1.0;"/><line style="stroke:#181818;stroke-width:1.0;stroke-dasharray:2.0,2.0;" x1="672.5" x2="1316" y1="398.7344" y2="398.7344"/><text fill="#000000" font-family="sans-serif" font-size="13" lengthAdjust="spacing" textLength="41" x="684.5" y="393.8779">Produit</text><polygon fill="#181818" points="1458,441.4375,1468,445.4375,1458,449.4375,1462,445.4375" style="stroke:#181818;stroke-width:1.0;"/><line style="stroke:#181818;stroke-width:1.0;" x1="667.5" x2="1464" y1="445.4375" y2="445.4375"/><text fill="#000000" font-family="sans-serif" font-size="13" lengthAdjust="spacing" textLength="121" x="674.5" y="424.2295">POST api/v1/ventes ,</text><text fill="#000000" font-family="sans-serif" font-size="13" lengthAdjust="spacing" textLength="85" x="674.5" y="440.5811">Payload: vente</text><polygon fill="#181818" points="1622,471.7891,1632,475.7891,1622,479.7891,1626,475.7891" style="stroke:#181818;stroke-width:1.0;"/><line style="stroke:#181818;stroke-width:1.0;" x1="1470" x2="1628" y1="475.7891" y2="475.7891"/><text fill="#000000" font-family="sans-serif" font-size="13" lengthAdjust="spacing" textLength="140" x="1477" y="470.9326">CreerVenteAsync(vente)</text><polygon fill="#181818" points="1770,502.1406,1780,506.1406,1770,510.1406,1774,506.1406" style="stroke:#181818;stroke-width:1.0;"/><line style="stroke:#181818;stroke-width:1.0;" x1="1634" x2="1776" y1="506.1406" y2="506.1406"/><text fill="#000000" font-family="sans-serif" font-size="13" lengthAdjust="spacing" textLength="61" x="1641" y="501.2842">Add(vente)</text><polygon fill="#181818" points="1770,532.4922,1780,536.4922,1770,540.4922,1774,536.4922" style="stroke:#181818;stroke-width:1.0;"/><line style="stroke:#181818;stroke-width:1.0;" x1="1634" x2="1776" y1="536.4922" y2="536.4922"/><text fill="#000000" font-family="sans-serif" font-size="13" lengthAdjust="spacing" textLength="124" x="1641" y="531.6357">SaveChangesAsync()</text><polygon fill="#181818" points="1481,562.8438,1471,566.8438,1481,570.8438,1477,566.8438" style="stroke:#181818;stroke-width:1.0;"/><line style="stroke:#181818;stroke-width:1.0;stroke-dasharray:2.0,2.0;" x1="1475" x2="1633" y1="566.8438" y2="566.8438"/><text fill="#000000" font-family="sans-serif" font-size="13" lengthAdjust="spacing" textLength="90" x="1487" y="561.9873">204 No Content</text><polygon fill="#181818" points="678.5,593.1953,668.5,597.1953,678.5,601.1953,674.5,597.1953" style="stroke:#181818;stroke-width:1.0;"/><line style="stroke:#181818;stroke-width:1.0;stroke-dasharray:2.0,2.0;" x1="672.5" x2="1469" y1="597.1953" y2="597.1953"/><text fill="#000000" font-family="sans-serif" font-size="13" lengthAdjust="spacing" textLength="90" x="684.5" y="592.3389">204 No Content</text><polygon fill="#181818" points="1139.5,623.5469,1149.5,627.5469,1139.5,631.5469,1143.5,627.5469" style="stroke:#181818;stroke-width:1.0;"/><line style="stroke:#181818;stroke-width:1.0;" x1="667.5" x2="1145.5" y1="627.5469" y2="627.5469"/><text fill="#000000" font-family="sans-serif" font-size="13" lengthAdjust="spacing" textLength="460" x="674.5" y="622.6904">PUT api/v1/inventaire/stocks/{vente.MagasinId}/{vente.ProduitId}/{vente.Quantite}</text><polygon fill="#181818" points="678.5,653.8984,668.5,657.8984,678.5,661.8984,674.5,657.8984" style="stroke:#181818;stroke-width:1.0;"/><line style="stroke:#181818;stroke-width:1.0;stroke-dasharray:2.0,2.0;" x1="672.5" x2="1150.5" y1="657.8984" y2="657.8984"/><text fill="#000000" font-family="sans-serif" font-size="13" lengthAdjust="spacing" textLength="102" x="684.5" y="653.042">Stocks mis &#224; jour</text><polygon fill="#181818" points="533.5,684.25,523.5,688.25,533.5,692.25,529.5,688.25" style="stroke:#181818;stroke-width:1.0;"/><line style="stroke:#181818;stroke-width:1.0;stroke-dasharray:2.0,2.0;" x1="527.5" x2="666.5" y1="688.25" y2="688.25"/><text fill="#000000" font-family="sans-serif" font-size="13" lengthAdjust="spacing" textLength="90" x="539.5" y="683.3936">204 No Content</text><polygon fill="#181818" points="388.5,714.6016,378.5,718.6016,388.5,722.6016,384.5,718.6016" style="stroke:#181818;stroke-width:1.0;"/><line style="stroke:#181818;stroke-width:1.0;stroke-dasharray:2.0,2.0;" x1="382.5" x2="521.5" y1="718.6016" y2="718.6016"/><text fill="#000000" font-family="sans-serif" font-size="13" lengthAdjust="spacing" textLength="90" x="394.5" y="713.7451">204 No Content</text><polygon fill="#181818" points="195.5,744.9531,185.5,748.9531,195.5,752.9531,191.5,748.9531" style="stroke:#181818;stroke-width:1.0;"/><line style="stroke:#181818;stroke-width:1.0;stroke-dasharray:2.0,2.0;" x1="189.5" x2="376.5" y1="748.9531" y2="748.9531"/><text fill="#000000" font-family="sans-serif" font-size="13" lengthAdjust="spacing" textLength="169" x="201.5" y="744.0967">Afficher confirmation de vente</text><!--SRC=[fPN1Rjim38RlVWeYfnPOwcxOgIW2f5vH14DN3rvxwaML6LUTAmMIx2mOzYvxbxtOQCTsB5ijlEuMKVm_aSelsWgR8yHQSJG6xWHkOGwNKcCcZDMeeP089KgB0UDMQPWLLkJ2C8k5dW4pq5i7mOPfAxZOC6bXTg7Lrk0-ws7_sqsuPXapGaQ4roo_b-VdTzL9aQArodFKYqKjBjreb0iAkAXbl88hAcBBTXNdiv9P8sORqMouYeGElz7y4QbFHfrLiYe6X6gaPf3Y0bQogei9ZTSyGLqAZXNZ41xr8JnRBZDYbkKgArna5nqH-NZ71TONwi0cNV4aIBFk4vhG9FcdX-ey_67xW2uO13rZmNpHEWZENh1dkq-fNh-GCBv9la5O7nxuSqXyy4khe4XOlWzhXO5tzp9ckronzAnz60S5wOUccKePwOZbCmpnhYuxt24ZD5RnxoRyMUDEchUrId-r4NhaQI4iHG8lT-ulFgcntl8yxdEhwnB2pVvmuod6HtcXbaRbBMRmXqwzzg6i9JLk9Koa4NLjcgNPINvKRny7JbQhwknBkcMQJivDM8dH8vCPclqXny50vEtmm-b7-AAWvj147FNYlyM1wb-S5z_-d_FQoDU29eEm-1OhmhCmyEStFAdgYpCkVlY61-tsN-ihi-Brgst7XJENbkkre48qS2NNGZypAvI4j1bGVm40]--></g></svg>